<mxfile host="65bd71144e" pages="2">
    <diagram id="prtHgNgQTEPvFCAcTncT" name="Page-1">
        <mxGraphModel dx="1573" dy="480" grid="1" gridSize="10" guides="1" tooltips="1" connect="1" arrows="1" fold="1" page="1" pageScale="1" pageWidth="827" pageHeight="1169" math="0" shadow="0">
            <root>
                <mxCell id="0"/>
                <mxCell id="1" parent="0"/>
                <mxCell id="SM5ARjFFcE0mHCxInEED-20" style="edgeStyle=orthogonalEdgeStyle;rounded=0;orthogonalLoop=1;jettySize=auto;html=1;exitX=0.5;exitY=1;exitDx=0;exitDy=0;entryX=0.5;entryY=0;entryDx=0;entryDy=0;" parent="1" source="SM5ARjFFcE0mHCxInEED-3" target="SM5ARjFFcE0mHCxInEED-4" edge="1">
                    <mxGeometry relative="1" as="geometry"/>
                </mxCell>
                <mxCell id="SM5ARjFFcE0mHCxInEED-3" value="index.js" style="rounded=1;whiteSpace=wrap;html=1;" parent="1" vertex="1">
                    <mxGeometry x="360" y="100" width="120" height="60" as="geometry"/>
                </mxCell>
                <mxCell id="SM5ARjFFcE0mHCxInEED-21" style="edgeStyle=orthogonalEdgeStyle;rounded=0;orthogonalLoop=1;jettySize=auto;html=1;exitX=0.5;exitY=1;exitDx=0;exitDy=0;entryX=0.5;entryY=0;entryDx=0;entryDy=0;" parent="1" source="SM5ARjFFcE0mHCxInEED-4" target="SM5ARjFFcE0mHCxInEED-5" edge="1">
                    <mxGeometry relative="1" as="geometry"/>
                </mxCell>
                <mxCell id="SM5ARjFFcE0mHCxInEED-26" style="edgeStyle=orthogonalEdgeStyle;rounded=0;orthogonalLoop=1;jettySize=auto;html=1;exitX=1;exitY=0.5;exitDx=0;exitDy=0;" parent="1" source="SM5ARjFFcE0mHCxInEED-4" target="SM5ARjFFcE0mHCxInEED-6" edge="1">
                    <mxGeometry relative="1" as="geometry"/>
                </mxCell>
                <mxCell id="SM5ARjFFcE0mHCxInEED-4" value="AppProvider" style="rounded=1;whiteSpace=wrap;html=1;" parent="1" vertex="1">
                    <mxGeometry x="360" y="200" width="120" height="60" as="geometry"/>
                </mxCell>
                <mxCell id="xqwfywdaJNk80DsOVywT-27" style="edgeStyle=orthogonalEdgeStyle;rounded=0;orthogonalLoop=1;jettySize=auto;html=1;exitX=0.5;exitY=1;exitDx=0;exitDy=0;" parent="1" source="SM5ARjFFcE0mHCxInEED-5" target="xqwfywdaJNk80DsOVywT-24" edge="1">
                    <mxGeometry relative="1" as="geometry"/>
                </mxCell>
                <mxCell id="xqwfywdaJNk80DsOVywT-28" style="edgeStyle=orthogonalEdgeStyle;rounded=0;orthogonalLoop=1;jettySize=auto;html=1;exitX=0.5;exitY=1;exitDx=0;exitDy=0;entryX=0.5;entryY=0;entryDx=0;entryDy=0;" parent="1" source="SM5ARjFFcE0mHCxInEED-5" target="xqwfywdaJNk80DsOVywT-25" edge="1">
                    <mxGeometry relative="1" as="geometry"/>
                </mxCell>
                <mxCell id="xqwfywdaJNk80DsOVywT-29" style="edgeStyle=orthogonalEdgeStyle;rounded=0;orthogonalLoop=1;jettySize=auto;html=1;exitX=0.5;exitY=1;exitDx=0;exitDy=0;" parent="1" source="SM5ARjFFcE0mHCxInEED-5" target="xqwfywdaJNk80DsOVywT-26" edge="1">
                    <mxGeometry relative="1" as="geometry"/>
                </mxCell>
                <mxCell id="xqwfywdaJNk80DsOVywT-34" style="edgeStyle=orthogonalEdgeStyle;rounded=0;orthogonalLoop=1;jettySize=auto;html=1;exitX=0.5;exitY=1;exitDx=0;exitDy=0;" parent="1" source="SM5ARjFFcE0mHCxInEED-5" target="xqwfywdaJNk80DsOVywT-31" edge="1">
                    <mxGeometry relative="1" as="geometry"/>
                </mxCell>
                <mxCell id="SM5ARjFFcE0mHCxInEED-5" value="App" style="rounded=1;whiteSpace=wrap;html=1;" parent="1" vertex="1">
                    <mxGeometry x="360" y="300" width="120" height="60" as="geometry"/>
                </mxCell>
                <mxCell id="SM5ARjFFcE0mHCxInEED-6" value="通过创建的 AppContext 将希望整个前端使用的所有 data 以及 methods 传入到 children component(也就是下面的 App component及它的所有 children)中" style="rounded=1;whiteSpace=wrap;html=1;" parent="1" vertex="1">
                    <mxGeometry x="550" y="200" width="250" height="60" as="geometry"/>
                </mxCell>
                <mxCell id="xqwfywdaJNk80DsOVywT-4" style="edgeStyle=orthogonalEdgeStyle;rounded=0;orthogonalLoop=1;jettySize=auto;html=1;exitX=0.5;exitY=1;exitDx=0;exitDy=0;" parent="1" source="xqwfywdaJNk80DsOVywT-2" target="xqwfywdaJNk80DsOVywT-3" edge="1">
                    <mxGeometry relative="1" as="geometry"/>
                </mxCell>
                <mxCell id="xqwfywdaJNk80DsOVywT-8" style="edgeStyle=orthogonalEdgeStyle;rounded=0;orthogonalLoop=1;jettySize=auto;html=1;exitX=0.5;exitY=1;exitDx=0;exitDy=0;" parent="1" source="xqwfywdaJNk80DsOVywT-2" target="xqwfywdaJNk80DsOVywT-5" edge="1">
                    <mxGeometry relative="1" as="geometry"/>
                </mxCell>
                <mxCell id="xqwfywdaJNk80DsOVywT-41" style="edgeStyle=orthogonalEdgeStyle;rounded=0;orthogonalLoop=1;jettySize=auto;html=1;exitX=0.5;exitY=1;exitDx=0;exitDy=0;entryX=0.5;entryY=0;entryDx=0;entryDy=0;" parent="1" source="xqwfywdaJNk80DsOVywT-2" target="xqwfywdaJNk80DsOVywT-6" edge="1">
                    <mxGeometry relative="1" as="geometry"/>
                </mxCell>
                <mxCell id="xqwfywdaJNk80DsOVywT-2" value="&lt;div style=&quot;line-height: 30px;&quot;&gt;&lt;div style=&quot;line-height: 30px;&quot;&gt;SharedLayout&lt;/div&gt;&lt;/div&gt;" style="rounded=1;whiteSpace=wrap;html=1;" parent="1" vertex="1">
                    <mxGeometry x="-10" y="560" width="120" height="60" as="geometry"/>
                </mxCell>
                <mxCell id="xqwfywdaJNk80DsOVywT-39" style="edgeStyle=orthogonalEdgeStyle;rounded=0;orthogonalLoop=1;jettySize=auto;html=1;exitX=0.5;exitY=1;exitDx=0;exitDy=0;entryX=0.5;entryY=0;entryDx=0;entryDy=0;" parent="1" source="xqwfywdaJNk80DsOVywT-3" target="xqwfywdaJNk80DsOVywT-37" edge="1">
                    <mxGeometry relative="1" as="geometry"/>
                </mxCell>
                <mxCell id="xqwfywdaJNk80DsOVywT-40" style="edgeStyle=orthogonalEdgeStyle;rounded=0;orthogonalLoop=1;jettySize=auto;html=1;exitX=0.5;exitY=1;exitDx=0;exitDy=0;entryX=0.5;entryY=0;entryDx=0;entryDy=0;" parent="1" source="xqwfywdaJNk80DsOVywT-3" target="xqwfywdaJNk80DsOVywT-38" edge="1">
                    <mxGeometry relative="1" as="geometry"/>
                </mxCell>
                <mxCell id="xqwfywdaJNk80DsOVywT-3" value="&lt;div style=&quot;line-height: 30px;&quot;&gt;&lt;div style=&quot;line-height: 30px;&quot;&gt;SideBar&lt;/div&gt;&lt;/div&gt;" style="rounded=1;whiteSpace=wrap;html=1;" parent="1" vertex="1">
                    <mxGeometry x="-175" y="660" width="120" height="60" as="geometry"/>
                </mxCell>
                <mxCell id="xqwfywdaJNk80DsOVywT-5" value="&lt;div style=&quot;line-height: 30px;&quot;&gt;&lt;div style=&quot;line-height: 30px;&quot;&gt;Navbar&lt;/div&gt;&lt;/div&gt;" style="rounded=1;whiteSpace=wrap;html=1;" parent="1" vertex="1">
                    <mxGeometry x="50" y="660" width="120" height="60" as="geometry"/>
                </mxCell>
                <mxCell id="xqwfywdaJNk80DsOVywT-17" style="edgeStyle=orthogonalEdgeStyle;rounded=0;orthogonalLoop=1;jettySize=auto;html=1;exitX=0.5;exitY=1;exitDx=0;exitDy=0;entryX=0.5;entryY=0;entryDx=0;entryDy=0;" parent="1" source="xqwfywdaJNk80DsOVywT-6" target="xqwfywdaJNk80DsOVywT-14" edge="1">
                    <mxGeometry relative="1" as="geometry"/>
                </mxCell>
                <mxCell id="xqwfywdaJNk80DsOVywT-18" style="edgeStyle=orthogonalEdgeStyle;rounded=0;orthogonalLoop=1;jettySize=auto;html=1;exitX=0.5;exitY=1;exitDx=0;exitDy=0;" parent="1" source="xqwfywdaJNk80DsOVywT-6" target="xqwfywdaJNk80DsOVywT-13" edge="1">
                    <mxGeometry relative="1" as="geometry"/>
                </mxCell>
                <mxCell id="xqwfywdaJNk80DsOVywT-19" style="edgeStyle=orthogonalEdgeStyle;rounded=0;orthogonalLoop=1;jettySize=auto;html=1;exitX=0.5;exitY=1;exitDx=0;exitDy=0;" parent="1" source="xqwfywdaJNk80DsOVywT-6" target="xqwfywdaJNk80DsOVywT-12" edge="1">
                    <mxGeometry relative="1" as="geometry"/>
                </mxCell>
                <mxCell id="xqwfywdaJNk80DsOVywT-20" style="edgeStyle=orthogonalEdgeStyle;rounded=0;orthogonalLoop=1;jettySize=auto;html=1;exitX=0.5;exitY=1;exitDx=0;exitDy=0;" parent="1" source="xqwfywdaJNk80DsOVywT-6" target="xqwfywdaJNk80DsOVywT-15" edge="1">
                    <mxGeometry relative="1" as="geometry"/>
                </mxCell>
                <mxCell id="xqwfywdaJNk80DsOVywT-6" value="&lt;div style=&quot;line-height: 30px;&quot;&gt;&lt;div style=&quot;line-height: 30px;&quot;&gt;Outlet&lt;/div&gt;&lt;/div&gt;" style="rounded=1;whiteSpace=wrap;html=1;" parent="1" vertex="1">
                    <mxGeometry x="302.01" y="660" width="120" height="60" as="geometry"/>
                </mxCell>
                <mxCell id="xqwfywdaJNk80DsOVywT-7" value="react router 6 的特性, 可以将这个 element 根据 url 替换为下面中的任意一个" style="text;html=1;strokeColor=none;fillColor=none;align=center;verticalAlign=middle;whiteSpace=wrap;rounded=0;" parent="1" vertex="1">
                    <mxGeometry x="450" y="657.5" width="161" height="65" as="geometry"/>
                </mxCell>
                <mxCell id="xqwfywdaJNk80DsOVywT-12" value="url: /all-jobs&lt;br&gt;AllJobs" style="rounded=1;whiteSpace=wrap;html=1;" parent="1" vertex="1">
                    <mxGeometry x="391.01" y="770" width="70" height="50" as="geometry"/>
                </mxCell>
                <mxCell id="xqwfywdaJNk80DsOVywT-13" value="url: /all-jobs&lt;br&gt;AddJob" style="rounded=1;whiteSpace=wrap;html=1;" parent="1" vertex="1">
                    <mxGeometry x="302.01" y="770" width="65" height="50" as="geometry"/>
                </mxCell>
                <mxCell id="xqwfywdaJNk80DsOVywT-14" value="url: /profile&lt;br&gt;Profile" style="rounded=1;whiteSpace=wrap;html=1;" parent="1" vertex="1">
                    <mxGeometry x="205" y="770" width="67.01" height="50" as="geometry"/>
                </mxCell>
                <mxCell id="xqwfywdaJNk80DsOVywT-15" value="&lt;b&gt;DEFAULT&lt;/b&gt;&lt;br&gt;url: /&lt;br&gt;Stats" style="rounded=1;whiteSpace=wrap;html=1;" parent="1" vertex="1">
                    <mxGeometry x="482.01" y="770" width="65.98" height="50" as="geometry"/>
                </mxCell>
                <mxCell id="xqwfywdaJNk80DsOVywT-24" value="url:&amp;nbsp;/landing&lt;br&gt;Landing" style="rounded=1;whiteSpace=wrap;html=1;" parent="1" vertex="1">
                    <mxGeometry x="360" y="420" width="120" height="60" as="geometry"/>
                </mxCell>
                <mxCell id="xqwfywdaJNk80DsOVywT-25" value="url:&amp;nbsp;/register&lt;br&gt;Register" style="rounded=1;whiteSpace=wrap;html=1;" parent="1" vertex="1">
                    <mxGeometry x="520" y="420" width="120" height="60" as="geometry"/>
                </mxCell>
                <mxCell id="xqwfywdaJNk80DsOVywT-26" value="url:&amp;nbsp;/*&lt;br&gt;Error" style="rounded=1;whiteSpace=wrap;html=1;" parent="1" vertex="1">
                    <mxGeometry x="680" y="420" width="120" height="60" as="geometry"/>
                </mxCell>
                <mxCell id="xqwfywdaJNk80DsOVywT-30" value="通过 useAppContext() 获取到其中的 User field, 如果为 null 则必须转到 /landing.&lt;br&gt;只有不为 null 才能访问 protectedRoute 的children component" style="text;html=1;align=center;verticalAlign=middle;whiteSpace=wrap;rounded=0;fillColor=#6a00ff;fontColor=#ffffff;strokeColor=#3700CC;" parent="1" vertex="1">
                    <mxGeometry x="-200" y="410" width="170" height="100" as="geometry"/>
                </mxCell>
                <mxCell id="xqwfywdaJNk80DsOVywT-32" style="edgeStyle=orthogonalEdgeStyle;rounded=0;orthogonalLoop=1;jettySize=auto;html=1;exitX=1;exitY=0.5;exitDx=0;exitDy=0;entryX=0;entryY=0.5;entryDx=0;entryDy=0;" parent="1" source="xqwfywdaJNk80DsOVywT-31" target="xqwfywdaJNk80DsOVywT-24" edge="1">
                    <mxGeometry relative="1" as="geometry"/>
                </mxCell>
                <mxCell id="xqwfywdaJNk80DsOVywT-35" style="edgeStyle=orthogonalEdgeStyle;rounded=0;orthogonalLoop=1;jettySize=auto;html=1;exitX=0.5;exitY=1;exitDx=0;exitDy=0;" parent="1" source="xqwfywdaJNk80DsOVywT-31" target="xqwfywdaJNk80DsOVywT-2" edge="1">
                    <mxGeometry relative="1" as="geometry"/>
                </mxCell>
                <mxCell id="xqwfywdaJNk80DsOVywT-31" value="url: / &lt;br&gt;ProtectedRoute" style="rounded=1;whiteSpace=wrap;html=1;" parent="1" vertex="1">
                    <mxGeometry x="-10" y="420" width="120" height="60" as="geometry"/>
                </mxCell>
                <mxCell id="xqwfywdaJNk80DsOVywT-33" value="没登陆" style="text;html=1;strokeColor=#d79b00;fillColor=#ffcd28;align=center;verticalAlign=middle;whiteSpace=wrap;rounded=0;gradientColor=#ffa500;" parent="1" vertex="1">
                    <mxGeometry x="199" y="450" width="60" height="30" as="geometry"/>
                </mxCell>
                <mxCell id="xqwfywdaJNk80DsOVywT-36" value="登陆" style="text;html=1;strokeColor=#d79b00;fillColor=#ffcd28;align=center;verticalAlign=middle;whiteSpace=wrap;rounded=0;gradientColor=#ffa500;" parent="1" vertex="1">
                    <mxGeometry x="50" y="500" width="60" height="30" as="geometry"/>
                </mxCell>
                <mxCell id="xqwfywdaJNk80DsOVywT-37" value="&lt;div style=&quot;line-height: 30px;&quot;&gt;&lt;div style=&quot;line-height: 30px;&quot;&gt;SmallSideBar&lt;/div&gt;&lt;/div&gt;" style="rounded=1;whiteSpace=wrap;html=1;" parent="1" vertex="1">
                    <mxGeometry x="-260" y="770" width="120" height="30" as="geometry"/>
                </mxCell>
                <mxCell id="xqwfywdaJNk80DsOVywT-38" value="&lt;div style=&quot;line-height: 30px;&quot;&gt;&lt;div style=&quot;line-height: 30px;&quot;&gt;BigSideBar&lt;/div&gt;&lt;/div&gt;" style="rounded=1;whiteSpace=wrap;html=1;" parent="1" vertex="1">
                    <mxGeometry x="-90" y="770" width="120" height="30" as="geometry"/>
                </mxCell>
                <mxCell id="xqwfywdaJNk80DsOVywT-42" value="" style="shape=image;verticalLabelPosition=bottom;labelBackgroundColor=default;verticalAlign=top;aspect=fixed;imageAspect=0;image=data:image/png,iVBORw0KGgoAAAANSUhEUgAAAb0AAAE4CAYAAADPUy0vAAAgAElEQVR4nOzdf1xUdb748ZcOzAgMqMMPBxTEhFRwBcnwR1qmZlpd3IzVXczdyLupW+ZX01291rrdcmvXVi/artmuS3ctdyvLdC3N1LxpmWQEFf5ITAQFFBgVBpDBse8f58wwMww4CIg67+fjweNxmHM+53zOmZnzPp+f06l/XPIPCCGEEF6gc0dnQAghhLhWJOgJIYTwGhL0hBBCeA0JekIIIbyGBD0hhBBeQ4KeEEIIryFBTwghhNeQoCeEEMJrSNATQgjhNSToCSGE8BoS9IQQQngNCXpCCCG8hgQ9IYQQXkOCnhBCCK8hQe9m12koKyc+y1sx0R2dEyGE6HAS9G5mnYaycsJD3BEcSHTSQyz06egMCSFEx7rug96Q8IdZP+FZ9j3wCNM6OjM3lGieHvMQdwT7gOU0W/79J5Zf6ug8CSFEx7run/379RpAvxA/MPt2dFZuKNOS0kkJ94Efqji4+y88X9vRORJCiI533Zf0xFUIfoRHBwQCUPHtv/hVuUQ8IYQACXo3oWj+cPsgAjsBVV/zeu7hjs6QEEJcNzr1j0v+oenVSfzlxw8zRA9VR19n7BfZ9Os+madH3Eafbn5oOwGXaik+/jFrDu7kQ7d78uPeyKnMGBxHdKAPdAJ+uETV+VN89lkmz5yrct485imyhvVswSnUcnDbEn5VYfs/hbceHk00UPD5fKbku0liP8Zptrz+J55vbl2nWOYmTCbl1h4EaoEfwFJ1mo/3vuqS94ZrpRw3kJ/0S+fRgdEE+ylbWGrO8PUX7/J80TGKW3CGLdJjNvvuiUXLJY7uXcr0k1LKE0IImxa06QUxd9izTIsJdNmDHxH97uOZIH/Mu7bwqeO6TrE8d9cvubeXephLl7BYQav1IbB7NPfe/yxDDr3JjOwD7RcEWkHXbSrv3TOUCJ3Di51AG9STe+9bQPCHL7qvOuw8lL+kTGVIkPPLWv8eDLnrl/zPZ39iyvdn2iHHfizs3wctQOUh3paAJ4QQTjwOeoF97mOa1gfqTBzM2sLfC7/moGYAT9/xMCmRfmjDh/Jojy18ar+X+zF72CNKwPuhim8+eZ1nbCWcTrHMHfYw0/oGEhz3EH+o+LqhRJL/J5IdSmfTbl/G3H5+YD5Mxnt/5Y22OvMr6sHd43ui1ULVqX28fuAjMmsvMSR8Ks/dNYhgn0CGJE1kyI53OeiSMvr2qUR3AkvFYTbv+xfLqy4xJCSFp8cMJULrQ/SgFKZ93w7n0ukeblcfMCoKD7ClrfcvhBA3OM/b9LQ+UHmYNZue51cnv+bgD8Clwzy//2u1lOZHdM9BDdsHTSWlr1KvV/xVJjMcq/R+OEbG/kw+LgfwoV/CVFLa4mzalA9a30sUZK1h+p53yaytAmo5WPIaW06qff9D+zDBXdJOYCnZx3Pb/8ryKjVd+Zs8/61JWa/vwRB9O2TZ2JOITgC1nDglbXlCCOHK86BnPkzGv/9KputYL8sxis3qsqah4JgeF0swQN0xPjxU4GaHBWTYqviCenGHtgW5viYuUfzFX5jyXeP2tzVlar47NZG06jBrdr/bqI3z4JkzKK2Afuh0btK10pDuwUrVJiaKy9t+/0IIcaPzvE2v6gxvuO2oks2v3st2eS2WQSFq7w3TadY0scviChNV9CCQIEKCgRKPc3MN1FNc4S5Y06gK1lVV8ZdNXKv21S9AveY1lZy49ocXQojrXjsNTg9EZ9uzcST7fjLS/WadfNSSiQ+BAe2TE690uaMzIIQQ16f2n5Glkw/aK1blXaKuvt1z4j18fQi68lZCCOF12j/olewheZf0I7wWyi21gB/ogpQOLR1QxSqEENezdpqRJZvi8+piYI+2mSg6IIg+LUwSGBDr5tVonu7doy1ydN358HyluhRMhLFDsyKEENeldpuG7O8FaicQfSyTWvFbbh9fUG/knQz08ShWnaG8RlkK7hZLhNM6P6bdrk7EfDMqLKDgBwAfonsldXRuhBDiutNuQa+4YB8HqwB8iB72K7YNSyHdv4c9CEVoo/lJxGT+Mvpp3kts+gZdXHCM4h8A/PjRHU/xXFhP+jV75AMcLVPHVUTewR/6DqAfEKEdynOjn2Zuv8Cbt9rvhwMcLVMWA6OGkt6xuRFCiOtOOxZ5svnVDiPrJ46jn78PwTGjmR0zmtlutqyqbOaH3izbePu7BCVY+ffk3vFPca/TBq5zb0JG7tdMiEoiuJMf/Yb/kvXDHTavO8PHX5oYMmIALhOq3QTOsOa7Au4Niwa/PoyJ9iOzQKYiE0IIm/b9lYXaD5i+aQ2ZOccorryExbGEZaml4tRhPtz9V36V/XVzO+GNL17kmf/7mgLXfTSl8nVmvL+Po+dqG0p11loqCvaxfNMf+I3p5u0qWlzwEZ+eB/ChX+LDTGtqAL0QQnihK/zKgrgRRYT8kvUTlJJs1dE3mf7F9TmhtxBCXGvye3o3oeLy1/n7UWXCs8B+KTxtmx1HCCG8nAS9m1Itb3yRyZaSS4AfQ+5dxF8k8AkhhAS9m1cBz+9+R+lB2ymQIXc/4rYTkRBCeBMJejezHw7wqy1vcvB8FUe/2NbkxN9CCOEtpCOLEEIIryElPSGEEF5Dgp4QQgivIUFPCCGE15CgJ4QQwmtI0BNCCOE13Aa9sLAQfH19r3VehBBCiHYlJT0hhBBeQ4KeEEIIryFBTwghhNeQoCeEEMJrSNATQgjhNSToCSGE8BoS9IQQXiKG0AUZTFqTQUJKTEdnRnQQn47OgBBCXAu63ywlbbQRgOjZS9Gcmk52dmv2mM64d9OI94PK7NVkLtnSJvkU7UuCXntLms/k/55IpEb9v2gbGY+t6NAsXVHEGCJnTGL4wBjCArRobHm3WDCdy+fonu18+do2rB2aSRf3L2bcpET69LDw5bOtvZldK8lEP5dO8q1RBBRtJHNBZvse7rE1PPFgDBo3q6wWM6biQ2RtyiR/R3775qODBHXXO/ynJ6AX0JrPydgYwv2UxbMnJeDdKKR6s51Fpo1tCHgAXcMxdFhursRI0BNrSH91MZNHxBEe5BDwALRaDD3iGD41jYSkDsukW5HjRhIfacD/YikFN0TAA5ImkjwkhvAgLaaidg54gKG30W3AA9Bo9YRGJ3P/vAwmzUtu97x0hLJNeymoVZZNuVvIam2cGmhUv8ullBxs5b7ENSMlvfY0dCnD47VAKdm5WpISDOCrJQAwdXTeGjESviyDKUm2kGzBdCyH7OwDFBWZAT2GgUOJGRxHvN/1FljG0KuHFgBref51eG2bMMRIGAAmzn7b/ocLD1VLOueyyExbQqVtRWwy4fdN4+4xcYRqtUSPf4rheVPZv6P983RNHVjB5sltV8sSHq5+V6pLKbmuvg+iORL0WmQo8/62kPs0O3k2/RX2NbutkZifJxMO1BzZzd4zI0nCAH4GDBFQVHxtcuwp/3nLmKQGvLryHLa/vJCCA87bVO7aQgGwM8J47TPYnIihhHdXFotPbO7YvLRA+C1qyau6kIJd7X20VELVe7T1XGFDwAM4lkVJRhYbLGt4IiUGDQZiRoxh/47d7Z2pG1gi4Ub1IcJUQknHZka0gAQ9T8U9zKqXHmZkmBaYwrwln7Bv2aGmtx8/h+G3KKW8L/+VCZFx1BCFP3q6DwU2NU7Sb81HTIimod0vNoWEOdNIvsWAvwawmik7sputK1ZTWdx2aRm/jIfGR6EDqMxh828WUtJcUC4udfNiDKFzZzJqRBwRDu2AdZWFHPlsM3sztjRuA3xwOemPJRJEKXtmTCe3OIbQBU9xz7AYQgOUTazVpXy7bTV71mU1pEtaypRlIwl3k4vIseuZO7bx6wXb72FzhpsEsROJ+XkqyQOMhAZo1YNaMBUfInvrWvK2uLRv2fMMFO/mlRkvUNdop6mMenMmSUEAZnLXL2TPhnwiV77P5P7axnkISGTKto8av16Zw/qpC9um5JoUT5h6Tc+ePuB+mzXHKE6JIRLw6eJYCT+fydsmEgnkb7qH9181oktN5+5JycR01yvvtdWCqWgf21e8QNkx97vXpMxn1AOj6N9Dj85+qc0UH97L3nUrXNKlMnrjTBICgOLdZMx4wf1O561j7vgoAIp23MO7K9XXE1KJ/9lEEmKMGAK0ysOF1ULJt1vYumgtNc1eLAej00mePIGE3gb8Hd66ulozqP9XljXVBhpD0Ox07h4RR6TtOuHpd8JE1ktT2b9L2ce40YlEBNnOw0zJt9vZvmpt4++yuCJp0/NAz3uX8M7fHlUDnpkjG5fxZHMBDyP9JiVjQCnlZR8ALHAJAD1do9yn6WL7EpkKIXU501fOYXSsGrQANHpC41NIe2a+EqDaJG0i8anJ9raJvSuuEPDcGT2HCRvXkDYhkUiXdkBdUBQJE+bw6KqZLscFog1K8MDCRVIZtWENaWMbAh6AJsBIQupSxqU5pLNXC3rKffWhJm0ZaS/N5/4hUYQGaLHWWqirtYBGiyEykXGz3bRvbXqDrCJ1OSKRpPGuezUS/uI0NeBZKNrxAns25ONYBeupNq2qtV8zC6aiHPfbRDR6hxRJgerTsZnqsmSiX8pg1owx9AtpuJGj0WKIHsPUha6fLyBiDP1WbeKJ2RNJiGwIeEoyPZEJE0l7YQ0xTu3EGykpUxe7Gtw+4AAYQmzB2YypqOH1+MdnMi5BeV/tH0eNlvCEVO6e7UlNRQyRz61n1m/SGB6rBDz75wPQ+enRqTt224klNo3h6zNIT0kmOkSPxqqktVobvhO/XDMff9d0eq16/cxUHk4haZ2yj8ggx/PQE56QykNPpnpwHsKVlPSuYOSTL7N0WhzBGsBSwu4VC1iw8QqVGQ8+xYhbAEx8u03toLClhAuzlRKCLiARcL3xjKR7V2XpEoOZPD0Rg8ZCWe52tq5bTWX1GBJ+9xSjI7XoooeSNBb272qDtON/QlKksliTt00J0C0xdD6T500kUgtYTOTt3sxnH2yg5pgR3YSfMHzaBBJCtPjHpjDusc28/2pDKVHnp979qi1E/n4m8d2Bc/nsfHcteRtL0U1/irS0RILQ0mdQKmzYqGz/6mxefrUhCzF//oj7b6FxW1VzUpfz8+nK+1FXvI/Nq9ZSkqvmbfRMJjyRSr8ALdGjphG5MouG+2kOeRuzSJqXjAEDt02aw/4dq+1r/ectY1KCHiXgPcu7K20l1N3sT9vNftuGY5cxfYHysKGUnjy73FeroROLibKmqlLHNjxMnP1+Y8PrvfUozyFmfIYuZlK8Xn2v32bv2xupC5hI0qL5jIoATWQ8MUCePXEy8b97inHKB4SyvF18/PYWSg7kQ8JEYn72COMSDOgCYhg3Yyb52WvtKctMZojWQ4ABA7itQjR0s/XINFHikOVL9WaKcrPI3rONgu05MHopU36j1A6E9R4JbHSzNxsj4S8uZ7L6Ptq/R7aSaEQi0QuXMqm/HredWCJSGf18OglBgKWU/ev/RNZG9fseMYaYRXO4P1aPLnosI9JWsHODQ9oQvRL0qi2E/m4mCRFaqC5k/9aNSo/phHTGPZNGfAAExQwllI2UIVpCSnpNimXGqo289HMl4FnOHuDP/zntygGPRJIeUG+m3+926Axwjkq151jXIHcDY4MJ6KIsGRKSidQqN80Ni9QvW/FucrcdUm/oBsIHtU3a0DFxainPxLc7HL99nkhl1HxbwCtk5++nsjNjAzXHAEqp276aPSv3qTcrLX0SJjmlDgpSb1gBMcT3gLqi3WQumE3exhwl/foDnKhWNvF3XzwGUggPUZbqzuR7FvCS5jPJFvCKtvGPGc82BDyAPWv5OFv930+vlkYd7FjN/u+VJ37NLckk2UooqcuZqlYTm7IzHQKeG9e451+oQb3W1aWcdVuSTyR+VJxyw7Xmk7/VYZW9RG4kPkEPlYfY/Pup7MzYSF0xcGwb2Ydt10+LzqHEFrpssT3gFe14lg0LVigBDyB3G/mLXiBLzY+udyKO3wzTyVK1+s9A6IPu8pxKrx7qYnE+BQ5rjj7+IO8uekEJeAB78jhb3cTFcTV9MQ8kKNeraNefGr5HNsU5+GgbrqdzJ5ZE+j1jC3iF7Pz99IaAB1C8m/zXcuzfiaAeOAntoZZcA2JIiNRSV7yP9U/OIMs2RCg3k7x8s7JNZy1dPDwl0UCCnjuRP+alTat5fIQBLVCR8xYL7lvMuuZqNG2mp3NbBICJ3M1rHVZUUFevLPkb3N3AA+zVJQCVuW5umptKuOD2oFebdgwxUbYvbyH5Leytp/vNJId2qyXkuSslZm8j/4yyqPENcFoVZnAYN1Wdw+bfvdBkG0XlhcImchFDqBqVTGVfeZBrI5HTxxKtBayF7H1lhdv2nTBDQ5vWpUZrS8n/R5Z64zIS/+BEpcSrBtLK3LWsX9JcSQJCbT3/ak2UtXvPv1TCQ9VFt50ujBj+6ylGqSX+ks8yOerwPgR1dXifrKXsWTG3UScng20MnNVMpe18khZzd5LyutvPJAA55B1XA6ZG61w1etykfmb1GKLdJB07mEj1I1Xy3TY3basOImIxqNtWVzY3DnEiwyfGKdWOZ/ax/SV3nXnGEKp2nKLM5XpOT+fOaKUGo2jPavffif4G1IoZrJedV3UNdPlOPPMsJpfvhP39uGhu4n4gmiPVm67unMVrS6YwKBiU9rsMFr64i9MeJW74wli/3+fS5XsLpgtzIAj7WD2n9poHw+1fBKpz2Lqo+Zumk6tOm0iYw5e3ZdUkE0lKUNtGirPYv9Fd5xaAHOos7o/d0LZjIW/znxq3JTp0vjCVNHFOqeEEA2Dm7HdNtFU5ikjjdrUzSc2RXeS5BpyEicT8LI1x8co2dd9ncdTdfg48y/6895kcr8UwOI0pfY2Ea6HyyEbevOL1NxJhHz5Q6lB12k4crqNTp4uIRPxHjWHExLHEq+2NdQXb2Pp75+DU1SHolXy2mlw3N3LTkgdx7SdkeDBRbYsrJfetpq+JrZ2skV35lDyejMEPuoakAM5tZ0GjYpTSsjWf3PVXeO/tVbdX+JyMH0mM+p3IP9BUh5eG743pjOO+jMSPUgNm7SG+WOlynIhEDJOmMWGCuo0ln7y3nfcbZH8ubOI7ARydfY/7z6TwiAQ9R4mP8tqzUxgUqPx7YstS0l70pPSgeiyFhO4AJr7cvLrR6spqC6B1P1YvymCvRiv54g33ASgl3P0T4tWmTWkYKN90SaoJYxtuDkXfZjbzlJ2CwX5gx9cHY7Blungfe9e7CZrxBnvVa1Pj2HS3GtXOAM5tOk36STxqgQb/2GnMendawzqt1qnEXHcmi83L1tKUog27KPrviURqjIR3V6pK35znSc/AifaSQmVpXvObtgWHjj9BSXOYu22Om40slOVu4b1GPRsTCe2uPp3UHmL/75upsnUyhn591U9X0VfNzpDT0BnFtVT9FabKNPCDgG6uXVkmEn+rkq7myF6nkqk7ukiDWops/nMSNEINpBRSsLmJB7npvdVgbqHkuGNJMI0Y24dLG8P9777fsEqjderAg6WUrPXPku+Ubw++E6LVJOg5yvk7jyzV2kt6fVJe4N/+rzBr0XselPRSGT0+Bh1gPXOIfOsYgly6zutQg56bsXr2ga7NPbX2tQU35yBw1Wmbmp7DE/Y2KTNlx5v5ckY4VD86PhU7TOHUVNAM6mtU25ia7nwR2VMtbZ4r9WislL1aEZQg57hS7WFn+v4Q2Z+/Tf7G5ksP/kNjlQ5Oquriw551hb/G01c1NxNLXbWJkvwDZP1zg3O7pt3QhjbTkzktKJU2lIaa7tIPYHQYNO/6HuZQUmqGHno03aOUqmPbqukTGNgdoJQv375yW7Snn5Mw22DGalMTbZ9G+g2LswdQp8/lgw6zLWm06PycU1prLVyozCf/wF6yN6vtoY4cPhclx69QXSuumgQ9V5+8wiMnSnlp1SzGRGrpOe5JNmyIYknaqmYHo+vmTWSgWjWh6TGStAUjm9nadayew0DXM4VNPLUa6RejtgVWF5K/qy3SNmjxB8HeGmzC1Mx9Wzd9sFqyMpH/mcNTsUNHjoL/cx80w22N+uVNVQE2tK142onFYKuqq87hrdSFVz2oWJO2nKkpMfhjJu+Imfj+RgxDUolP2ta4ytRVX1ubzjXuxFJ7iHcnz21ZderYKAxqxCw63LKp0myB9kJ5Mx+QpHTi1dKR6fi+Ru9hSbkyGxBd9HTFFvQamhEqczd70OPY885OOl91wdREdf/4OSTfoi5Xl1Ls+H2z17iYyV33IHta0EIBOHwuTBQd8KCqXlwV6cjiTtF7LHhwDn/+zIQFCLz1x7z0wQvMiGsqQRqjRkW1oODkOlav4Wm6yequoTNJUL9spm93O3whW5H2gMneEO4fNfgq5wR17q3nJCKV4bfb2v1yyHZo47xyR46Gzhc1pXlNPPXG2quD6uqqPMqtY7Vw4w4qHrIPd1DG4e1cnkW+FdBEMWJ6+hWTB0UY1M+Khbqr6cQyOp3kl9Yx6aWlhA+9YmYbOrGcOdny9kP7w4kJ0/GWJlb4+CU2scZI+JRke7tf3qZtjTcpKFVKz2rtCID/gjRu6w5U57B9lQeRJSLeXttw9rSbY3gsmaS05IbvyQWTc2CstTTU4F/FbOz2EnkzNRui9SToNekY655MZcE/DlFhBW3YUB7/2xu8lNp4mKz/f00k3g/ARNbKe8iY2MTfS1n2dryg7mMadpASQ1hzA11JJn6GenOoPcSeV7e1TdriA5ScU5e7JzK62YmGY9DEOvxbbfuCG4m5x91NLZn436UrM2pgJnur48wlHnTkcOhtV3GmqRtbQ69VT0uqZ8vUdyAgij5XDBhupC5n+iO2Xppqj8Ti1ez/Stmvf/8URrvtXt9AZ5tJAC0+ES08ftJ8Js1LY3h8FNHxI5nymwx7G6X77R06A51peemh4eGklFMtuhFXU6fe+MP7Tmw8YB3HMY1Qmb3ZfbvfxhIqANDTfQQwdDETRhvRYCb3X+47ejQytKG3JFYP28kM4YQ6vZBM9MrFjHIcYmBxeRRz6G0aMbDlk3bbq3mbrNkQbUGC3hXsW/UEj/x2FycsgDacMYvWsmHRWHraNoiYyd1DldJM4x6bLnZVYBsq1MVxmqdbjfZqkTqLcwDRjJ/D6PVL1bFOZnI3vOA8b2dr0rKb7AOFajDSEjl+GemvLifhkRSCxo4haGwK0XOXMnrVetK3LmPEAIekW3OUawKEj1rMuNkT0UUAxOA/dT7j7MdVSkN7naZd86Ajh0Nvu7ImSxj5lKl1Vf4DJpE8NfmKpe3Kz2yznBgYvnAdyY/Y8o3SmzElnYQX15H27jriXRPfv5Qp0xOV6r5K51KGaZNt7JWehElLG8+04aCsxPboYyRp4RwMCS2Yy/SueKIdO0T4RdG3uSDrMBOLc6cLTzg8nFSaONuitJs5elL9gESMYcpLDeepGZpG/Etv8nN1TGNd0TbebHKIh+091mMYMJNx88cQqVFnummyx3DTuujVh82EkYTPXc7kN9fQz2F9UbHtoSiOUQuUbTXj5zD6NXUweuUhjpYrmzTq/LVrH/nqQ2ToiMVMeibd4b01ohuVQvSC5Uxa/z6T5rnmrGFu1LpzhdKe146kTc8Dpz9cxkNFJ9W5N/X0T13CKk0JDy07hOGxMcRooakem84KMVVDZIDzWL3InrYAqCd+6nLiUy1KN3/HHl+WUrLefLbR0IDWpAWoy1jC5u4ZTBqq9G4Likxk9NRERrtuaM2nxLEgWbyWj/ckEzk+Cp3GQHzKfOJT5rukMXN0+2q2v+zS48+DjhwNnVhKnY/rZAtffj6J+PFR6LRGhj+yjOGPOK4vZOfEGTiF1R2r2XmX+msSAVEMnzqf4VNd8g1gLXSu/hw6n8mPjSTcNhDfdbq27Ez2HxmpzK3ZI5l75iayOaOJktXb28gdMZOEIAjqn8L0F1OcVlfmriWzqWEPZ8zUgENQNVN50v2m4FiVejVVZg0z/TRdxdyUUvL/sYuC/5pItBYM8Y3PE6Dy2BbeeXF1Mx2AtnDWpAz1iRyhTLvV9Ji/Jhwo5OyMRII0SjCau22xw8pCp+7/lVsOUDB4ItFaLZFjFzN3rMO21flsX7GX8IVKO0fj8X7b2P/uGGIeScSg0RM9Io3oEWm4U1Dv8oJDzUbrqmDFlUhJz1OHXufJ+5ayPsdExTdvsXLZIUiaz+gh6i8TOM2+0hRl7j3A4Xf1HOZktDoELD8laNVVmzj62QYyZ09n/wbXL1lr0tqUUvK7qfx1zTZyC0zUuAyZqqs2UZC7m82r/oTrHmpWzlDSFZntVVkA1lozRbnb2DDvQba/7KZ04dBg31Q70ZU7sdjysIQNm7IoqnS4tqBcj2ozjSfhKKVkyVReXrObvDPO+cZqoaa8kNxdG8icN6PhZjh0PpP/S515psmB+KUUbctRS5Faou9KJ7Kpqsvijex5ejV7jjW+3koPv2Zm3NzwBh/lmZSqZauZo1tWNzscwH4dK0tb/sseDlWjFeXN/6aIWwdWsHnBanbmFmJyPE+LMv/nzjWzyXzSzQToLkrONFwPU24m/2jJGFaA4tV8vCmHEocPg9Vipqwgh53rVjs/FGWvYPPKLeSVm+3NclaLmaKDG8l8cjZHD0TRVb0mddVuHmo2LmT9vNXsySt1PmccvksrZ7P5ZZd0DjUbpgIZqtCeOvWPS/7B9cWwsBDOnbtAfb3r44hoe/OZtG0i0YDpwAus/11LqqBak1YIIbyPlPQ6Wmr41be5tCatEEJ4IQl6HcxxRpGWtrm0Jq0QQngjCXodzD5TxFW0ubQmrRBCeCMJeh3KYaaI4kMt/MHQ1qQVQgjvJB1ZhBBCeA0p6QkhhPAaEvSEEEJ4DQl6QgghvIYEPSGEEF7Dx3qpcWeVygsXsNRd5PLly26S3JwCAvyprfWucxZCCG8jJT0hhBBeQ4KeEEIIryFBTwghhNeQoCeEECLsCngAACAASURBVMJrSNATQgjhNSToCSGE8Bo+HZ0BIbxbOIYnFzLmzoFEdNUqX8ii91nx6HKPUneZn0ifu6MwdPVVnmALv2TvwwXtmF8hbmwS9MR1IpjoD0YTqQdL3iccmF3W0Rm6BsIJX/5Xfpaot79SV2uBWotHqf0zJnDb4AD1PyuW2stQY22HfApx85CgJ64PQwwEqPf+ylPeEPCAh58mRQ14Fw6/ycYX13DB099F/MVtxKsBz5z3OXnPn8Zyup3yKcRNRIKeuD4MCyYIgGrMxzo4L9eIYWBvAgBq8/joyTVcaEHaLoNC6QJQW8Cx2afxrGwohJCOLOK60KVPN/UJrIrqtzo4M9dIWLBatC0voLCFaf1D1GrNsgrMbZorIW5uEvTEdSEoQr2Jm857zU3cR3P1aTu3Iq0Q3kyqN73dlERue6Iv/kD5h+9weJn7zUJef4gBUQBlHL7zE8obbaGhy8If0efOKLrpfe039MuWempMFdQQQLeu5zl6bxbnG6UNJcCgLFlKznpYVeeL8a0UYo3AiSz2/qKo8SZDYolfMQgDcPbf73DUXYfI/gF0ezSR3gND0es1ylOgtR7z6UKKNn1D+TvSMUSIm4kEPW/3VgVmNejpw4KBCjcbBeLXVV00V1LjunpcJH3nJxNh64RorcdSC2h90Wp90RuN6AFKT1DpLg/3hhHkpyx63okljMBQNU2xyf0m9nbCKqq+bry68y/iiZ/en25a5f9LtfVcojM+fr7oo/oyYG4UZ2N3cPTFix7mSQhxvZOg5/XOU3MB6ApdggNxH/SC6GILaGUVzkHvjmgGLLqNEC1gLuXo+izO/rPh56o63xfLgIWDMGjgYokJtz/cNKhbQyeWIx5m+6Fg9BqAeirzq91uYm8nrK3A/KHLyp8lkjCjL3rAcjqPb/54hJqv1HXjetJ3/jAi9L6E3R3P6Re/9JoqVyFudhL0vF4VVWet0FUDhm74Q+OS3JRQgtTqStPxUocVXTDOtQW8Ar6a/2WjoHXZqrVXdVaechdQwb9XN2XBep6qdzzM9i2BSumRSmpz3W/i2E7oVMIcEkk/NeBdKvySLx8u4JLj+p2nOTGqgoi7g8EvgC6gBL2QWex5IJ5AD7NYdfh/GX3gYBNrk9CpJcwLZ/M93KONLz5qWvMZ99dUCOGeBD1BzdkaiA0EfZDboKcdHIY/ABWUfeDwo8NPJNLHCHCRU+80DniAQynOfRUj+BIU3kVZLKtwX/3phj1Qms9T6TauBOOvVslePOvcihg0YxBhWsBaxrH/cQl4tv0HNwz6bvufFQ6n66zZJPYAMJP/xaYWpdY+MZieRoBqyg9UXXUu/GKG8cDtPdBW5fPh+3mU/+CyQVAMY++Jx6it4vBHu8l2bcjtZCDp/lEMCKzn3Nef8kFeSwZdCNExJOgJLPkVWO4IRIs/fg8BTqWtAEIGKGWbS8eOc9YhwBgGG5UPkKmA0+vc79u/l1ouslZS41rFCDi2zTVZ/dmIc6BsVDIFl8HuDqWhntH0jFfSXsw7TLlrwBwcSLdHkuk3SNnm0rEC7C2G5a8w+jWPMuiW4bl/8rOEYNBq0WkAq5kjH/wP/+dB6bbLC2NJSApQ2kk1gLWa4n/vpeiqh3eEkJDQA20nICiG2/p/x4eH6522MMbdilEHEMiAQb3J3n3SeRfRtzIgCMCX7vH9iMzLwk13IiGuKxL0BORWYgYMdKFLuMu6+6LpYQC4SOknjre0ngTfotRb1pxsanB0IIbeDePJ3Jbi7G1zTVd/NtbN3rHGXN64LygA48JROoRWU/O9w+tpPQlRF7X9hzPUMRDbAorKUnqEb37bdtOc+HQJROentf9fZ67gQq1nrYWd/X3R+vmq/1mxmGuoq5WepUK0lAQ9AQdNVJvBoNfg3zMAaOgYEvQf0WrPy+8o+l+HNPd2w18NEDUlTQSeKX3VgNlMKa5/N7VtrqnqTzfsvT2tmE+4q97zJSxBLT66tBPaS55AZ60vWsdkViuW2hrMx05z+tPvOP9P55JPa51d+AArAJ9h0+k/fSrjb+3N0ClP42N64IqlvZq529kLdL4jGMMvbmdA/1D6/Gw0nSq2X2Vpr5zc3DNEqtWbXx5pfK6lh76jtKdavfn1yca7KPiOw/E9lOrNvKNSyhM3BAl6AqhQenDqoUs3f+xB7754+sR3Aaop2HjMue2rq6/64anG/D1u+BKSEq22BYK5xH0pLsjeiaWp6k837O2E56n63M36GYPo3VNdvlDlVP3ZpZta8jQf58v7ctxXjTaljTqyXPp8Pd9+bqLrmwsZatDTf9hU/u+dNz3a5+VPKyj/9FNOvDeePoYAjHcEU/TW1XVmqc3/nLeb60NTmc+ud5rZ4AcT2Vs3k31VRxeiY8iMLAIA81llLJq2W5D6ShfCpscSBNR89UWLSxM+i4YTG2WrK7xIrZuCAkCXbmqVnUtwao69tOauE0vPYKIfiqaL7X9ztVPV6+VL10uV4PtcUJ8tAoKjWpi2iotqragyzEQI4Skp6QkAakqqYHAX6BqIP2BZkkzfnhq4cJzDf2yuJBGA/haXl342iB/dG+rw4bJiddvo1w2dfdB7tceTJmv1Xdyv6BlA2B/uILLhl3qoqXCuem3oqRpM0B1Q86mHB4VWd2QRQnQ8KekJxTF1zkt9EN2euE0JWpYyDr+YQ427vhxvlVGpFppC7khE3x/o6Yv/kju4fXYsek095XmlaiCrodZtm1U19bZ+HKFGDOPU5f5d0D5kxPDH24j/94+JXeScymJWZ0jRGwmboZQUO/8smr5/nkC/KF8wnaZU3e+lGue2Ksve02qHmm7ELrkD42OBdLZVhfb0xechI2EZd5Dw4R32Di9CiJuHlPSE4p1z1MwFPaH0nRIKVFOw7hPKmywJneZ0djXG2wOga18Gv9rXYV095z/9lMMX4hkVD9Q2VYqrx3S8CoyB4NeT+N8+BL9tvJXr8LCaT0upGdwXfwKI/EUKkb9oWHfZdJzcRWWEr1EimeWCy2wtH+RxbGxPBt8eSGe9kdiHjcQ+7CZr1lLpmCHETUhKekJloso2IM1aRcG6jyj6Z/Mpap76iK8+KcNsi2hWKzVlRRzNeJ9vFlfQJVTtxmKpb7Lq0rL4E3K/qqDGcQOrFYv5POVfH+GbV9/n6Isuid7KIfefxzGZGwaOXzafp/jDXez/cQ7mI7YJr913sql5agf7M3I4VVqFxbGJz1pPTVkpBR9+yoHZn9LEjJ5CiBtYp9hbB7vOw0BAgD+1tRe5fLnt56K4XnnjOYuONfDvexgfCRS9z4pH3f0ERNPsv3pR+CV7Hy5ol/wJcTOSkp4QHeRshdrw2D2csBamralQq23V+VKFEJ6RoCdEBzmbe1IZEalP4j+Wz0AX4XnamuwyLgLo+9IvI7ShM44QollSvanyxnMWHW0YA//634yPVueFsVqoswBF7/PnxzOukLYLIf87ngF91HGOVisWy2U4+RUHHpMuOEI0RUp6QnSYz/n2l4/z+s48Si5YuKTRovPTOs3P2bSLlP/ifb74sADThXouazRo/XzR+muunFQILyYlPZU3nrMQQngbKekJIYTwGhL0hBBCeA0JekIIIbyGBD0hhBBeQ4KeEEIIr+Gj8fFt9GJQ165YL0N9fdv+cvT1zBvPWQghvI2U9IQQQngNCXpCCCG8hgQ9IYQQXkOCnhBCCK8hQU8IIYTXkKAnhBDCa/h0dAbEdeDXIxgxIQSAS+YLnD/0HSdWl1B/2oO089Yxd3wUANZqE0WHd/PxmrVUFrdjfoUQ4ipJSU+A5SL1tfXUW8FH35WQ5Nu5LSMeP09+mLTeQl2thToraAIMRA9JJf2l5YS34AdRhRDiWunUPy650U8LhYWFcO7cBa8aqO2N5+yO7+IRDL4nBB/g3O5tHH7e0+thJGjBMtLGRqEDSvYs5K0/5LRjToUQouWkpCec1L/wGcfyld8U7N6vVwtSllL50hI+/l75L/zWiW2fOSGEaCUJeqKRi+aLykJXPX4tSlmKqcqspjUQ2sb5EkKI1pKgJ4QQwmtI0BNCCOE1JOgJIYTwGhL0RCOXaq1XnbbuoqUNcyKEEG1Lgp5opN5UoyzoA/H3ZKyeg8pzakeWAANhMlZPCHGdkaAnGvvXac5YAULovbQXvi0JfG/nkG8FiGLEkjkESeATQlxHZHC6yhvPuTmdp/dnwLRb6aoFuEx9rRUKv+GL2aeumFaTtoypU5MJ1Sr/19Va4NR2XnlydbvmWQghrkRKesKty/nnOFdaxSUrQGd8/Xzx9fPs42I9XsiJM2asatOgzk+Lrotvu+VVCCE8JRNOi8Z6didq8VB66eHiiW/I+9tJqvdf9ixtRCqjF6aSEAA1BbvZ+trblBzIb9/8CiGEhyToicYmxWDUA5Rz8rcnqPbk1xZsHhjLwACAQj577gVK5NcWhBDXEaneFI3pfZWnIXMVNS0JeAABWjQA1SbOSsATQlxnJOgJIYTwGhL0hBBCeA0JekIIIbyGBD0hhBBeQ4KeaEzTmrTaNsuGEEK0NQl6opHAqK7KgqWeSy1KaSQ6yqCmtVDXxvkSQojWkqAnnPj+KpFb+imzp1Tnn8bzSdmMBD22mLtjlZKe6fg+Ktslh0IIcfVkcLqA/5fE7ff0AK0vvraqzQsn+G511ZXTPrGGWWOiQKtFZ0tbmcPONdvaK7dCCHHVJOgJ0HbB108p3V2qreLCN0f4fnUJ9Z4MTPfVovNTSnfWWjPFedvZuWYtlTIwXQhxHZJfWVB54zkLIYS3kTY9IYQQXkOCnhBCCK8hQU8IIYTXkKAnhBDCa0jvTdXZs+UdnQUhhBDtTEp6QgghvIYEPSGEEF5Dgp4QQgivIUFPCCGE15CgJ4QQwmtI0BNCCOE1JOgJIYTwGhL0hBBCeA0JekIIIbyGBD0hhBBeQ4KeEEIIryFBz42eP/8TH328lkX3hnd0VoQQQrQhCXquEp9k+azBBAfGMuW/V7P2P2M7OkdCCCHaiAQ9VzmrSFv0Fl9XABoDt89azb9f/DE9OzpfQgghWk0TEtrzd64vBgT4c/FiHZcvX+6IPHW8kwd57/9O0T0pifhgP4JuGcp/jO7KmawD5Fd2dOaEEEJcLQl6Tak8wb53DnJp4B0kRvrhH9yfsffcjn/hB3x+sqMzJ4QQ4mpI0GuWia+2vcWRLreTPDAU/4BQEu4eT+yF/ew4ZO7ozAkhhGghCXoeKDzwAbuLupKU3J8Q/0D6jLyXuwxn+XzfCao6OnNCCCE8Jh1ZPHT6w1WkPf46X1cB6OmfupBVi+I6OltCCCFaQIKep+6cxWsrH2ZQIICZIxuX8+SLhzo6V0IIIVrAp6MzcCPo/58vsPrRoQRrAUsJu1csYMHGko7OlhBCiBaSoNescKa8+BLzx4WjBag4xPplT7Dyk47OlxBCiKshQa8pkWNZ9Ie5TLlVD0DVd+/x4m9Wsa2og/MlhBDiqknQc+fOWby2ZAqDggEsnN75CrMWvcfpjs6XEEKIVpGg5yrxSTa8+GP6awGriS/+upiZfzvW0bkSQgjRBqT3pqucVSx85Ssqqo7x1m/nSMATQoibSKf+cck/uL4YFhbCuXMXqK+v74g8CSGEEO1CSnpCCCG8hgQ9IYQQXkOCnhBCCK8hQU8IIYTXkKAnhBDCa0jQE0II4TUk6AkhhPAaEvSEEEJ4DQl6QgghvIYEPSGEEF5Dgp4qLCwEX1/fjs6GEEKIdiRBTwghhNeQoCeEEMJrSNATQgjhNSToCSGE8BoS9IQQQngNCXpCCCG8hk9HZ0Bcn/zTlnLnxERiuuvRaIDqHDakLqSsozPWHB9ffj05gju71vHJv0v5Y2lHZ+gmMW8dc8dHAWCtNlF0eDcfr1lLZXEH50uIqyAlPdGI/7x1/Hz6SPqFKAHPWmuhzmzB2k7H+/Ws2zi8IpnD/9WDB1qxn1nT4kgf1oO+A6JIfzyKWR6mWz4vWTn+wlCGteL4zvT8c5my36yf6tpsrx2i3kJdrYU6K2gCDEQPSSX9peWER3R0xoRoOSnpCWdJi3lgfBQ6oK54H++8+Cxlx9rzgDoGhGkAqCupZmsr9tSrm0NwCfCll0ep9PQKUZaqSsx83orjO+kZQC8/ACunCuvaaq8d4+XZvPIygJGgBctIGxuFrnsio6Yn8tYfcjo6d0K0iJT0hLNRMYQDUErWn9s74AE+enp1UxbLTptbtatXdp6i/BJwuZ7juwp52pNE9uAEZ0tqW3V8JzF6lFhaxalDbbfbjlVK5UtL+Ph75b/wWyd2bHaEuApS0hNODGEGZaG6lKLsa3DAQQGEAlDDqe9bt6tTecWM+nULG5rswamGspOtO76j9Ei9slBVw1fn226/Ha8UU5UZ0ENXA6FwfbfzCuFCSnrCiUZzbY/3QG89OoBL1RzOv7bHBofg1KbH78zgcLWq1VRNZlvtVgjRalLSE22oM2l3G0kbGkwvgx86H4DL1NVepOy7Eja8W0FmlXOKYb3UoFNm5hM6kzYhktnDQwgJ1ChpTRc4sON7ZmY5d6MZEKln9pgIht0aSKCfGqkv1XJ853fM2lHHKQ/zaw9OZWY+aeHZ9jL68+v/iGbYLf4E6mzPj5epq60Hde7yqjM1zolujSBrVi8CMfPJnw4x83RnHhoRRvqYcPoa1ESX6jiVc4KMtyrZesl9vh8aEUb6naH0CvFDObRyrb76tJA/flzHYZcU6Wk/4tdD/KDoOPesrOCUn47lD/flrlg9ger7VHW6mI3/W8wfy1t4IYS4gUjQE22iV+9gXnm0D30DXSsPOqPz86dXQl9mW2vIfN2x3cyPnmonkvKTtaTNS+CeSF/ntIbu3PnTfqwtOcTMooZ0v/7POIYFuhzKx4++E2J55vC3Dts2R08vpW61hZ1YOjNryq3MGhaklFJtgY7O6Pw06PxsHWrcdGLR+6AFoJ6yMzpWzYtzOWfAR0evIf35Ld+wdYNLO6OfP2vnDuBOtfMPdfXUXQZ0vugM3Rn2H93558BjPLn6nFMQ7xuqNlxeskJ8BHvTexHi9FZ1JrBnL9Ln+lD5TCGveHwthLixSNATrdYrPoJ3Z/QiEOByLcf3niBzt5l3qgA/DWnx3bjnjgi6FrncwH386RUIUAcx/bgnRANVZWz910kyDl+mV1IvVj0cQSB6Bt+hg381BBBLpZnD35xix24zr5guMyC5N//8aQ90+NPzVsCToBejp5f6DTjrmrdmpKfFMXeIP2Cl/OAx/mdTJe/Ykvt0Zu70eGb9yA+3nVi665RAWWWh5+MDGRapgeoKPtpcyJqD9VQF+rN8wUASAyGwX3fSqW2oHvXxI3PhQIZ1A2rP8dHrx/nj4ctKqdbHl1//oj/p8X7o+kQxO+Ecn+TaEnYmSIm0VNUEkTnDSAiXKT98nL//6xyZtZ2Z+9M4ZiX5Q0B3hsYX8kpe0+dfd9Hi8bUS4nojQU846aJT745lJZ51UAjpzisPqwGvuowNGSd4zrF6rNbKhoMVbDhY0TitvROLjpAQqDt9gj9mlLFBrdI7lV1B3qQIhgVCoMEPsAW9Wmb+yTmaHM6q5NRPe9DX4zOFXrcEKPnGzGkP2/N6JUXZA96pHV+Tvr3euSr10mV0OnuEadSJJb1HF2UhsAfDAhufM1U17DhWR2KSDnx8CLKn7Mzzs+OUgFd3jndWHuNpx+t8qZ4/vlPKPfF96IWOwBDHo+oIVGuRA+ONBGLl+PavmbXDlvfLZGSZmJbkTyA6Qp3SNlZ5zgwYIMBAWASUySB1cQORjizCTpOylOGxWsBCwZHdHqX5deot9NUBmPnkVZeAdwX2TiwA1aVkOt78XVSdv8JYt/gAwgCop+qcZ8d/qKcaCWrNHDrtSQpfnplgVPJcUshzrgFP3aavQa16LDc36sQSaityAVQVk+HmnPt2V69KdR3H1dd6JfXigT4awMrxncedA55Nbz/1IQJw2mcXQh2qgquyDzkEPFu2bbeCWspK3Ozb0ds55FsBohixZA5BMkhd3ECkpOftnljDrDFRoNGi0wJWCyUH32BrhgeDjn26c+et6sDyvEKe86gdrYG9EwtWDm8rJMM14NmrP+FCefPVj8Nu8beX2k597cnRfYkLV9vSyqt5x5MkkcHEhaj5/bysiY4vAQ3tlKeqXdZ1plegrXtsHTmbT5HpJsg/vTqr0RjDWaPUYFtdxtZdl51X+nTmoWQjs+5Xt6kr45NPHdZ383F6uHjjX7WNgnXD9avh9HduT6xB8Wq2bzAydWoyobekkL4uhbpaC5zazitPrr5CYiE6lgQ9b+erRefXUPqwXjRTecHs2ZRjdxjU6sR6Dn9l9rDHpE1DJxZMp3njMzebtGAM39CQAGXhfDVfNVFadNYQnKpKPMv7A0MM6pi+Sg7tb2KjpCB1Jph6Tp2sd1npT6g6EJ/Tp8jweBxkNxJ7q4t+ocxaFtwwxVpnDTqdQ4VNbSWfbDjBHx2vwS0NJcBTn59q/HCBw/Ur96xDj/V4ISfOxGGIUKaq0/lpoYvvlRMK0cEk6Hm7lTPIWAkkTCQ6NY0JQ4z0GzsTXX0hm69Q2kvv6a8ueVq6ctBNby/Fnco967ak5fkYPodS21kzGzw5frxerQ71fJqwuB5qD8iqao43EVifGRaqlqrcXBOH2V9OfXfO896it/qreUUJcn6OgymVnqMWUwVf7S8jM6uWz13y1lCNfI4DH7qUEgGn62eqvfJUcBGpjF6YSkIA1BTsZutrb1NyoAMGWQpxFSToCUXuNgpyv+LjP69nwi1aogdNBDyfV7HOo9KVgzi9WiIy8322uxuxQ5C54hi6hlLbKQ+nMmuozqv1eCaWIJ0abEy17gecR/ZgfIy6TVU1h1yvSW9/taTY9Dm7Fe6n5rWOz9flkt5Mz0p37NXIJeebGPfXwuv3wFgGBgAU8tlzL1AiHVnEDUQ6sggHtimmsE8x5SldCx+f0qLU6rQmO5E4TERdXtt8qcheaqvj1PeeBZMBXW3j1mo57lEnlivRsOqnvbF3fDxfx0cuW9jPuaXHrLed02VwrTG9ooZq5CavY0uvX4AWDUC1ibMS8MQNRoKeuGpltbaWvyAG3NWyj9LgcLVqtKlOJC2ZiNpoKwl5HhT6BqtdO2rrWj53pMGPdKcXNPw6fQD3hDu8dMnaqJ0wrod6zi2d/eVkDUpnTT9iBrRwnjiHzkBNXcdePf0aOrG0sBQpxI1Ggp64als/PqPe2DX0vf9HbJ3gz51qAQo/DWlDgsmc+yO2jnVN6UeIGtCa7ERyVRNR+9DVoHykBxh0zJ3Um71PGV0ClKKsUo2Ogd0YFqN+DXw6c09Pf56ZFMHWRQns/amfU5rPC9WgERjOQ+OVny4aEBlE5sJBpP/IH86Xcljt7l9V4dpO6EdPdS7vK5ZcXZ02cUgdohBy10C2TtLzkMMQhGFhOuZOiGDrosGNr7UH19E+dON8NTfND0II0QRp0xNX73wFz73fjVX3B6NDR9/xA1k7vvFmx791ecGhE8vZEvedSFo0EfV3VZTf350QfBkwZQiHpzisq3LfL/Odo+dJ/1EoOvTc+ashjeaqBKgqdP5/68fFzEq+lb46DX0nDOajCQ4rq8vY8JcybpljBOBClct5eVDialo9z20+xT/TexHSWUffu+J4/i54vtF2lznuMlnKla/jVXQCEuIGJiU90Sqf7DrOz/5yjM9P1lBX59AedKmeqtOlfLThKxbucknk0ImlqZlQnCeivoKiUtZsL6OqrqHtq662hlO5J3jlb6VuO52c+uwEf3RK45Du8Cm2bsjlybdcxgaeP8+sjO/IOesQ0OpqOP75ERY+e4LnynX2QeB1lS5tY/YSVx2nrqIN8VReMaOeyWVr7vnGea4yc/zgcV5Zmc0De53T2TsDna9pohTX8k5AQtzIOvWPS/7B9cWwsBDOnbtAfX2LW81vWN54zu6EvriJtAQ9VOewIXWh/FaaaGzBeuaONcpnRNyQpKQnnJSdMSkL6ryKQjgzEh2lNk5aLHg2wlGI64cEPeHs//JR+mJEMep3iwmK7eD8iOuIkaDHFnN3rDKDj+n4Pio7OEdCtJR0ZBHOsjPZm53IlCQDusgxpK8ao8yrWJnDW48swdTR+RPXnm1+Vq0W2/h8KnPYuWZbh2ZLiKshJT3hopSSJXPJ3JRFQbkZq1WZV1GnVwckC++jzs+q04C11kzRwY1kzlsoM7GIG5J0ZFF54zkLIYS3kZKeEEIIryFBTwghhNeQoCeEEMJrSNATQgjhNWTIgurs2fKOzoIQQoh2JiU9IYQQXkOCnhBCCK8hQU8IIYTXkKAnhBDCa0jQE0II4TUk6AkhhPAaEvSEEOKKYghdkMGkNRkkpMR0dGZEK0jQu4Z6LlxL9sHdZB98g2VDOzo3QghP6X6zlLSxcURHxzF69lKSklq7x3TGvfsRc7d9RPqylLbIovCQDE6/ZgbzqxHKL7JavtnFXw54kiaR+FeXMy7S9n8hOyfOIK+dctgmIsYQOWMSwwfGEBagRWP7PSKLBdO5fI7u2c6Xr23D2qGZdDF0JsOnjSSmt56SjQ+yc31HZ8gTyUQ/l07yrVEEFG0kc0Fm+x7usTU88WCM25+XslrMmIoPkbUpk/wd+e2bjw4S1F3v8J+egF5Adit2ODaGcD9l8ezJLa3YkWgpKeldKylTSI4EMJG16e+c9iRNWjojIh1fMGC4bh8KjQQ9sYb0VxczeUQc4UEOAQ9Aq8XQI47hU9NIaPVTctvSjR1JcqwRg9ZE0Q0R8ICkiSQPiSE8SIupqJ0DHmDobWzy9xQ1Wj2h0cncPy+DSfOS2z0vHaFs014KapVlU+4WslobpwYaMQBQSsnBVu5LtIiU9K6RGSmDCQYo+or1Hn1hkkkaH4c/UJKdgy4pEQNadF3bNZtXyUj4sgymJBnU/y2YjuWQnX2AoiIzoMcwcCgxVoacrQAAHENJREFUg+OI9yuloDVPyO0gsqdRWThXSknHZsVzQ4yEAWDi7Lftf7jwULWkcy6LzLQlVNpWxCYTft807h4TR6hWS/T4pxieN5X9O9o/T9fUgRVsnryizXYXHq5+V6pLKbnOvg83Owl6LTKUeX9byH2anTyb/gr7PE0W+SRjf6QF4Mhnf+cLT9I8lk5yD6D2EPv/XMLt65SgF9TDCJReVe7bi/+8ZUxSA15deQ7bX15IgUv1beWuLRQAOyOM1z6DzUqlVw9lqabwq4ab+XUu/Ba15FVdSMGu9j5aKqHqPdp6rtD5Gh3LoiQjiw2WNTyREoMGAzEjxrB/x+72ztQNLJFwo/oQYSq5Th60hvLbjUsYVfwWc558nSMdnZ12JEHPU3EPs+qlhxkZpgWmMG/JJ+xbdsijpLfPGkp/DVBziF3LPfmIT2T46Bh0QMnBNygqjqJvNUQGQNeQkcDGRin6rfmICdFA0TYyHlsBsSkkzJlG8i0G/DWA1UzZkd1sXbGaymLntIZlm5iepIfqHDakLqQsYgwxs6cxfFAUBi1gtWAqzmLP8mcpOuZy4PHLeGh8FDqAyhw2/2YhJS77d1LsPmBrUuYz6oFR9O+hR6c8H2C1mCk+vJe961ZQ5nrcB5eT/lgiQZSyZ8Z0cotjCF3wFPcMiyE0QE1fXcq321azZ12WQ8J0xr2bRrxf4zz4J8xk7raZjV6vzF5N5hI3xfPYicT8PJXkAUZCA+yZxlR8iOyta8nb4tq+lcrojTNJCAAoZe+S6WS7ecoPXbaJtCTlpliZm8k/Fm0gYuX7TO6vbbxxQCJTtn3U+PXKHNZPXYip8ZqWS4onTL2mZ0830Ri95hjFKTFEAj5dDE6r4l/9iHGRYP1+Iy8/vhYSUkmY8ROSexvwt122ykL2vvECuY2umaKlnw/bManO4a3Uhe4Di/0zBJW5a8lcpH6vElKJ/9lEEmKMGAK0ysOF1ULJt1vYumgtNc1eLAej00mePIEEh/MEqKs1g/p/ZVlTbaAxBM1O5+4RcUR219ubCuoqCzny2Wb2Zmxp3C5uPx8TWS9NZf8uZR/jRicSEWQ7DzMl325n+6q1TveBH69YyI+j9RD9KK+92ZtnFyxjW5GnJ3pjkTY9D/S8dwnv/O1RNeCZObJxGU96GPDgPqYPCQegIucD1nmSZHYKt3VHKeW9lgVYsKqf8KCuUW4SGOli+xKZCiF1OdNXzmF0rBrwADR6QuNTSHtmvhKgHOhs25hKKBs6n0lrFnP/EDXgAWi0GCJHMvn55YQ6pUwkPjXZ3jaxd8UVAp47EWPot2oTT8yeSEJkww1NOayeyISJpL2whhjXdsBoA0EAWLhIKqM2rCFtbEPAA9AEGElIXcq4NId0Dh0IPOWuo4EmbRlpL83n/iFRhAZosdZaqKu1qNcqkXGz3bVvbWT/p4XqzcpI/IMTGx8sdTkPqAGvrmgbby7agJUx9OrhJuA1w1qe3zYBDxyqUi2YinLcbxPh+qmySbS/p9VVFfjPyGD6spnKZ9PxvQ6KYvRji4l3fZ+v8vNRUmZWFgKMhEU0kbUo22cILpQ31NvEPz6TcQnK+2pvx9RoCU9I5e7ZntRUxBD53Hpm/SaN4ep52j8fgM5Pb//Oue3EEpvG8PUZpKckEx2iR2NV0lqtoAuKImHCHH65Zj7+run0WvW7babycApJ65R9RAY5noee8IRUHnoy1Snpe/Pn8OLOEiyAtu9Ylv3tZebd6cGp3oCkpHcFI598maXT4gjWAJYSdq9YwIKNLaiQ+M/7SA4GKCHrjQ88SJDK6LFKLznT19spKgbYgunCHAgC/ALRAXXOuaS72tZ3icFMnp6IQWOhLHc7W9etprJ6DP+/vbOPjqo8E/jPDZ0UGMZl+MoMDY4SPpq4JEabFEo0TSg12g2iEbaheIhYgSqwRjhC0QJtadgDwproggiGY5bsAbJIKBpKSZoVCptUY+KaVHTQmJRM+BpLTMhmNOv+ce/M3JnMJHcmYMU8v3NyzmTufe995877vs/7fE78uidJjTYQaUsmMR1OaUxiZrOyyHZ/NoLU3CRsBrjSWMHh7YU46oxEb9zE/fFGMCWQ9Ci8tkNtOPNBEtVAmyv1ZdToikjVkkTcuieZEW0AXFyoL+cP+w/hqLJDfAYxP17AjHgzkUNjmLFwEfaaFz0tIwe7V1IX0b9ZRNxw4BM7xw68SH1JK5HznyQ7OwETBm6ekgXF6i6+fA1Fms9uWreXnGQzdNt57UdL0BV7mLWJh+YrGkJXywlK81/EUadqsKmLuPvxLCYNNWBLmUf01mq0G+aurSW89Z1ckoaD+bZMJlnLOO3eKCTncr/7us1lvPLoFlWrqOBUdgWn3BdJ38D8Fcpmw/7qD7zfxzXCG8Ti5EIwU2q6WzDC+Q+1logYTKolr2NQMnOzYjG5v+uiYhx1RkxPreWh1CgiIsYx6S6o92i/4Y8P53knYASMDE8GXu3ZZW9EZjsX3vdaID7/rJ3mumpqKstoPFILqWuZ89R0LMDomwJbWrxEYXHPFzRz0K2JWhOwrVzLrMlGAgaxWLNI/XUO8SbA1cqpomepLlE3GtY0YlYt5d4JRiJt6UzL3sKxYk3bkUZF6HW4GLVuEfFWA3Q0cepwiRIxHZ/DjGeyiRsKpphkRlHCBU9jB/tWzeOdR/IoeDiZESNimb+xhJtfXs2ynf5mlusb0fSCMoGF+SVsfkgReK7zVbzwyLzQBB63seHeWMWS8X6VrjSFyKdmKeYvl51TO8o877d1KLtEjEbMPVqNYOg3lVfm+CSiDS6aj66neJU62VoqqCtrUH0xZixTtG3TPItSxC1JxJsUU89LS/LUhdxOc/5xz8I9+hbvDnFUWqzaFyfvHtXOPn2M2rDas6A1H11P8YotyoIGUFeGfVUe1apAiLwpAW1KsMnd6aExxI2BruYKClcsob6kFmilq6iKjzqUU4YE1I4VLGPUp3mxFV3WnMRcZmkF08L1XoEHUPkif6hR/x9s9GgSXso4VWlXNi0RMcTPT1DetmaRmptBtAH4pJbSdVuCm9G+5Mi/UWa31GrlfEBNPoG4lFhlwe22Yz+sPTYOs6p9W+ISMNFOfYn6Xavjq62oAfdlBw1O8N63H+ODd1tVTdeI2Raoz1FEW9XvvrOJRo3Cdfqx2RxYlacIPIDKes53BHk4/sxfzY/ilefVXP6sdw66aallkMH7PH2DWBKY9Ixb4DVx7DfzvQIPoKUC++5a1VRrwDTG99aj3GN5aAzx0Qa6Wk5QtGwh1e4UobpC6u2qBvx3Br4ZoPvv7VzNgvUHee9TwGBm+uICfrvxPsbq/PjXAyL0AhF9H5tfLeCxaWYMwKXafay4ZzW79Fo03XjSFFy8U5Hfd5qCNYeUZMV84nznEHbNAtNxRRV6Q80BhN5Qr4kSxQ90YGu17ymvOrgc8KZmH5ORYlLz28m2NOHsMenTiBnnnrxN2EON1ktczfc1fqse/QWglvozqgCJMPiYZUebNXlTHbWUrsvr4at003a5KUgnsrCo9tquT5r8tOdARBE9Px2bAehu4vj2wIJptNn7DX0e6DI7Cqk+p7y0xD+ImSTi1qmLXVst+1b0biYe5Y7863Ry4ZpH/nmfUeCgiyjMP3+SFFXjd5ws9GquAOkj0FicaS7P49guv+/6DjPuoOSOi+oi38/xQXkTTtUlcOOYLP+GwCxsqtnzyodVvW94rBM8grujrTdbQAZTM5SIa86d4MjmQME8aYwarr684Pc85+dwp02ZjM2VBdQH2iRP9j6r7v/zPXTjML858cx6nH7jyHSjes7/tgdZD+Ds7/LJfiifimYXYGDsjGXs3rmY6UHOv94Q86Y/dy5m95o5TBkBiv/uOVZuLNeXV+eHN03hOC/s7Pt886N3KwEW3Xaqt5X5HHNedJtr1Fw9rStgtsUzEeio5bC/0OoV7068t4W8JwmM1kzeC72e2xPz7AQUT2crdfuC99ftB/G/t1dQu6gvfbankNAEXzgdQa6vWczOny0LfI7P+dl8Rw0mufJeucYMpxKfQcyPs5kRp5zT9WE1pwNeqJqaow3cPj+WIcOTmLE7BssYA7Q1UNqnXzQKqyd9QKd22h80z9En6MKawJCUNKZlpBOn+hu7Gss4/Bs/4WQ1eoXeuRMc2RxAeB1aSaGfa6t/4wOgCsfFLGLGBPGDP5rAzRGgy0rhMd22c/79ID5NgJnTiVHnhL0qWMCLd944z2mvFUVciiowOxv401a/+1gTMM+ax913q+e47NTv972uyfOgg8wJ4PSSHwQZk340H2TF7HoW5ufx02lmRiTMYfPrN/HSijA2/18xROhpSXiY3evnMGWY8u9Hh9aSvfHt8K4VapqCdRFTb1ONhW8f8t0tA1xspwuIDJSrp3HIO/60J7AAyrQE3iFq3g+4kCs34EaPYHR52rn1meCaVDDSmDRebd38dsAIRjfmkYG0ptswuz9wywmOFwWICI0ze0yvQfPYNIuZ1qcTlAfjcNcKGDJhHosPzPMeMxh8tO2uc9WUbniRoBQXcjJVqbZjGWNWzFlblvdI9ehJhkdTaGv9Emrz3OH11ZkSl7K8bGmAk1xcqDvEwQCRjZHRZlUDc1F/dL3ODVV/xwdALRc+ccEYA9w4QonQ9ByLYlK8Wl2mpZaaPqwU3s/gJNj+CcA0LUYdc000lgYZT/NvUoW5C8cZrSaYTYx7cBliuPfAa95DEQYfawyuVqqL1vtYgnTNiZD5gF3Lsri0cQ+/mGHBMDqZx/LzcM1YzfVSwyEQIvS01L7MgrUGj6Z3c2Yevx2yncWrDoas6YWapjBq2d3EGIDuVk7XdGFKT/M9wYAa9dczV8+T6Nptp64oyE50vFsw+gmBiVGe94PueGd7BZwn2ixYeQ5deHe7wUO2AaI0SdGaxHFNBGbzu4UBzZKm8VGqjyl48IX3nFYcOgoGeMyKoAg57UE1ws75YQM1/70fe0kvGgFAcgo2rZ26oxWHnkCgL7l8VW+VWLo6nDjsVVT/R7GvX1ODJ/G/085p3W7ffo4PleazTpgcBSYzo9EIveRFxN8C4KK+MvD4CfgZ+iheMNqdzNjhDOL7jGLSd2M9AtRnXGrmGBEGIv0ijLs7XVxus2OvOk5NaQld/tfXjAvHmTIdpno9WJizcTO5M1Qxfb6Kl1Zc3wIPROj15I3tLPiolc35i0mLVuzZxcXjWJOdrz8ZPdQ0hcRcUm51R5NEMfXR1Uzt5XTfXD1Nouu5pp4aIgBRTIpRTTwdTdg1ky16rNnzfmOQHa85cZwqGJtoPNzzeDiDyL2QXr7Yy8KdmEOcuvt1njnhXbQ0gRyN/xV4sdUToOJZpHQGsZjd/pDecr/0MCGb1NxMYoZC23sNdEyOxTI8idQnEjjgb9byZ7zbp/MlB7F0NnDg/uUhmlO9/qtuR0NIbfs1Ptw0tnKFKIZEGDElotbKjCLmoSQsQHdzuQ6NKBPLSOVV1zl7r8ULIr+hvnAGMffPXErSLerrjlZatHPVY61pp27XbCpD8VCAZlw4aa7qYwzpITqdVf+ynDkTle//Uu0+1j8SQkGOrzASyBKI5oOsmL2UF046cQHDJt7H5tfzWBirs32IaQrR2elEh6A5+fookj2TMqi5y7OzBee7FZoJqcn/8nequ7HmkBinVlv5sJp690Stcnoc4UPG3RYguEYf2mg9X6KwzEny+HXqX/X63PoO5PAGX1xprQ+y69UEFLg+1bUz1pqFAwao6EETkt7VXMbeJ/Ko+1A5FJ2SQ3SwnDIVk9WsCgQXXeEEsUzIJG7jNmblb2LSvX3lnGmCWM59HIb/0KuxXe5RXUAf4YwPDyedXALAiMktbLKeJOUWA3S3cnzXlr6/d2sco1SzoS6/b1CSSMxO8s6Ty05fwdjp8iabh1GN3aOR92LZ0M2di9m9c40q8FycPZbPgq+JwAMRer2g2LNXvNLApW4Ue/bOPWzOsvTRzsKqtBDSFJLXMlUNfHC+uYXnMn4Q5C+P6k/UNqqPAoDMGEb3luhKEnEL1cWhs4HKHdqJG8yp7iYKy7JMtXpJK9WvaHxULVU43P0ZnkBqr4WGY4iYoP2/gy51YlvGZ/RIlge1tJka+t1WU6rx6+gI5NAEqFw6F2zLrIlajQiWWO3L+QtquvfQcdwczk9DWbNI2bzIE6WppCW0crq0WgmvHxzLjGWBIg29RLqrEGBgUB8CsidZpPx6KTPiY7BNSODuxzf1/hM52mCggOOjDzwmO3//VV/0Z3xoaPlAjTo2YrZFKRuOf0rAhIvm8gLq9JiTk73RknTr9JOZLX5FHJKwbV1NijbFwOUnbs+4N5FGrLeGXrTbY+bVm3oThMmP5PH7jWogn8vJie1L+ccw3DtfZUTo9cGJ/MdZ8ItyPnIBBgtpq16keFV68LyV5If53kTQl6bgNbUEitj0pYI2NcUGg8EbEefxybXT5fLdFUfMXEpq0Vo116mduuI8NdldJcviCVLocEX6+m7is4jfto05apJt89ECv+TzCmqq3GH+BqJnbiBnxybiF2RiSk/DlJ6JbflaUvOLyDm8gWnf1rYt5fTHakCMNY05m5dijle0jojkbOI27+UhtbRZV3MZe9doBZeOQA5tgMqZwKdACQ73VtuaxIwlGUT2IUTaTrqrnJiZunIXSQs0bawJDMnMIX7jLrIP7CLOv7E1k8Rf5ZA4XOlX3X5NdN3R/R4N2hQ/i8ReBOoFh7vOShSJK73PTRezk4nxSRyMwnZXL+drKrGEJrRUxnv9xc6QYm76Mz60eL/jEVHZJP4qh/ihvaVA9M43jaqfPX46luWbuH/vNiZpjje3uDdFsaSsUM6NmLmU1N1qMnpbA6cvKqf0CP4qP4Fd3USOmraaWc/kaL7bKCJTMrGt2MSsoteY9YR/z7y1UfWl3gTCwpyNe9i9OJkRBuBSA0Wrsr52iekgPj1dnP3dBh5o/litvWlkctYa8iMcPBCgFNnCn6YoAvHS2xzsK01h5lKm3uLW8gJEbPrhdLZDtNGTq+dA45PDSNzcTcRluehy4Rvx5Wqleu96TpX47lQjJ0Z5ShlFp+TyeFmup5SWp213O6ePFHDk+Z6LRNdzaygd/hyzkpXoNlN0AqlzE0j1P7Hb7hco0or9lXIaf56BzQDmuEzmb+z5m0ltHxziPzcW+Eb86Qjk0Bugcrq8lmkLEzBhJC4zl7jMXM3Rdup2zKZSW8njaAHH7lJ/TWLoOKbOzWXq3Fz/y0J3k5/5M4m4dYtIsboTrfOo9PkuaqmpbOD27FiGEEXSglzqq4KY3vaXUTdN0RZNk3s+N58akv587KQDNAnzLtrOBT4VtKbU8ExmlpHBkrD7oh/jw48LznawGRkSl0EKQfJQe6OqifMLEzBFKMJoedlqzcEmn/D/tkNVNN6Wgc1gIDp9NcvTNed22Dmy5TiWlYqPpGe+XxmnDqQRsyABc4QR27RsbNOyCUTjZ35vhJp6E4D7thSw6k5VLz9TLrU3BaDh31l2z1qKap1c+p99bA1Ue1OTpnD2zX0c7PWCmrqVftVXgtHlsfW7f1dP45Pr1gi7wYrQ6upwcvpkMYVL5nOquGcUnCcqrVtbF1Bp293ZTnNdGcVPzObI88F2+a041s3lpW1l1DU6ueKXMtXV4aSxroLS/Gd7lveq2kLpigKO1TXh1LZzKfUdj21bQuGynsWxtQ57ZxAtTneVlZKVvLKtgtMX2zXPFvV5tNPWI2qhFceauTy/rYL6cz3bXLnYRF15MYVPLNQshknE7XBr271oGUVHeFfd6Ufa0kmZH0SDaymh8ukCKj/o+byVCL9eKm7WFHLseBNXupX+OqoKfctY+eF5jm2tvhYCXWgCrC47Qw/6CXd8+OH8uNXjIutqrKC4t0o3gWgp4A+v1uLQFGfodrVzobGWY7sKfH/QuWYLpVsPUX+x3XPPblc7zW+WULhsCaervKk/XR0BzMUlKyl6ooDK+lbfz4xmLm1dQunzfu00lg1nY3ipCgdzN3GwsZ1LJ19mwdyvr8ADuGFybNIX/m+OHj2STz65zGef+W8phN74zoY9vPhDC1xp4IU7H9dXXLpf5DKrLAMb4KzKo2hdKCaoTFL2LiXRpKl+LwiC8DVHNL2rRhi/ptBfPD65MHwuPlFpIVeKFgRBuC4RoXe1CPnXFPqP1ycXhs9Fb2klQRCErxESyHK12Pk439VRX/Nq4vHJheFz8QR79FFaSRAE4euEaHrXLZpKES0NIf9gqCdI4VwTjVe1X4IgCF9dJJBFEARBGDCIpicIgiAMGEToCYIgCAMGEXqCIAjCgEGEniAIgjBgEKEnCIIgDBgC5umdP3/xy+6HIAiCIFxzRNMTBEEQBgwi9ARBEIQBgwg9QRAEYcAgQk8QBEEYMIjQEwRBEAYMIvQEQRCEAYMuoWc13s+++57kV8bB17o/giAIgnDN0CH0bCxPmY7NOJYf3vMznha5JwiCIFynRIwcNXZd76f8lWNn/sptN9+KdYiJSTG3MubDU7zx+ZfTQUEQBEG4Wujz6X1Rxc+OVtLoAgxjyZx+P9+7tv0SBEEQhKuO/kCWzkP88/EPcAGMmc7KWNs165QgCIIgXAtCit5scexm/8eKXdM65QGeNlyTPgmCIAjCNSHElIVOnnvzLVq+AAaN5fvxibpbjn0oj9+erKDmzQp+/8IcxoZ2Y0EQBEHoN6Hn6XUe4o9/UbS9YeOns1xXo3SempfMWFUzHJH8MBseCfnOgiAIgtAvwkhO72RT41+Ul4O+xRSLnjbDiIzQ/m/AYAr9zoIgCILQH8KryNL0F1oAGITNMkVHg4MUvfGxEgQDuM4fp2xLWHcWBEEQhLAJ+COyffJFIy3t07EaYdhwG/BOn01O/DKHB15PYcrft/POsbc5G9aNBUEQBCF8whN61NDy6U/ACBjNPAjs19Hq7JvHRdgJgiAIfzP6X3D6hm8gmQuCIAjC9UD/hd7nnVy8Ch0RBEEQhGtNmEJvClaj+rK9jd9dte4IgiAIwrUjTKFnY6Qq9D5ta9TdavKd6WTcOSG8WwqCIAhCPwkvkMUyFusNAJ/T6Og7chNg+oY95P9QSepbe+Z1VszdzImwbi4IgiAI4RGGpjeYlRNvVoJXOj/ihENPm1gy/sGbxW4Yfw8/yw39zoIgCILQH0IXeoYMvvctRUG8dKaSQl2NGnivud3nnbET54R8a0EQBEHoDyEKvcEsuf12xbTpauRI3Z91tyx6bDsnLoV2N0EQBEG4moQk9Kwjf0LW+MHA57TUHuK5L0Jp/Tp/+sir7bWdPx5KY0EQBEHoN/qF3uBM/jXt2wwDXI4TbHpff9SmgoWxJneeg4N3XtPlDBQEQRCEq4Y+oXdDMv82MxWbAfj0z2yrOMQfQ7lLdDpPbC/gvonKv59WlbKmKtSuCoIgCEL/0JGyYOPptAe4YxjgOsuhoy+xR7dZcxnFb9zD5CHeQmWXavex/rF94fRVEARBEPqFDqHXyMtvvcUdd32LN48+y687Q7m8gcghBnC5+LSlnvL92/nl3g/C7asgCIIg9IsbJscmhRSOIgiCIAjXK/0vOC0IgiAI1wki9ARBEIQBgwg9QRAEYcAgQk8QBEEYMIjQEwRBEAYMIvQEQRCEAYMIPUEQBGHAIEJPEARBGDD8P4x7Kk3g54KAAAAAAElFTkSuQmCC;" parent="1" vertex="1">
                    <mxGeometry x="597.5" y="260" width="155" height="108.67" as="geometry"/>
                </mxCell>
                <mxCell id="xqwfywdaJNk80DsOVywT-43" value="" style="shape=image;verticalLabelPosition=bottom;labelBackgroundColor=default;verticalAlign=top;aspect=fixed;imageAspect=0;image=data:image/png,iVBORw0KGgoAAAANSUhEUgAAAjoAAACKCAYAAACjHeCcAAAgAElEQVR4nO3de1xUdf748ZfADA4wIgzKfQRRRlEUL0jevl7SvFRspWmtumWtlbpl5tplrfyZuV0s7bJa5ppt1pal5dLmpUxzvZTihSQVVASRa3IJB5yYQfz9MYf7DDIIovR+Ph4+HiNzPud8mBnmvM/78/58TptuEQMuI4QQQgjRCjm1dAeEEEIIIZqLBDpCCCGEaLUk0BFCCCFEqyWBjhBCCCFaLQl0hBBCCNFqSaAjhBBCiFZLAh0hhBBCtFoS6AghhBCi1ZJARwghhBCtlgQ6QgghhGi1JNARQgghRKslgY4QQgghWi0JdIQQQgjRakmgI4QQQohWSwIdIYQQQrRaEugIIYQQotWSQEcIIYQQrZYEOkIIIYRotSTQEUIIIUSrJYGOEEIIIVotCXSEEEII0WpJoCOEEEKIVksCHSGEEEK0WhLoCCFECxoyfxW7tr3OtOB6Ngq+mSUb4tj4ws0EXrOetR5D/ryIf2+O48f9Ozh8cAeHd77OtJbulLhmJNARQogWMmT+KpZM7opW14c/zb/D7nYjZz/AuBAPQsfP563nY65hD298Q55fy2uPDKVbRw/UzmC+aMZsNFPa0h0T10ybbhEDLrd0J24cvszsPZkxnYJwzfiUcYcPt3SHrn+juxH5TDha5b+W4/uI/0tei3bpigJVaO7phn5IEJ4eKlycrT8uN1swFWST8+1JctdebNk+1uI0vRsho/3RqX/h54nHMLV0hxrEDd2bUQSEenNxz39JebWl+3NtBf7pdf79WB+0gPHgu/zxkc/ItLu1P9PeXcXc/h6AmdS4hUx4Yf816+sNK2YBX62wZsHM53azbMFCPjve0p0S15pkdBwSSGRoCAHtXFA7t3Rfbgyq4f6VQQ6AKjSoxv+vO7FhGNaMo8+toeg8q4IcACe1Cnc/PWHTBhE0seW6aItrZBB+flpU6hvpT9oHn0gftB5OuLR0V661mL/y1iPWIMectpkF9QY5ANmse2QJm9LMgJrQWx9jyf9dk57e2EZ1UYb6svnuZQlyfq9upG9FccNR4R1qDWssxRcpA9D4o5veop2yb3IPej/aA53a+l9LQQZpX+4m/qXtxL+0nZ++TCQtuYjfLrVsN8WNrg/PPzGKUDVgPsX6ua+xp0Ht9vPC3M84ehFw9mfcXxcxpFn7eeObFKCzPjDmkCQJsN+t392FlLiG+unx9gOwcP7rJJwn9sXXWYV3lA9pXG/DV54E3ROGuzNAKblxu0l5o+bwlOXbVEpIJSvQSa4QRKMFPvIg48PUgJnUr99l+TkHGp97nwWbYtj4x66oA4Yy9/k+7HnhSHN19eq0iWHl7bFof/6Ap86cIqsFuuAqmXdBEwQ6AR5DmBM1nP4B3miVK2HKyjCeP8XOw5/yYqHRZjuDVyxz+vajV0dt1TCQ2UhW+k98fPALPi+r22ZK9BLmGDSQ/T0DvovD4HUXzw7qh6G9BtoAZSayUnbyzsHtbLNXedSmKzN7jCM2PAidxsXaDuBSGeYyE6mHP2JayqnKzZ+9eRmx/nV3ozVM5YBhat0nik/w5qbVfGzn8I7RY9gRhQ7I3xpHsq0ahicHMWisD5BH8sh95NvYxOlOPQF/CMPfT4tKXfXzMpMFS3EqJycnUWKvCwZPfB6PIjjUE43SttxspDAhiTNvZ2OpJ9/udFsAXgCX8ihclYFTvyh8uzjRtksQ7uTZPKZm2Sj6RLlBegL77k/H6c5QQu4Jx8fb1TqMdKkU4/FjJL2aUefYV9PW6dle6D2tj0sO/VgnyKkhs5xyWz8PdMP94W50jgrA3UMJhi6VYyo4T+6uRLJW2tpnxXt8kfSV28n4wQ3PR6MIifLBXQ1QjqXoPKkfxpP3ZbWjVr7vtXiE0mdHqI3jKPvfYOMpB99j1ZIRRA+0ZurKTsdz4KFsG6+FP2FrovFVA+Y8khftI/8HT4LihqH3qLu5bmwsg8ba6JvyXrYefZg1JgI1QP4R1i1xPEjJXPY+e4a/xMgACB0xlWkvHGFdk/fzankz//8m0L+dCwyayRrdFzwev4fklu6W+F26igtTDVN6P8tnf7iLESHVghwAFxe0/t2JHXYPU+q00zI9ehHrbh1Of39tzVoXtZaALkOYP3kRK33rq+RwYUrfRay7dQgGL01VsOKiIcAwnueGxdLfZpdj+WziTKZHhaBzqxbkADi7oHbVEuB9XVeQOEyzdAQDHo1Cr68Z5AC4aFRoOnjT1k5bp2mR9P7HMMINnmjU5VhMFixmcFJr0Q2IJnpNDLqB9o6sooPBC4Cy1AyKgMLTBUqnfOlwpbmdzs64LxlG/0cj8evgWlUr4+yKNrIv/d7shqbJ2qroEGHtK5eySX+j6Aqds2FkKOFrRtF7SBBaj2oZH2cnNB18CZk4iug1oajqmxus0xO+ZhQ9BlQEOQBOqDx9CX90ZLPUBTXmPbYs2EdyugUAly5RhM2qu1/PhVHWIIdSstbvI/+Hpu/7DSl2EgOUaeRJ299iU6N2sp/lu5WLMW0fxj3RRH1rUgUs3bWSj09bL3R1hrtYM3oyd7e5QjMhmkGjMzqDu8xiZqS39crkYiY7f/yWz7OPcvAyGDRdGRQwnHEhljrtYnvPYabBGkwYM/az4dBm3jEawSWQ6WH3MLV/INo2WvqPmMXi/7zCc7amj/gNYY4/YC7g4P6NvHn2BEZ1DHOGT2BERxfUQTE8oIvjYI30hi+Lhw4nxLWiXRwfZx5lr7VwhP5uQUR2iCTQXDMD9eJ3T/Bi5f/6svKOqfT3AGPyR9wcf53PupoWRfd+WpyA31ITSf4wg5JdynticEUV0R6PXk78ZqvtwDAM00NxB8oykzj64kl+Uy7HnO4Mx/BwN7zUvhjmdSN+YhJ13unKYaty8hOVK/6PM8gf64MOV7z7+5C2rp7hq8BIegcClJL37QHOfFFIGW54PjqIHhFuOHmHE7IwlROLbEwSdbitL55+1kdlqRkU1l8VauN4/oQ9GYmPGjAXkfXtUdI/LaQ8E5xu9SdgShR6PxWq0Eh6zvuVI08U2tiJG/rJUYD1vTrxdiqmBCdUj/Yi4k497rihv01PxgYlu/HqPvZVy/BVZrOKUzkSm9iwWVeNfo9LyV91jPyFUejUKnxjYyjYv5/CQ8rTs6IxdFEBUJJwgLS1Fe2KyIiNI6NyPw3IWLYy08b3QAdw6RRHP7WRCWugzKVHSJrYlW7O0DnyAeD9pupiE0rjzR9fJumXGTw5MAStbwzz7/Ql5JvVLC2+MeYFitahcYGOOpY5/QOtQY7xBG/GrebjakNFyaZTJKecYm1K3XZTu3sDYM7+nue/j2NvxXNlmaxNfp1t+TNYN7Y7WhdfRvQeAj/aKNNrA5gz2bZ5Jc9V/MGY9/PU9yFsmhRDABpCg7pC/qlqjWIwdLA+MqZuZtbZo9WeM3Hw4ikOnq2+/Y2vbS8fJVuTx9kHU2sOFSWXYknOpfBL2229pne3DjuZ0jnx9El+q3byL//yJCfau9F3mp623l3QP5pEyts121cOW1HAr18oP8zMJj8zCl0gtA31R0Ne/SdkcxFn1u4iZ33FDy5S9Jf9pG0YQYg3eEWGosJGkOVo24leuCtbmc47ns3RzOuhZC8ukr52Fxnrq54r/zqbjK8L+G3daMIDndBE9cSn327yDtneV0nCPhKfyFOGxsqxvJ3AGYM/kREqCPTFk3QakW+y6are4x/SSV7vbX1e7UvXWUEcfDCD8kB/wmL9rV8sRSmctBnUtQx7w9C2ZRL30evVLnKaQh96ByjjdlnprHOkNqeO/5CaNYluwaAO7sEk4LMm6GEl3Qy+G9e9wTMk7V/4mdh25i3SSu7njWG90LmFcPcfnqbbrrU8mJHWlD22qZ2rkhr9Jfs6HN4T10qjhq7GdO9FiAuAicQfawY59enfpaKdkfj4akFONVl5cez7xfpYHRzJTFs7umzk4I5qQU4F8ymyipW26tp/ohcpVWbLaNuHMOZ3kEK9ZK6YHuSG+zQH3up+Yfh1sW5feOAYRlsZjrVnySsGcMLbULtWpGrYivQM8ivbWyhIVk58Hr7o6h2KsQYNOetr/9zI+WQl6+bdAe9+TdvWXOTo+jg++BrcACg7nVQjyKlSSt43GUrmzIsOt6ls7qksPYFjlUFOtV6nK6GNs6rpZg9c9XsMrE3gRIL19XIJjaTrk1q8XlCGrC7lcfLVG2U9n2ulDz7trY+MuaeuMJ38SrJJylW+7Np70+0qe9bcknM/YNxXcSReANpoiRw2i00RvQhoxmN2m7yIsRFK0ffR75rxSOJ614jvTQ1DOlqzMlxMY0duw1sO1rWzPijO4OAFe1vlsie3gDEdvcG1HQFtgNqBVEkGe/Mc/Qrdy76zIzCEacB3CIvvimBq8h4+P7mfOHPr/Dq2/DedwoE98MKNoOnj0d18lvRvTlL471LbxbQVYryVK7mLGI/ZzJcAhZQUAB6g8vbEiWon6MphK8g/XrOQtHxLFoUjvfDCjQ6DPMnYYCc/UZxLvs2gASyZxZShxQVXVKFA7ezI1bR11GgftErBT9HpDPvbrcul6E962jqDxtMDqJvpKDqejo0a/OZxte+xwvREPOlfDkPvqUI3egRezgAW8r89RN51VpdTcxi6JXijtcbEXPhl91XvbV1WPnPxAHQETgbsfOYbJX81N3/UhPsDMH3Pg19lMn/I/dzdSUNA3/tZp9vOq3s225884qinV/Hj+E7gokatBi6Zydz3EQsaUfQtWo9GBDrd0VXk+YtyHZpdpFUrhzPW325biYnFALRD5w02pxI5zMQ7P36Ah4v1jwyNN4aoWJ6NiuVZUwHJyXv4POl74q7ZmeYa+CGF5LUquk8Jx1PthEYfiuHPoTC9nJLMs2RsSSJ/vY2TnEdF5sCNoD+Pw9/OujdtKgpmPdxwhcqr96phq0Lya19IHUqnIKcHXn6g6aJHQwPrSar75TcsgAttce3YtG3Vnm6AA1kdz4rX6iIlZ+rb8CKlJsAD2nprsRXoXFNX+R5XKSLj1UTcX4hE52xNEf92PJ7kV2WB/fqYyxpfn2PTjTKN+vIplu5+meJLTzO9swZtp1E85wxZ328msSn2r1ajdquadWG+WIzx12Jsz/0Vvxe/r+VALp9i6e4FTPv6ew5mFGCsGNmpCHomL2JNUEiLdrGpla9L4tiD2/lpTzqFRcq0aGcn3PWhGB4eR/S6MNrWMxPISa1CpbH9r3I2k9lSLRNRbdjq/HlKvN1Qja7+T0VxjhJIXHH46kosWBodBFdrm3qxsiBb08Hzajp0Q3L8Pa5F70HbaifaqiFTYY/arU8T7s1M6a9NuLtmFcKcm/7K9M7WNKjx7HYW72qiIAfghen07T+S2x95jTX7skHrTbfxj/DWgqZ8vcWNphEZHSOlFd94mnaMAbY5ugutL1PAblZnjHvF5N8Cspokm1NTcmEcs76PAzT09xnMlJ5DGRyoVcaOJ7P481d4ztz0x20xmRcpeT6BEySAwQ3tXeEEDdHjpQFVYA8inizi8BxbM6DqWXvFnmrDVnQIp88z4fVs7Iauv5aMDQ5eb3VyU6aHX6Lc0ffJVttDBZQUg5cHuAT64k62/XWF7HLDvXP9z7sqH2tTQVOVEzeFRrzH1QV6EXRPaGUxN4B71E0Yntxx3WV1Wr4YudhaJ+gM7dp3Ba5uOGWSr7LqL0byNl9t32ppsmLkalyGsHx0LIN1LnC5jKwjHzHr+NFmWUgw8+BmVhw8gvbfHzMpXE1o//EEcuQq66LEjaoRGZ1TnMxXIp32IYxU1791dfF5yjoqHr70stvOlyG+Sg3Qr7nEO95BB5g4mLedud8vZNr/0jADtPHFoL9yS617ULP2rDbrkEptrugiHMxAJF/E+FICJx7azpnz1h9ZZ0BVc6pIOdFf6eRdl9O4imGrhnHvEojt0lz7tKHK58OUR5GdWWOOtS0kP1U5KWuCCHrGteE73JDHBSWB0U5vo2C3wjRfPJ0ByrlwuhkDHQ83u+si1XAV73EVV3RLblIWWrxI+qrdWOumVejGDsLP1gKAdrTt0LrWr7LtFHlK5kUb0IPoq9xbNx9lBtevBSRd5b6aW0D7yWy68y4lyDGSuGsldzRTkFMlm8wLVQXbI5v1WOJ61qhJHO+cSWVKWFfUeDN4aCyDv7M9g6q2bakZPB7pjQ5vBvcbTsAP39f5oAf438UIpXYiK+Vbx7NFjZRcWICREHT1bnWC/BKw1v8FMh1YW+/2V8uIqdh6PE0Hb2rXjmiWDcWgdzRMUGRexFRUDh1sxLpfpnN+Shju3qAbGIkmMBFTgy6FVHhXDFsVnLS9vk5l35V1X7z96TA2iaytDez3wFACDNbf2ZSc6tjYez1tS7acxRgZjhYndKOHos/YQfo6OyXbgU44UU55JkA2Banl+HZxQhXRHd+Bu8mtU4Triu84vTUAMWWQs9KRTjeM6fxFwA1oj+c0KLzSXNpGv8dVXJ7pR5i+Yr2cQ2SsL4T0Y2iX9MALLZ0fjqQosb79Vn2+3f064oSx/iL5q9TyxcjfEZ86hyE6DwjQMy4Y4hs9xfwBOivZKfO5Y007tRyasBhZw5jOyjo6bYCLaXwu6+iIa6xxNTq5W9iabc3qqP2H88q4mTzbMRCD8nSAOoTpYTP47Ob7a66MfGE9W88q7cJiWTf8LqZrlCs5l0CmG+axbmRXZX2eo3x+woEpXVfiEcuam6bybEAvxrj5VpvWqGWw1yhWDu1lDXIu55Jsd8V5E//JUPqk6crU6v1vFoUU5Vi/+l269CBsnpv1DYvywmfNGGugUA/3F/oStNAf99FuuBiqPRHlivszMYQp04t/S82uVWRqJOeHXGtNhmcofd6JwffPntX24YTLaC88X46i+5fRVRmcfno6KPU+xuR0u0EOgGlfrnJMLbqhNn4PZzfcxtb8eDqN1RP2jLXoFXM2Z163kxlpTNutSZw+VBFIuhE0/Tb6fBCJ76NeSm2RJ9p54QStGUbfD0YSUG214MIvTitBkxdhC4cR9KgWJ+V1cLrVn6D1IwlT7vmVt+NYI4bFGuCbXKW82ZWAu2Pw+aPrFf64G/keV5gcSY/RPnXXy/khhVNb8yr3G7lEX8/VVLVMWmA43Zf50zbKgd/5BrTuYLo1c0wnoh9pfN1I4PwYerkBmEnaez0uFgjWepynWTzIGuSYc/ez9Mu3JMgR11wjl+VI48UdG9GNncBgnQtqXVdib5lHbO3Nik/U+oGJN/dsJMTD2k4bNISZQUPqrpVz4RQff/tBE90vSuHqS0iX7kR26Vu3nxUum0jeu77e+pyDSd9zMHwy/bXY7n+T3usKir44jfHJcLS44nvrKHxvrfakOY+UrUYCYkNt3g6hrT4IvT4I/TD7+y87f5ITr9atzyl/fT+J3sOIHOiJi4cvYX/0JeyPtvaQS47yqGrYykj+7ivMXNqQTeH0UDQa0Br0dRf+0/hiePI2mGe9JQHOqqpbWJhzOflqPEX2MgWNbGuav50jS4bRc6AnKkCjDyVMH0pYnS1r/W5bkzjRVUuvO/1pq/ZEf+cI9HfWbmMhf9ceTr5eX/h3FQ6lkJYQileUG3j4Ev7nMfDnmn2uXYvTmPcYgEAfQv5UUZdj5MyqmuvllL16iJSIkRj0Klz0UXRdmGt7BWug5NMT5BusKyx7RkXTt3ag09rudfXPzRy4O4IhOgjsP4k7ONKI20D0YdagrtaH+UfY9M8m7mOT8Gb+sFncHWw9xeQny72uRMtp/Kyry/uZu2UxS384QVqhiRoTLcwm8jNOELfr07on/OrtLpRVrZFzGcwXckmMX8+sr97hzaYO+ktzScsuwFhahrnWmg3mUiNZp/ez9j8vMi3tCqt1Xt7PrLh3+PjnXIyl12Au+tYkEt9IJOd8tbVvLpViTE7k8Jx95J61c4NJ4Lf0XAqLLFjMtba4ZMF0Ppf0r3dxcHKS3aEF04JdHHw7gfTUIkzV93GpHEtRIVkH4jnyxH4lk1Bt2Ko4j8IrDkXlkZ+qnPS9/dGNrv18OeWXsAYpGhUqtXLMPfuIf3A/eTvq23fj25oW7CL+xX2kJBZSYqr52paZSjGmppK8aled4t2yt+M5/OI+UpKLMFULlMvNpRhTT3Ls1W0kL2reSa6mJ7YTv+Ek+UUWyho48cmx9xisdTnRBGgAysn/dh85dd7rUvLfTiRPeR28hg0laLKdDvyQTvKcXZxMrnX8Vmszr2w7Zc3q6GJ48IUYh/cQ+MiD3BwMYCZpW2Pvl9XcClj6v40cvGAied87PChBjmhBbbpFDGiqpZqEuGqNumdTE7QV4tqJYcmXLzEuGDCfZdPT03nhfw1sGjyJVR8+QrQWOPcdj925BBs3yRGKae/GMbe/BxiPsHzEPLkNxO/U72sdHSGEaHH7WbB8M6lmQN2JO+YuYEiD2sXw/PIHrEGO+SyblkuQcyXrKtYn0XoTGtyyfREtRwIdIYS41v73Go+9e8RaxB58M6+t/+sVgh1/pr27gDtC1EAx8e/+reFZoN+zbaeVtXM6MX75Au6IaOH+iBYhgY4QQrSAzA/nsSDuLGZAHTaep14eanfbkc//ndn9PQAzqXFLePjDJr6FRGu1/30+229dv00dcjPPf7iDH/+3lR/jXmJSC3dNXDsS6AghRAvZ88J0/hp3FmPWfj5bYf9GnzvW/oc954pJjVvIhBf2X8Me3uiyWTf7URb8ez+pvxRjvgRqNzVqrRoHlgUVNzgpRhZCCCFEqyUZHSGEEEK0WhLoCCGEEKLVkkBHCCGEEK2WBDpCCCGEaLUk0BFCCCFEq+VQoNOxow8qlaq5+iKEEEII0aQkoyOEEEKIVksCHSGEEEK0WhLoCCGEEKLVkkBHCCGEEK2WBDpCCCGEaLUk0BFCCCFEqyWBjhBCXJUQ5g9dxJa+MQS0dFfE71Obriy+eQmfhXeVz6ANEugIIUSjhTB/6Azu7qRF130889u3dH/E79GI7pMZ468hZMAM3ugS0tLdue606RYx4HJDN+7Y0YfCwiIsFktz9knY0N9/KnN6dyXUJZV3/vsBH7d0h0SzcJqsJ2BcGP5+WlRq5YeXyrEUF3E+8QSZq/KwZLZoF2saqyfknlC8/H4jfex+8lu6Pw2iQrskkqAIX1xO7yNxflEj96NhSvTTzDFo4bKRg9teZlae6crNDCt46/YwKpZezdn1NIviExrZh2tD0/4+xg8Zy4BQL9q5Kj8sB0tJIWdOHWDL7uUkX1enhTGMu2UCA0L9KPohljeOtnR/GqZdp8VMG9Idg+o0Kz54muQGt6z2WaSMtB9XMul0WvN19AYjGZ0bhCGoOwYfLWoXWZm6VQrU4rtuHDc9HIVeXy3IAXB2QuXpRcCQQfSc59liXbSpVxABek80aueW7okD3PCMDMLLU4XLVXS7f+dZzKw4sexf27AgBxgWXhXkAPiF3067xnejmUUz+JZPWPbnexnVrVqQA+AEKq0Xhr5jePyOuS3WQ9si6NlLj59WzY30jekf1p2e/h44fgMCEx/HryUuuwxwIaT/ZBZrmqGDNyiXlu6AEL97gV4EvTkUvbfyf7ORnIQkcr8rwgzQwRPPXv74RwTIlcn1Qh3Lk/0DUQPms9/weIOvnu/DoLc+ulBUTDtPD/APY7QrbCxtrs42VjTj7nyO2DAl6i4v5kxCPN//fICcUsBVjyG0O316RNC5RfsprNJ4ccdmQu+KJVLjy5hhk9m6dT17W7pb1wEJdIRoYZrH+1UGOb+dPkziooxaw1MXyft3NnkcxsnQEj0UNWmY2S+GEDVgzmTr/u1kNbRppyi6aQByOPDfc0RNicYHPww9o+DQ9TV81S5iBuOUIMeSE8/a9c9xpNbw1LlfYPt+0KjCWqCHoo7L3/PcwV58NjQEtU8/5nT5nr2nc1u6Vy1OanQapC8r75hKfw8wJn/EzfGHMXjdxbOD+hHaXoO6DVBmIitlJ+8c3M42m6+ohjHBk3mwTwQhWhdoA1wuw/hrBvv2reW5QmPNzbvM48BNgQ700cTBLQuYVVkkEctnU4cTAqT9+ASTTttoUnmMTOI+ep0X63uuTVfm9L6L2HBftGrgMpiNmezc/V6tvle9VtbjarnbMJ0HeoagU1Kp5ou5HI3/ghfPnWr4CaIBNMtG0SfKDYpTORKbSN2BBE+C4oah9wBTwi6OPGGrNsOJtvN60GlIEJ4e1YY2LpVjMVv4LfEQiU/n2e2DalY3Oo8OxctTZc2+XCrHVJDFuU8TyPuyvG6DfmF0X9oDL4CiFI7cecxGv69MNT2c4LGh+Hi7Vva5rLiIX4+fJPXtbBt1PVWvRf7WOJJfdaLtM1F0HRiA1sNJaV9I1tZDZKy8WNVsYiR9ZoXiSFbcun9bz1Qd093DSXm9LJRkppL2YRJFO2ptPrYbkU+GowUwZ3PswXiKbNQreb43jh5dVICF/K07SH61FN0HsZWZlAax+xkC1Hex6e4hBLSB/MTVjPvpRIN3Gz02jgd6qiEvnr9/sIdhD8xlsDeQuZOnPnmFC3VazGX+X8fQmWLiP5rI+7+MYPDgexkbpcdHGUayFKSza/srbExPqdV2Ag/MmEG0J5z5ZixLj4Zh6PsE90QH46dVApiSQn7e9R5rj++k5rf6vTw08z76uAOl6Wx87yG2NybjpLqdUUNvZ1iPqv5SZibvfArx3/6DuF9q9xkMIzfweF8POLuNmZ8vR9PxKR4YG43BxwOVE2Ap5lziNt7/fjU5lX9SVb9rgyn7r8sPv66zmTa0N8Ht1dZjlpu5kHeOvVuX1e2z0wwenz0BgytQXsiuD+7l04K6ew0e/Al/G+gFwIXDq3l2x0Ysvd7jnVsc+mBaPwc59W0TwitjH2OED1B8gjc3rW5gTWcMT3+4gEkRHnDxLJuenc4L/3Oga9cxyYQ7rB1zblrEuluHYPBSghwAFw0BhvE8NzKWwbWbtG7D/NsAABx+SURBVOnK4uGLWDysFyHtXOBSGeZS61iq1iuEMbde31NTXdtPZtPEmUzpqQQ5AG1A3S6QMeP/ykofO6c9pxhWxi5ifnRVkAOgdvOl/7AZvNHZt9n77pBAL4I23EbfW0PR1a7fcHZCpXFF6+dmp60bPmvGET0xHJ2nCswWLCYL5c5OaDoEEf7obfRe6lWnmdNtAdYgh3JydzQiyKk47rRu+HVwrdFnFw9PfAZEE70mBp+R9ezDWfm9RwdVBjnW9l7oJw4jfF4zVDkYfGoe02zBYiqn3FmFuz6cHs+OI/xJ15pttiZxYmseZQBqfwwL/evud1Y0hi7W/v52PJ7kV5t+PCg2ojcBbYCyNHYcbXiQA/fRR8mQ5J3awTm2EZ9WbH3KvzvDXetpCqCdzeMznmJqTLWgAVB56xk1cTmPR0TZbapyuZd7pi7n8ZFhlUEOgMrdiz7jn+L5oRNqNug0gG7u1od5CRsbFeRo9C+z+NHZTOhbs7+4qPHx7864P61g8ch76wma1fQc9gnL/jSCnh2VIAdA5UFw3wn87Q9zm762yWkE4+58j4V/iKaztxrVJTMmkxkLatp1DLP2ediEmnU/5atZsSGBC+WAkxfDYhcTXHu/3ot5KEb5+8/ey9IdG2m+dEEabyYpQ6keXRnbqYHNnnjAGuQAuHXijrkLiG6W/l17MnTlIG3oeKaoXaC0gIMH4ng//SgHnbvz7OCpxAZrUPvH8IBvHHsrs4UaZt50P2OCXOCykcT/fcRzFZmMNl2Zc9NUpoRp0UVM4JX8o0w7q5zqTr/OgGpZmCnRS5hj0DgYoTcFX0bcEohaDcaMPXy0/1vWmsro7z+ZxcN6oXPR0r/vOPp/8wUHa7UMiZ5MSBsw55/gP3s+ZamxjP4+sTw7MoYAtQshvWKZcuZa/i71c39ygDKEVEretwc4s6WQMmU0wWmgG+oePnhqbM/Q0T4zlPBQFXCRrA37SKvIggS64fnMIHpEuOHe7ybCZm0hZWVVO0+98uV3KZe8tx3vs+fCYcpxLRQlHuPM2nRMCUCUFs8/9SU8yhOV2pfwxyMpSU7EZCMDohs9FB1Qdj6V5LXHKNpajtPkcAzTu+GlVuEzrBvnXleyGxsSObIhsarxk4MYNNYHyCN55L4GzrpyxXfhIOtrbS4kZdVeciuyXQZPfJ8dRFigCp+xg7hwdCc5W6talr16iJSIkRj0Kly6RBE+L4+TryunjEB/wmL9rV9qRamceKkq85Z/fxz7ql61BmT27OnL2BCt9WH2aT5ucD6casNWhSSf2AlA8vHTXOgbRTsnP3r2jCLO7vCVB9G33w5OYMlJYOPmT9lXkIPGfwZ/mTiYYFc1hmH3EZ2UQLyNxGHw8PsIdgKM6Wz572q+zYyH9rOZNvF2+rQHn+jbmXB4IxtLrNsbQoKVAKSQY0e3OfBLKrwX87eJUfgox9z+zUY2p27DRBg+gROZOn4EBk/w6XsfcwtO8/eEeBudHsHsTkBpIfHffMAnydsoc51A7F33MSpQjSpsMBP9livZjY28v3oj71c2rsiEVWSzGtJpP6JvmWutSSov5shXK1h7Ssl0OY1g8C2zmdrTA5/o+5ids5c3kqvSKpbsN1iX8A9m9/UAn2j+MmwCT+3aqDw7hntio62vRWk6cZsWU/nJPPoQM6v1rTKbVZTAG6sdmXVVU1bacZJvCsHg4kJowHA4+/2VG2nUNf/v5oFPI49/vZGMjqPULnDhBO98+SKzzh7l4GWg7AQv/nBUGYbREBLYq2r7dpOJDbN+ZWQdWcuD1YdrLp/izR/WsjMPwAVD78nEXsNfpWFcUKvKSDvwDtO+/4K1JiNg4mD2B8SdLbNu0iGUsbaatgFz9h4Wb13NUqPSLm89L/6s5HU9fOnvcW1+iyvT4qVXLjvTT3DypaogB6D8h4v89s90ct+2cVIc243OEda2hbt2VwU5AJkXKfrLblJyAFT4juxW7WrQE/cOysMiI9VaNczESDor2YuShB85NkcJcgASjBQ9sYsj3yoZEI9QQqbbz8yUpSdy5IlEirZaz5Ll60+S/EOh9UkPHzxHO9q5ejzai05+AKVkrd9dFeQAJBeR+3Q8WSYALfq7gmo1LiV/QcXzKnxG98Wrn/UZz4VR+KoBLpL+se2g7qqpuxKgfGazsnc6NPQa3T3MGjwUnSW+Ymgj5ydSlOAiuPOI+mcIOYEp+Ste+OhpdhUkYCGHC9mLWfptivVk7N6dweF+dttacuJZsfoh4jLjMQGmX1fw3hfx1pOukx9RfcdUbt65o/JLWgrIdnj2fRTjbq52Yv/oITamblOylSnkZb7CG2tWE6/sN3jgH+ljp8+UphP34VzeT7a2t5RuZOMX8VhDDA9Cw0Y42jn7vGcT29N6ss/Z/Qrvnao2nFe+k71bX2F7NoAaw+DZtbI2Ofy8o+J5aNfvXqYqb0Xw4PsZ5gNg5sx3K9lS0nRdtm8vacpVh7pjCHc3pMmHW4ivvFIpJmnbZ2xpns5dcxLoOKr4BG9+tZq1ZbV+bj5FlpKFxrkqUTY9ois6gNJTbDtua2ZGGm+eUdI/7YIYrLaxSYsqIyt+JZNO1q2neee80u82dRpZGU/wzo4v6tQsHczNxVrVo8H1Sun6a+YSZZeUh97euDtQ9Os+rhPuAKZ0MhbZyvGXkpuoXMN5d8C7n41Nii86nMrWDg+ynjgvZZP+eqHNbcpeOskvSpLQK0Jv+w++KJXEBal16njKj/2qnJyccWmyWe0qfAYoWZec06SvtbFJZh65ydbX0SXQB62N59M+TKUEQO1L10f1tJ0XowxZlZP/7W4yNjRVf2vReStXuSay8h0ZaKwatrqQEl/tSv0T4lPM1ofB3RlVzzey5ew2/v7VCmpXiFmSEjijfHj0IWPqtAPg1wTe+/dz/Fw721Owg2PKDn30A+oOBV00Um85iC2utzNAGS7JS9ho+8RevpENh5U9u4cRbWt4pbyY+A3Ps6WoVg9Kj3NOCZLUrt512zVSn/69re+t6QSb421kmIgn7pjSF+9gBtT57opn46ZtnCkFnDwYfNvL9PR/mb8oQ1YXEv7FG8evVcG5iaRflc+nVkeDvs7OfcbDYx7mseeX8NifYvnjsiPN2cFrSgIdRxlz7aSrDzNr0xMM+OgJbo4/rPysK70q6lcKMnnHzi6z8guUE387fHRN3N+rZiEr387U2dOvM+CjJxhQu5BZYcw65Fhqv0VdJC+xIoOhp/c/RmFYpsd94JX+RNzQBirfeOcr3kcbThmVoMEDTS97GznCDXc/5fo/M5dCu9mLPAozlbObhxu24kpTanrzZD9s8sFTudI15eRhY5RFeU55JTVa3GwFhusTOXnImgNz0UcRNdYXF6As/SgpLzXjPG13N5RwhXwbBad2VQ5bFZN8fGONp44kp1g/G056eva0k5EBziUvrxPkWJ0mRznxa7S2T/wXzsTXDXIA2El2xVW8mzs2qp4cF+JnvbijmNRT9oe9Lpw+p/w+any8bPzextPszXY4zGqkERgClKvMX9KxFeYAWHJylIJxb3S23qqS5az6Lt160dI+itn3RtHOCfg1gXXNWpdT18eFFR/QdgQ0eMXuU+zZ/B17jjdTp1qI1Og0Ky2uFa+w3xD23D3E9mZtXJQvTxe07temZ6KuskV7+enlofQY4ImLsxu6qCh0UVGUm40UHk8h/cNqQ0OVVLhUZOECexH9dQ/bO3d2VoYlVLh2sPG8hxvWSpuGqjquqaD+sQVz8W+AG3hocYNGzepqOlVF3prIQUR/bWcz54pBHFdUocChupuY5u/m5LrRhAc64eQMmNI5sSCd2snW5lFGqQNBfOWwVck5jtQ+d59NIMnUnT4a6Gy4F9XR5Q6eEHdSVPIU+ADu3gQD5xxonVNSDHiAmxY/qFkXYutnV+KqUj7rBdQbpxQVcAFrtz29BwMb69m4uXnjVvGRCx7Bstl2hsSc1ErtkhpPO1nOC8ef572AfzA7ysOaSijPYfsnT9sJNK8FF7iR1vNsBhLoXCttXFBfcZimjNLf28z960o5JU/v4sBIH3z/0B0/gxfuanBSa5Wgpwf5u/aQvMhO3sbZCZXmShmgcsoqhji5iEU5x+BpDUIaezOCG5KzCtUV56lfoszeixLoRttqs8QwX7pGQQ6AxjoD0dyQbauGrSxZ6eR5jqhV35FOTg4QSuXw1ZbGnhQvFjs+1FThN2NlMXme0QyoQeWNvye/rw+mkxpNA9ZPsNhNHAYT7FWtBsFidrz+rkmZKL3uFqO8tiTQuVayv2fAd3Et3QvREDvyyN2xm1zAaawv3uPCCY3wQuWsQjdsECHTtpG2zka79AT23Z/uwIEsXMgpBT9XcPbGaxoU2drvFWi86z8TqT3aWh8UN6LguRk5PuOpJs28fuirX1V7hhK5pIjD9zdjVqdyDTEN2nZgZyypJn3FsBWouo7hb13t1NEAOOkxhPuxJcmRcOV2dBWvg8Xs8PBIsKdSeHypKqOYkFMAPf0ALzp3aexiht74+4HdyMvTu7ImKC+vJbM5tdhdX6dhfHrNYFynitWkAVc9sfe+zLn3r21W5+52yqt72UR+cf3btnZSo9OsDpP1q/JQ68uUptileztCHWyide9q46chPNvpOlvHpqlo2mKzpnuyHp2Ds7zKt+aSN2c38S8lKaGEK159qp9diyg5rzz09nRoIT0A05FcflP22/GWUAeuPIowVqyW1sG7bsFuJR+8ApUFAHPymnHYyg3NnQ3ZrpCSinoS78ZXOLs8OYjIKOuaRiUJuzlSrV6n+xL7r0ZtGs+GbwtAfoGS9dAQ0LFhfz99uoU59LnobJjg2P2ZXKMIU2owcjJ2OtISuI/OygJepowTlUNUlhMnOKd8vIL73kNPR84UZ3OV+M+D4GD7a/u06xKsFHYXcu6sg912gI/X7Q3YaiPpFUFre9+GFe/aoPJ/mfmj9NZh6LPbWLq1ql7noVtnNPx91XrXXYvHQYZ2yme7OL/hQ4/BfRg5fijRV3vw64wEOs3s/bSqhZv+0CWk0fvZWaSsmdrGm9AGfb/mkqdcvuvad621GKGGKdHTifVvXQk903nlF3b2wL32fPeBegzTQ2l0CdQOI79dsv1UYUK2MoU7CH3tRe6uZF0KWUrNoEtgJD2W+dT7R1n9FhBFibnW42r0BC20fVyXhd0J0ACU8svubMf61hBnjUqg5oa2R0O+xo3kJitDf/pwgiY34pgDQwkb7VO5Xs7J1wsxza+Ywg/agTFX2G8Rv1Ukkvx8HPtMFB8nVbk6DvBvyCKf9xJdMWyVvJGZr4218+9+4pSTvSokgkEN/mb2o+fQ3vgBWNI5cNSxzItP1Ah6KkXSPyf8q+qJ0n+x95QyLucZxUMTnsKvnj7VuAVE0R6Slc+0X//7iLbVzuk+7hmgVPNmJrC5yYfG0slXPmbtAiIatLDgrhPKNH3PCGJ7NWKpPKcJTLtNKT4uTWfL5uWcOf486362vo4qw+08foX9nilQPlxOfnR2ZMHkOoYTqtQCmn9J4/OGNAl+gA8+fJ3XXljEqg0bWPWnJilNvy5IoNPMstL2cNAI4ELITbPYclMs0918K78gA9Qh3B1wFyuHP8umqL717OcUWZcBNEQOnsfijoFXuOrYT/J5JYEfPJhXwrpjAALUMSwe/ixzDFq4YWZENdDBillPWoL+3AP3KAAnVI9G0mNhFLp6p+774PdOJL6PeqEa7VrjD8NpmBc+a3rh6wxQSuGRWt/Kb58kqwhAhW7sSHq8qcd9WLWTfpQrbf8cStCaYXR/uXYWw0jOpylUzMB1jxrEgLhBBC30x320G6rRbrT9sx7fZTFExt1G5MPV2r+dRLpyQvEaNpIey/xpW3EBHaXFc9kw+g6zTm0tSz1GeiOGxa5ofTYFFdPXhwwi6FEtTle4c4nl81PkmQHc0D88hvAXfGlbbXab00A33B/tRsi/RxE2r1bjQC+CnoxE5ww118spJfftBPIr9jt9ELqB9vtQkKzMsNPoMawJbcDsugqHic9RfmG/7sy80nIQ+qoVhs+cXF3PhjlsT1aGPVVh9LGRhG2nm2A9iVZwiiJ66HIeirKmKfMObmSLnVoMlaee4BpxaBjBPVfwt5F+1uxD8jbW1RhiymHXNzutU6UBVacRLJz5CbOHziW64wiCPUcQHDib2KHL+dsDcSy7o/oKYNtYv7dqbZ8HZrxHbGC0ktUKwyfwKebPuNd6e4nyYvbutHXri6u1kSOpSqAWOJi5I2fT2dX+jDYAS9IODvwKoKbzLc+x8Ja59NFGVWZhVK6DMYQ+xQN3fsLfaq8kTTTjJtyn3IKi+no5OcR/8y/iK/Y76ike8Lffj6pMmpo+46q/bo4JCOlFpCuAieQzDVgsEGBMX7pVJDidvYme8hjjGnHs61HruqS/Lh1m1jd+rBs3CoObC7ouw5nZZTgzbWxpvFBPZYF5C5+f7G0NUNwCGXPLPGqO9Ne+1xW8+dNRxur7omujwTBwBuuqf/GX5rLzUAH9B3WvZ9jjBvNtEul3h9KjiwoX7zB6L6t5o8GSxP3keMYQZvNKyQ1PQyg6QyhhAM/Y2sZC0Q8HbNTnFJHx6mFcn+mLr4cKz8goekfaTtmXFNgYpN9wjJ+cL9FjejieanDy8EE/zAf9sLqb1hx6MpLz+mHcK44bFU1fG4e1ZB4j8fkMu1O5r04eGbvy6DjWBxe1J/o7R6CvNYRV515XhzI4udYD1fRwPNWu+AyJwcfOhMTaJTDaZwZU1uUYf9hfc72cH9JJ2RGE51gfXNQ+GB4N48APKTbrdcrX/kx6v6HoPaFtaCS9l0TW3KCee12tPX6KSV16oWvjS/+I7pBg/zYQlcNWlhSOnLK7GQCW5BTOjdIT7ASdw2dAcs3AyKffDF7pNwOLyUwZ4OKqrrwtQt7hf/H3vfancmvCxvC3OWOwlJopK6/Z1pSyk1e/Xl23tqd0OUvfNzP7j7fT0xPQeNEzZgw9Y2zUGNWqz7ckL+Y9n+U8NNALlVbPuHsX1z1plhdy5D/L+KiZZpAf2buTM4YxdHZV49f3dub3rTWEVacWZyMffeKHz9TbMWjV+PUaw0O9bNdTXSioWYXuEz2b2E4Vmbuvaq6XU76RdV9HY7g3inZOHkTf8RSJq+baXMGa0n8RlxBtXWHZ5uvWkHtd+TIzXBk9uHCK/zT0np6JaWSaIwitCN51fkRDq1g0UDI614JpM9O+fIe1CafIulCGuXomxWwiP+ME23asZtbh+tYpN/Fx/Ms8t+soabX3Yc+Fj3jw6z0kF5qqsjeXTOSn7WHpl6/wVEHrm+JV9NAOEg/kUVLte6isKI+0Ddv5aU4uZjvDT3CRotRCSkwWLLW2KTeXYkxNJfntbRxbYHthPn7IIGXmdn7ak05hkaVq8cFq7U/+ezuJ8+3M2FqfxLEH7bW3YDqfS/rXu/np9VrZpMrjZmAsLq8KZi6VYzqfS9qX2zk0LYXfmnGdnLJX93Hw7URyzpfWee3sWp/EsTm7SE7IxVhsqRGElZmMFCae5NiqLZx8vernLk8OoruyAnVZZiInFtR9LctejedUqvK59utBj2V17y8GQGYhGX/ZzrEDeZSYyh0LAi+sZ6uyKriuWyyL7V5yVw1bkXWafVc6SOk2kpWTkqpzFHXiXCViU2nUaDRqVJeKyUlJYOOHs3luxyf1119VtHVV2pabycs+wfbPXuGpL1+pdnPMWkpWsGL1bN7YmkDyL8VYqkeNZWZMBTkc2f0Jf99Uu3g3h5/33stTH24j/mzNdpbSYs4d3cmKFXN5L8XeijVNoGQ5S99dwZakQi40dNZRyQreWP0K7+0+wbkCM5Zqr4ul1Pp6b9m4nP+366vKn6v8X2b+UCVLU5TAezaCRkv207x/SBmWcu/OtAlz7dxeIYefd/yFRf+J50yt4zdUgP9djOgIUEbyT+tp8BSY/a/x2IZTDZtIeIORu5cLIYSjNHex6Q9DCHABc/b3PPVdHHub5UCNuWdThao7el84vJqndlxHM5tE82gTw8o/TLbeWid3D3O//cLBz+Vf2XhwvHXCi/EIy0fMozlGvK81yegIIYSjTF+w9GAmZkDtP4T54Y2faCBE0wjh2ZETrEGOOZO4PY4GOUCsrrJw25xypFUEOSCBjhBCNMre0yt5J9kIuBAQPYvPrmJWpRBXp9pM2stGDu5YyYsOriXRbfICNs6Nsd6+w3yWzas/ao6OtggJdIQQolFMfBy/lrjsMmjjQkjMVF5xa+k+id+jEV0eY6ZBC5SRtn8ts/IaHuVMWvYxP+7bwb/n30yoFjBns2PZ33hhf7N195qTWVdCCNFoabz43UoYPp3+hd/y5vW09LT43diZsoW9oRMITV3LpNN2bsJsh6ubFrUazMYCzhzczLq33meLIzdLuwFIMbIQQgghWi0ZuhJCCCFEqyWBjhBCCCFaLQl0hBBCCNFqSaAjhBBCiFbLoVlXv/xS+84zQgghhBDXL8noCCGEEKLVkkBHCCGEEK2WBDpCCCGEaLUk0BFCCCFEqyWBjhBCCCFaLQl0hBBCCNFqNfKmnpNYtfMRorXAJTPG3NPs+fhNFqw/1aSdE0IIIYS4Go3M6JgpNZoxXzSDsxptQATj5r/NxudjmrZ3QgghhBBXwaG7l9sUMZVVbz1AdHvg4nFW/N9fWNM0fRNCCCGEuCpXX6Nz/CMefms/+QBuegb86ar3KIQQQgjRJJqmGDkunwsAeOAT0iR7FEIIIYS4ajLrSgghhBCtVosHOkPmr2LX/h0c3r9VipmFEEII0aRaONB5hFkTu6J1BpzVhMY+xhKJdYQQQgjRRJoo0Cmm9FJj2nng6lz9/65odU3TIyGEEEKIJgp0cjAarY98AiY50O5jNu0vqPyf8fh21m1umh4JIYQQQlz9OjqKO97awPODvOFSAfGrn+HhfzZ8leRu/3czoaSz5X+ysrIQQgghmk6TBToE38zTS+YwKcLD+n+zGXNZPgdWTOGx9U1yBCGEEEIIhzRdMfK545xJyyZfGcJCrUbtpq1VgyOEEEIIce008qaedQ154TWeHu8P5gLi17/PPz/dTPy5ptq7EEIIIYTjmijQuZlJMf4AGI9+xsNLpaJYCCGEEC2viYaudLiqrY/ysj5zsK0/0aNuZmR//6bpihBCCCGEosmGrhrHn9n/XMWDUdYC5vz973L/7M/IbNlOCSGEEKKVaOGVkW8mOtyj8n+6mEk8Nb4FuyOEEEKIVqWFA51jnMk2V/u/N4H9W6wzQgghhGhlWjjQOcILf91EkvnKWwohhBBCOKrF717OuXdJyqr4TzF5aS3ZGSGEEEK0Jk0T6PxfDzprrQ9Lix1tPB4fpS0X0znwYZP0SAghhBCiCQKdiDt4bW4MOoBLpzj6uWNtl6x/hCE6ADOp29aw5qo7JIQQQghh1cjp5XfwVtwjDGgPajdlAR3MpH79Pi83ZDXkyS/x1ew+BFZrm7n9XR5bcqRx3RFCCCGEsKGRgY4aV60atRtwyYwx/yx7/vUaC9Y38O7jzmrauanBXEz+6SNs+vhdVmzLblxXhBBCCCHsaLq7lwshhBBCXGdaftaVEEIIIUQzkUBHCCGEEK2WBDpCCCGEaLUk0BFCCCFEqyWBjhBCCCFaLQl0hBBCCNFqSaAjhBBCiFZLAh0hhBBCtFoS6AghhBCi1ZJARwghhBCtlgQ6QgghhGi1JNARQgghRKslgY4QQgghWq3/D9V7q9Jqt41XAAAAAElFTkSuQmCC;" parent="1" vertex="1">
                    <mxGeometry x="-40" y="220" width="260" height="62.95" as="geometry"/>
                </mxCell>
            </root>
        </mxGraphModel>
    </diagram>
    <diagram id="bJHJNpdqBtXtzOPF1muL" name="第 2 页">
        <mxGraphModel dx="1573" dy="480" grid="1" gridSize="10" guides="1" tooltips="1" connect="1" arrows="1" fold="1" page="1" pageScale="1" pageWidth="827" pageHeight="1169" math="0" shadow="0">
            <root>
                <mxCell id="0"/>
                <mxCell id="1" parent="0"/>
                <mxCell id="iX1n7W7fgkuR9EXcFvVA-5" style="edgeStyle=orthogonalEdgeStyle;rounded=0;orthogonalLoop=1;jettySize=auto;html=1;exitX=0.5;exitY=1;exitDx=0;exitDy=0;" parent="1" source="iX1n7W7fgkuR9EXcFvVA-1" edge="1">
                    <mxGeometry relative="1" as="geometry">
                        <mxPoint x="390.1379310344828" y="350" as="targetPoint"/>
                    </mxGeometry>
                </mxCell>
                <mxCell id="iX1n7W7fgkuR9EXcFvVA-14" style="edgeStyle=orthogonalEdgeStyle;rounded=0;orthogonalLoop=1;jettySize=auto;html=1;exitX=1;exitY=0.5;exitDx=0;exitDy=0;entryX=0;entryY=0.5;entryDx=0;entryDy=0;" parent="1" source="iX1n7W7fgkuR9EXcFvVA-1" target="iX1n7W7fgkuR9EXcFvVA-13" edge="1">
                    <mxGeometry relative="1" as="geometry"/>
                </mxCell>
                <mxCell id="iX1n7W7fgkuR9EXcFvVA-15" style="edgeStyle=orthogonalEdgeStyle;rounded=0;orthogonalLoop=1;jettySize=auto;html=1;exitX=1;exitY=0.5;exitDx=0;exitDy=0;entryX=0;entryY=0.5;entryDx=0;entryDy=0;" parent="1" source="iX1n7W7fgkuR9EXcFvVA-1" target="iX1n7W7fgkuR9EXcFvVA-2" edge="1">
                    <mxGeometry relative="1" as="geometry"/>
                </mxCell>
                <mxCell id="iX1n7W7fgkuR9EXcFvVA-18" style="edgeStyle=orthogonalEdgeStyle;rounded=0;orthogonalLoop=1;jettySize=auto;html=1;exitX=1;exitY=0.5;exitDx=0;exitDy=0;entryX=0;entryY=0.5;entryDx=0;entryDy=0;" parent="1" source="iX1n7W7fgkuR9EXcFvVA-1" target="iX1n7W7fgkuR9EXcFvVA-16" edge="1">
                    <mxGeometry relative="1" as="geometry"/>
                </mxCell>
                <mxCell id="iX1n7W7fgkuR9EXcFvVA-1" value="AppProvider" style="rounded=1;whiteSpace=wrap;html=1;" parent="1" vertex="1">
                    <mxGeometry x="330" y="250" width="120" height="60" as="geometry"/>
                </mxCell>
                <mxCell id="iX1n7W7fgkuR9EXcFvVA-2" value="通过创建的 AppContext 将希望整个前端使用的所有 data 以及 methods 传入到 children component(也就是下面的 App component及它的所有 children)中" style="rounded=1;whiteSpace=wrap;html=1;" parent="1" vertex="1">
                    <mxGeometry x="540" y="470" width="250" height="60" as="geometry"/>
                </mxCell>
                <mxCell id="iX1n7W7fgkuR9EXcFvVA-3" value="" style="shape=image;verticalLabelPosition=bottom;labelBackgroundColor=default;verticalAlign=top;aspect=fixed;imageAspect=0;image=data:image/png,iVBORw0KGgoAAAANSUhEUgAAAb0AAAE4CAYAAADPUy0vAAAgAElEQVR4nOzdf1xUdb748ZcOzAgMqMMPBxTEhFRwBcnwR1qmZlpd3IzVXczdyLupW+ZX01291rrdcmvXVi/artmuS3ctdyvLdC3N1LxpmWQEFf5ITAQFFBgVBpDBse8f58wwMww4CIg67+fjweNxmHM+53zOmZnzPp+f06l/XPIPCCGEEF6gc0dnQAghhLhWJOgJIYTwGhL0hBBCeA0JekIIIbyGBD0hhBBeQ4KeEEIIryFBTwghhNeQoCeEEMJrSNATQgjhNSToCSGE8BoS9IQQQngNCXpCCCG8hgQ9IYQQXkOCnhBCCK8hQe9m12koKyc+y1sx0R2dEyGE6HAS9G5mnYaycsJD3BEcSHTSQyz06egMCSFEx7rug96Q8IdZP+FZ9j3wCNM6OjM3lGieHvMQdwT7gOU0W/79J5Zf6ug8CSFEx7run/379RpAvxA/MPt2dFZuKNOS0kkJ94Efqji4+y88X9vRORJCiI533Zf0xFUIfoRHBwQCUPHtv/hVuUQ8IYQACXo3oWj+cPsgAjsBVV/zeu7hjs6QEEJcNzr1j0v+oenVSfzlxw8zRA9VR19n7BfZ9Os+madH3Eafbn5oOwGXaik+/jFrDu7kQ7d78uPeyKnMGBxHdKAPdAJ+uETV+VN89lkmz5yrct485imyhvVswSnUcnDbEn5VYfs/hbceHk00UPD5fKbku0liP8Zptrz+J55vbl2nWOYmTCbl1h4EaoEfwFJ1mo/3vuqS94ZrpRw3kJ/0S+fRgdEE+ylbWGrO8PUX7/J80TGKW3CGLdJjNvvuiUXLJY7uXcr0k1LKE0IImxa06QUxd9izTIsJdNmDHxH97uOZIH/Mu7bwqeO6TrE8d9cvubeXephLl7BYQav1IbB7NPfe/yxDDr3JjOwD7RcEWkHXbSrv3TOUCJ3Di51AG9STe+9bQPCHL7qvOuw8lL+kTGVIkPPLWv8eDLnrl/zPZ39iyvdn2iHHfizs3wctQOUh3paAJ4QQTjwOeoF97mOa1gfqTBzM2sLfC7/moGYAT9/xMCmRfmjDh/Jojy18ar+X+zF72CNKwPuhim8+eZ1nbCWcTrHMHfYw0/oGEhz3EH+o+LqhRJL/J5IdSmfTbl/G3H5+YD5Mxnt/5Y22OvMr6sHd43ui1ULVqX28fuAjMmsvMSR8Ks/dNYhgn0CGJE1kyI53OeiSMvr2qUR3AkvFYTbv+xfLqy4xJCSFp8cMJULrQ/SgFKZ93w7n0ukeblcfMCoKD7ClrfcvhBA3OM/b9LQ+UHmYNZue51cnv+bgD8Clwzy//2u1lOZHdM9BDdsHTSWlr1KvV/xVJjMcq/R+OEbG/kw+LgfwoV/CVFLa4mzalA9a30sUZK1h+p53yaytAmo5WPIaW06qff9D+zDBXdJOYCnZx3Pb/8ryKjVd+Zs8/61JWa/vwRB9O2TZ2JOITgC1nDglbXlCCOHK86BnPkzGv/9KputYL8sxis3qsqah4JgeF0swQN0xPjxU4GaHBWTYqviCenGHtgW5viYuUfzFX5jyXeP2tzVlar47NZG06jBrdr/bqI3z4JkzKK2Afuh0btK10pDuwUrVJiaKy9t+/0IIcaPzvE2v6gxvuO2oks2v3st2eS2WQSFq7w3TadY0scviChNV9CCQIEKCgRKPc3MN1FNc4S5Y06gK1lVV8ZdNXKv21S9AveY1lZy49ocXQojrXjsNTg9EZ9uzcST7fjLS/WadfNSSiQ+BAe2TE690uaMzIIQQ16f2n5Glkw/aK1blXaKuvt1z4j18fQi68lZCCOF12j/olewheZf0I7wWyi21gB/ogpQOLR1QxSqEENezdpqRJZvi8+piYI+2mSg6IIg+LUwSGBDr5tVonu7doy1ydN358HyluhRMhLFDsyKEENeldpuG7O8FaicQfSyTWvFbbh9fUG/knQz08ShWnaG8RlkK7hZLhNM6P6bdrk7EfDMqLKDgBwAfonsldXRuhBDiutNuQa+4YB8HqwB8iB72K7YNSyHdv4c9CEVoo/lJxGT+Mvpp3kts+gZdXHCM4h8A/PjRHU/xXFhP+jV75AMcLVPHVUTewR/6DqAfEKEdynOjn2Zuv8Cbt9rvhwMcLVMWA6OGkt6xuRFCiOtOOxZ5svnVDiPrJ46jn78PwTGjmR0zmtlutqyqbOaH3izbePu7BCVY+ffk3vFPca/TBq5zb0JG7tdMiEoiuJMf/Yb/kvXDHTavO8PHX5oYMmIALhOq3QTOsOa7Au4Niwa/PoyJ9iOzQKYiE0IIm/b9lYXaD5i+aQ2ZOccorryExbGEZaml4tRhPtz9V36V/XVzO+GNL17kmf/7mgLXfTSl8nVmvL+Po+dqG0p11loqCvaxfNMf+I3p5u0qWlzwEZ+eB/ChX+LDTGtqAL0QQnihK/zKgrgRRYT8kvUTlJJs1dE3mf7F9TmhtxBCXGvye3o3oeLy1/n7UWXCs8B+KTxtmx1HCCG8nAS9m1Itb3yRyZaSS4AfQ+5dxF8k8AkhhAS9m1cBz+9+R+lB2ymQIXc/4rYTkRBCeBMJejezHw7wqy1vcvB8FUe/2NbkxN9CCOEtpCOLEEIIryElPSGEEF5Dgp4QQgivIUFPCCGE15CgJ4QQwmtI0BNCCOE13Aa9sLAQfH19r3VehBBCiHYlJT0hhBBeQ4KeEEIIryFBTwghhNeQoCeEEMJrSNATQgjhNSToCSGE8BoS9IQQXiKG0AUZTFqTQUJKTEdnRnQQn47OgBBCXAu63ywlbbQRgOjZS9Gcmk52dmv2mM64d9OI94PK7NVkLtnSJvkU7UuCXntLms/k/55IpEb9v2gbGY+t6NAsXVHEGCJnTGL4wBjCArRobHm3WDCdy+fonu18+do2rB2aSRf3L2bcpET69LDw5bOtvZldK8lEP5dO8q1RBBRtJHNBZvse7rE1PPFgDBo3q6wWM6biQ2RtyiR/R3775qODBHXXO/ynJ6AX0JrPydgYwv2UxbMnJeDdKKR6s51Fpo1tCHgAXcMxdFhursRI0BNrSH91MZNHxBEe5BDwALRaDD3iGD41jYSkDsukW5HjRhIfacD/YikFN0TAA5ImkjwkhvAgLaaidg54gKG30W3AA9Bo9YRGJ3P/vAwmzUtu97x0hLJNeymoVZZNuVvIam2cGmhUv8ullBxs5b7ENSMlvfY0dCnD47VAKdm5WpISDOCrJQAwdXTeGjESviyDKUm2kGzBdCyH7OwDFBWZAT2GgUOJGRxHvN/1FljG0KuHFgBref51eG2bMMRIGAAmzn7b/ocLD1VLOueyyExbQqVtRWwy4fdN4+4xcYRqtUSPf4rheVPZv6P983RNHVjB5sltV8sSHq5+V6pLKbmuvg+iORL0WmQo8/62kPs0O3k2/RX2NbutkZifJxMO1BzZzd4zI0nCAH4GDBFQVHxtcuwp/3nLmKQGvLryHLa/vJCCA87bVO7aQgGwM8J47TPYnIihhHdXFotPbO7YvLRA+C1qyau6kIJd7X20VELVe7T1XGFDwAM4lkVJRhYbLGt4IiUGDQZiRoxh/47d7Z2pG1gi4Ub1IcJUQknHZka0gAQ9T8U9zKqXHmZkmBaYwrwln7Bv2aGmtx8/h+G3KKW8L/+VCZFx1BCFP3q6DwU2NU7Sb81HTIimod0vNoWEOdNIvsWAvwawmik7sputK1ZTWdx2aRm/jIfGR6EDqMxh828WUtJcUC4udfNiDKFzZzJqRBwRDu2AdZWFHPlsM3sztjRuA3xwOemPJRJEKXtmTCe3OIbQBU9xz7AYQgOUTazVpXy7bTV71mU1pEtaypRlIwl3k4vIseuZO7bx6wXb72FzhpsEsROJ+XkqyQOMhAZo1YNaMBUfInvrWvK2uLRv2fMMFO/mlRkvUNdop6mMenMmSUEAZnLXL2TPhnwiV77P5P7axnkISGTKto8av16Zw/qpC9um5JoUT5h6Tc+ePuB+mzXHKE6JIRLw6eJYCT+fydsmEgnkb7qH9181oktN5+5JycR01yvvtdWCqWgf21e8QNkx97vXpMxn1AOj6N9Dj85+qc0UH97L3nUrXNKlMnrjTBICgOLdZMx4wf1O561j7vgoAIp23MO7K9XXE1KJ/9lEEmKMGAK0ysOF1ULJt1vYumgtNc1eLAej00mePIGE3gb8Hd66ulozqP9XljXVBhpD0Ox07h4RR6TtOuHpd8JE1ktT2b9L2ce40YlEBNnOw0zJt9vZvmpt4++yuCJp0/NAz3uX8M7fHlUDnpkjG5fxZHMBDyP9JiVjQCnlZR8ALHAJAD1do9yn6WL7EpkKIXU501fOYXSsGrQANHpC41NIe2a+EqDaJG0i8anJ9raJvSuuEPDcGT2HCRvXkDYhkUiXdkBdUBQJE+bw6KqZLscFog1K8MDCRVIZtWENaWMbAh6AJsBIQupSxqU5pLNXC3rKffWhJm0ZaS/N5/4hUYQGaLHWWqirtYBGiyEykXGz3bRvbXqDrCJ1OSKRpPGuezUS/uI0NeBZKNrxAns25ONYBeupNq2qtV8zC6aiHPfbRDR6hxRJgerTsZnqsmSiX8pg1owx9AtpuJGj0WKIHsPUha6fLyBiDP1WbeKJ2RNJiGwIeEoyPZEJE0l7YQ0xTu3EGykpUxe7Gtw+4AAYQmzB2YypqOH1+MdnMi5BeV/tH0eNlvCEVO6e7UlNRQyRz61n1m/SGB6rBDz75wPQ+enRqTt224klNo3h6zNIT0kmOkSPxqqktVobvhO/XDMff9d0eq16/cxUHk4haZ2yj8ggx/PQE56QykNPpnpwHsKVlPSuYOSTL7N0WhzBGsBSwu4VC1iw8QqVGQ8+xYhbAEx8u03toLClhAuzlRKCLiARcL3xjKR7V2XpEoOZPD0Rg8ZCWe52tq5bTWX1GBJ+9xSjI7XoooeSNBb272qDtON/QlKksliTt00J0C0xdD6T500kUgtYTOTt3sxnH2yg5pgR3YSfMHzaBBJCtPjHpjDusc28/2pDKVHnp979qi1E/n4m8d2Bc/nsfHcteRtL0U1/irS0RILQ0mdQKmzYqGz/6mxefrUhCzF//oj7b6FxW1VzUpfz8+nK+1FXvI/Nq9ZSkqvmbfRMJjyRSr8ALdGjphG5MouG+2kOeRuzSJqXjAEDt02aw/4dq+1r/ectY1KCHiXgPcu7K20l1N3sT9vNftuGY5cxfYHysKGUnjy73FeroROLibKmqlLHNjxMnP1+Y8PrvfUozyFmfIYuZlK8Xn2v32bv2xupC5hI0qL5jIoATWQ8MUCePXEy8b97inHKB4SyvF18/PYWSg7kQ8JEYn72COMSDOgCYhg3Yyb52WvtKctMZojWQ4ABA7itQjR0s/XINFHikOVL9WaKcrPI3rONgu05MHopU36j1A6E9R4JbHSzNxsj4S8uZ7L6Ptq/R7aSaEQi0QuXMqm/HredWCJSGf18OglBgKWU/ev/RNZG9fseMYaYRXO4P1aPLnosI9JWsHODQ9oQvRL0qi2E/m4mCRFaqC5k/9aNSo/phHTGPZNGfAAExQwllI2UIVpCSnpNimXGqo289HMl4FnOHuDP/zntygGPRJIeUG+m3+926Axwjkq151jXIHcDY4MJ6KIsGRKSidQqN80Ni9QvW/FucrcdUm/oBsIHtU3a0DFxainPxLc7HL99nkhl1HxbwCtk5++nsjNjAzXHAEqp276aPSv3qTcrLX0SJjmlDgpSb1gBMcT3gLqi3WQumE3exhwl/foDnKhWNvF3XzwGUggPUZbqzuR7FvCS5jPJFvCKtvGPGc82BDyAPWv5OFv930+vlkYd7FjN/u+VJ37NLckk2UooqcuZqlYTm7IzHQKeG9e451+oQb3W1aWcdVuSTyR+VJxyw7Xmk7/VYZW9RG4kPkEPlYfY/Pup7MzYSF0xcGwb2Ydt10+LzqHEFrpssT3gFe14lg0LVigBDyB3G/mLXiBLzY+udyKO3wzTyVK1+s9A6IPu8pxKrx7qYnE+BQ5rjj7+IO8uekEJeAB78jhb3cTFcTV9MQ8kKNeraNefGr5HNsU5+GgbrqdzJ5ZE+j1jC3iF7Pz99IaAB1C8m/zXcuzfiaAeOAntoZZcA2JIiNRSV7yP9U/OIMs2RCg3k7x8s7JNZy1dPDwl0UCCnjuRP+alTat5fIQBLVCR8xYL7lvMuuZqNG2mp3NbBICJ3M1rHVZUUFevLPkb3N3AA+zVJQCVuW5umptKuOD2oFebdgwxUbYvbyH5Leytp/vNJId2qyXkuSslZm8j/4yyqPENcFoVZnAYN1Wdw+bfvdBkG0XlhcImchFDqBqVTGVfeZBrI5HTxxKtBayF7H1lhdv2nTBDQ5vWpUZrS8n/R5Z64zIS/+BEpcSrBtLK3LWsX9JcSQJCbT3/ak2UtXvPv1TCQ9VFt50ujBj+6ylGqSX+ks8yOerwPgR1dXifrKXsWTG3UScng20MnNVMpe18khZzd5LyutvPJAA55B1XA6ZG61w1etykfmb1GKLdJB07mEj1I1Xy3TY3basOImIxqNtWVzY3DnEiwyfGKdWOZ/ax/SV3nXnGEKp2nKLM5XpOT+fOaKUGo2jPavffif4G1IoZrJedV3UNdPlOPPMsJpfvhP39uGhu4n4gmiPVm67unMVrS6YwKBiU9rsMFr64i9MeJW74wli/3+fS5XsLpgtzIAj7WD2n9poHw+1fBKpz2Lqo+Zumk6tOm0iYw5e3ZdUkE0lKUNtGirPYv9Fd5xaAHOos7o/d0LZjIW/znxq3JTp0vjCVNHFOqeEEA2Dm7HdNtFU5ikjjdrUzSc2RXeS5BpyEicT8LI1x8co2dd9ncdTdfg48y/6895kcr8UwOI0pfY2Ea6HyyEbevOL1NxJhHz5Q6lB12k4crqNTp4uIRPxHjWHExLHEq+2NdQXb2Pp75+DU1SHolXy2mlw3N3LTkgdx7SdkeDBRbYsrJfetpq+JrZ2skV35lDyejMEPuoakAM5tZ0GjYpTSsjWf3PVXeO/tVbdX+JyMH0mM+p3IP9BUh5eG743pjOO+jMSPUgNm7SG+WOlynIhEDJOmMWGCuo0ln7y3nfcbZH8ubOI7ARydfY/7z6TwiAQ9R4mP8tqzUxgUqPx7YstS0l70pPSgeiyFhO4AJr7cvLrR6spqC6B1P1YvymCvRiv54g33ASgl3P0T4tWmTWkYKN90SaoJYxtuDkXfZjbzlJ2CwX5gx9cHY7Blungfe9e7CZrxBnvVa1Pj2HS3GtXOAM5tOk36STxqgQb/2GnMendawzqt1qnEXHcmi83L1tKUog27KPrviURqjIR3V6pK35znSc/AifaSQmVpXvObtgWHjj9BSXOYu22Om40slOVu4b1GPRsTCe2uPp3UHmL/75upsnUyhn591U9X0VfNzpDT0BnFtVT9FabKNPCDgG6uXVkmEn+rkq7myF6nkqk7ukiDWops/nMSNEINpBRSsLmJB7npvdVgbqHkuGNJMI0Y24dLG8P9777fsEqjderAg6WUrPXPku+Ubw++E6LVJOg5yvk7jyzV2kt6fVJe4N/+rzBr0XselPRSGT0+Bh1gPXOIfOsYgly6zutQg56bsXr2ga7NPbX2tQU35yBw1Wmbmp7DE/Y2KTNlx5v5ckY4VD86PhU7TOHUVNAM6mtU25ia7nwR2VMtbZ4r9WislL1aEZQg57hS7WFn+v4Q2Z+/Tf7G5ksP/kNjlQ5Oquriw551hb/G01c1NxNLXbWJkvwDZP1zg3O7pt3QhjbTkzktKJU2lIaa7tIPYHQYNO/6HuZQUmqGHno03aOUqmPbqukTGNgdoJQv375yW7Snn5Mw22DGalMTbZ9G+g2LswdQp8/lgw6zLWm06PycU1prLVyozCf/wF6yN6vtoY4cPhclx69QXSuumgQ9V5+8wiMnSnlp1SzGRGrpOe5JNmyIYknaqmYHo+vmTWSgWjWh6TGStAUjm9nadayew0DXM4VNPLUa6RejtgVWF5K/qy3SNmjxB8HeGmzC1Mx9Wzd9sFqyMpH/mcNTsUNHjoL/cx80w22N+uVNVQE2tK142onFYKuqq87hrdSFVz2oWJO2nKkpMfhjJu+Imfj+RgxDUolP2ta4ytRVX1ubzjXuxFJ7iHcnz21ZderYKAxqxCw63LKp0myB9kJ5Mx+QpHTi1dKR6fi+Ru9hSbkyGxBd9HTFFvQamhEqczd70OPY885OOl91wdREdf/4OSTfoi5Xl1Ls+H2z17iYyV33IHta0EIBOHwuTBQd8KCqXlwV6cjiTtF7LHhwDn/+zIQFCLz1x7z0wQvMiGsqQRqjRkW1oODkOlav4Wm6yequoTNJUL9spm93O3whW5H2gMneEO4fNfgq5wR17q3nJCKV4bfb2v1yyHZo47xyR46Gzhc1pXlNPPXG2quD6uqqPMqtY7Vw4w4qHrIPd1DG4e1cnkW+FdBEMWJ6+hWTB0UY1M+Khbqr6cQyOp3kl9Yx6aWlhA+9YmYbOrGcOdny9kP7w4kJ0/GWJlb4+CU2scZI+JRke7tf3qZtjTcpKFVKz2rtCID/gjRu6w5U57B9lQeRJSLeXttw9rSbY3gsmaS05IbvyQWTc2CstTTU4F/FbOz2EnkzNRui9SToNekY655MZcE/DlFhBW3YUB7/2xu8lNp4mKz/f00k3g/ARNbKe8iY2MTfS1n2dryg7mMadpASQ1hzA11JJn6GenOoPcSeV7e1TdriA5ScU5e7JzK62YmGY9DEOvxbbfuCG4m5x91NLZn436UrM2pgJnur48wlHnTkcOhtV3GmqRtbQ69VT0uqZ8vUdyAgij5XDBhupC5n+iO2Xppqj8Ti1ez/Stmvf/8URrvtXt9AZ5tJAC0+ES08ftJ8Js1LY3h8FNHxI5nymwx7G6X77R06A51peemh4eGklFMtuhFXU6fe+MP7Tmw8YB3HMY1Qmb3ZfbvfxhIqANDTfQQwdDETRhvRYCb3X+47ejQytKG3JFYP28kM4YQ6vZBM9MrFjHIcYmBxeRRz6G0aMbDlk3bbq3mbrNkQbUGC3hXsW/UEj/x2FycsgDacMYvWsmHRWHraNoiYyd1DldJM4x6bLnZVYBsq1MVxmqdbjfZqkTqLcwDRjJ/D6PVL1bFOZnI3vOA8b2dr0rKb7AOFajDSEjl+GemvLifhkRSCxo4haGwK0XOXMnrVetK3LmPEAIekW3OUawKEj1rMuNkT0UUAxOA/dT7j7MdVSkN7naZd86Ajh0Nvu7ImSxj5lKl1Vf4DJpE8NfmKpe3Kz2yznBgYvnAdyY/Y8o3SmzElnYQX15H27jriXRPfv5Qp0xOV6r5K51KGaZNt7JWehElLG8+04aCsxPboYyRp4RwMCS2Yy/SueKIdO0T4RdG3uSDrMBOLc6cLTzg8nFSaONuitJs5elL9gESMYcpLDeepGZpG/Etv8nN1TGNd0TbebHKIh+091mMYMJNx88cQqVFnummyx3DTuujVh82EkYTPXc7kN9fQz2F9UbHtoSiOUQuUbTXj5zD6NXUweuUhjpYrmzTq/LVrH/nqQ2ToiMVMeibd4b01ohuVQvSC5Uxa/z6T5rnmrGFu1LpzhdKe146kTc8Dpz9cxkNFJ9W5N/X0T13CKk0JDy07hOGxMcRooakem84KMVVDZIDzWL3InrYAqCd+6nLiUy1KN3/HHl+WUrLefLbR0IDWpAWoy1jC5u4ZTBqq9G4Likxk9NRERrtuaM2nxLEgWbyWj/ckEzk+Cp3GQHzKfOJT5rukMXN0+2q2v+zS48+DjhwNnVhKnY/rZAtffj6J+PFR6LRGhj+yjOGPOK4vZOfEGTiF1R2r2XmX+msSAVEMnzqf4VNd8g1gLXSu/hw6n8mPjSTcNhDfdbq27Ez2HxmpzK3ZI5l75iayOaOJktXb28gdMZOEIAjqn8L0F1OcVlfmriWzqWEPZ8zUgENQNVN50v2m4FiVejVVZg0z/TRdxdyUUvL/sYuC/5pItBYM8Y3PE6Dy2BbeeXF1Mx2AtnDWpAz1iRyhTLvV9Ji/Jhwo5OyMRII0SjCau22xw8pCp+7/lVsOUDB4ItFaLZFjFzN3rMO21flsX7GX8IVKO0fj8X7b2P/uGGIeScSg0RM9Io3oEWm4U1Dv8oJDzUbrqmDFlUhJz1OHXufJ+5ayPsdExTdvsXLZIUiaz+gh6i8TOM2+0hRl7j3A4Xf1HOZktDoELD8laNVVmzj62QYyZ09n/wbXL1lr0tqUUvK7qfx1zTZyC0zUuAyZqqs2UZC7m82r/oTrHmpWzlDSFZntVVkA1lozRbnb2DDvQba/7KZ04dBg31Q70ZU7sdjysIQNm7IoqnS4tqBcj2ozjSfhKKVkyVReXrObvDPO+cZqoaa8kNxdG8icN6PhZjh0PpP/S515psmB+KUUbctRS5Faou9KJ7Kpqsvijex5ejV7jjW+3koPv2Zm3NzwBh/lmZSqZauZo1tWNzscwH4dK0tb/sseDlWjFeXN/6aIWwdWsHnBanbmFmJyPE+LMv/nzjWzyXzSzQToLkrONFwPU24m/2jJGFaA4tV8vCmHEocPg9Vipqwgh53rVjs/FGWvYPPKLeSVm+3NclaLmaKDG8l8cjZHD0TRVb0mddVuHmo2LmT9vNXsySt1PmccvksrZ7P5ZZd0DjUbpgIZqtCeOvWPS/7B9cWwsBDOnbtAfb3r44hoe/OZtG0i0YDpwAus/11LqqBak1YIIbyPlPQ6Wmr41be5tCatEEJ4IQl6HcxxRpGWtrm0Jq0QQngjCXodzD5TxFW0ubQmrRBCeCMJeh3KYaaI4kMt/MHQ1qQVQgjvJB1ZhBBCeA0p6QkhhPAaEvSEEEJ4DQl6QgghvIYEPSGEEF7Dx3qpcWeVygsXsNRd5PLly26S3JwCAvyprfWucxZCCG8jJT0hhBBeQ4KeEEIIryFBTwghhNeQoCeEECLsCngAACAASURBVMJrSNATQgjhNSToCSGE8Bo+HZ0BIbxbOIYnFzLmzoFEdNUqX8ii91nx6HKPUneZn0ifu6MwdPVVnmALv2TvwwXtmF8hbmwS9MR1IpjoD0YTqQdL3iccmF3W0Rm6BsIJX/5Xfpaot79SV2uBWotHqf0zJnDb4AD1PyuW2stQY22HfApx85CgJ64PQwwEqPf+ylPeEPCAh58mRQ14Fw6/ycYX13DB099F/MVtxKsBz5z3OXnPn8Zyup3yKcRNRIKeuD4MCyYIgGrMxzo4L9eIYWBvAgBq8/joyTVcaEHaLoNC6QJQW8Cx2afxrGwohJCOLOK60KVPN/UJrIrqtzo4M9dIWLBatC0voLCFaf1D1GrNsgrMbZorIW5uEvTEdSEoQr2Jm857zU3cR3P1aTu3Iq0Q3kyqN73dlERue6Iv/kD5h+9weJn7zUJef4gBUQBlHL7zE8obbaGhy8If0efOKLrpfe039MuWempMFdQQQLeu5zl6bxbnG6UNJcCgLFlKznpYVeeL8a0UYo3AiSz2/qKo8SZDYolfMQgDcPbf73DUXYfI/gF0ezSR3gND0es1ylOgtR7z6UKKNn1D+TvSMUSIm4kEPW/3VgVmNejpw4KBCjcbBeLXVV00V1LjunpcJH3nJxNh64RorcdSC2h90Wp90RuN6AFKT1DpLg/3hhHkpyx63okljMBQNU2xyf0m9nbCKqq+bry68y/iiZ/en25a5f9LtfVcojM+fr7oo/oyYG4UZ2N3cPTFix7mSQhxvZOg5/XOU3MB6ApdggNxH/SC6GILaGUVzkHvjmgGLLqNEC1gLuXo+izO/rPh56o63xfLgIWDMGjgYokJtz/cNKhbQyeWIx5m+6Fg9BqAeirzq91uYm8nrK3A/KHLyp8lkjCjL3rAcjqPb/54hJqv1HXjetJ3/jAi9L6E3R3P6Re/9JoqVyFudhL0vF4VVWet0FUDhm74Q+OS3JRQgtTqStPxUocVXTDOtQW8Ar6a/2WjoHXZqrVXdVaechdQwb9XN2XBep6qdzzM9i2BSumRSmpz3W/i2E7oVMIcEkk/NeBdKvySLx8u4JLj+p2nOTGqgoi7g8EvgC6gBL2QWex5IJ5AD7NYdfh/GX3gYBNrk9CpJcwLZ/M93KONLz5qWvMZ99dUCOGeBD1BzdkaiA0EfZDboKcdHIY/ABWUfeDwo8NPJNLHCHCRU+80DniAQynOfRUj+BIU3kVZLKtwX/3phj1Qms9T6TauBOOvVslePOvcihg0YxBhWsBaxrH/cQl4tv0HNwz6bvufFQ6n66zZJPYAMJP/xaYWpdY+MZieRoBqyg9UXXUu/GKG8cDtPdBW5fPh+3mU/+CyQVAMY++Jx6it4vBHu8l2bcjtZCDp/lEMCKzn3Nef8kFeSwZdCNExJOgJLPkVWO4IRIs/fg8BTqWtAEIGKGWbS8eOc9YhwBgGG5UPkKmA0+vc79u/l1ouslZS41rFCDi2zTVZ/dmIc6BsVDIFl8HuDqWhntH0jFfSXsw7TLlrwBwcSLdHkuk3SNnm0rEC7C2G5a8w+jWPMuiW4bl/8rOEYNBq0WkAq5kjH/wP/+dB6bbLC2NJSApQ2kk1gLWa4n/vpeiqh3eEkJDQA20nICiG2/p/x4eH6522MMbdilEHEMiAQb3J3n3SeRfRtzIgCMCX7vH9iMzLwk13IiGuKxL0BORWYgYMdKFLuMu6+6LpYQC4SOknjre0ngTfotRb1pxsanB0IIbeDePJ3Jbi7G1zTVd/NtbN3rHGXN64LygA48JROoRWU/O9w+tpPQlRF7X9hzPUMRDbAorKUnqEb37bdtOc+HQJROentf9fZ67gQq1nrYWd/X3R+vmq/1mxmGuoq5WepUK0lAQ9AQdNVJvBoNfg3zMAaOgYEvQf0WrPy+8o+l+HNPd2w18NEDUlTQSeKX3VgNlMKa5/N7VtrqnqTzfsvT2tmE+4q97zJSxBLT66tBPaS55AZ60vWsdkViuW2hrMx05z+tPvOP9P55JPa51d+AArAJ9h0+k/fSrjb+3N0ClP42N64IqlvZq529kLdL4jGMMvbmdA/1D6/Gw0nSq2X2Vpr5zc3DNEqtWbXx5pfK6lh76jtKdavfn1yca7KPiOw/E9lOrNvKNSyhM3BAl6AqhQenDqoUs3f+xB7754+sR3Aaop2HjMue2rq6/64anG/D1u+BKSEq22BYK5xH0pLsjeiaWp6k837O2E56n63M36GYPo3VNdvlDlVP3ZpZta8jQf58v7ctxXjTaljTqyXPp8Pd9+bqLrmwsZatDTf9hU/u+dNz3a5+VPKyj/9FNOvDeePoYAjHcEU/TW1XVmqc3/nLeb60NTmc+ud5rZ4AcT2Vs3k31VRxeiY8iMLAIA81llLJq2W5D6ShfCpscSBNR89UWLSxM+i4YTG2WrK7xIrZuCAkCXbmqVnUtwao69tOauE0vPYKIfiqaL7X9ztVPV6+VL10uV4PtcUJ8tAoKjWpi2iotqragyzEQI4Skp6QkAakqqYHAX6BqIP2BZkkzfnhq4cJzDf2yuJBGA/haXl342iB/dG+rw4bJiddvo1w2dfdB7tceTJmv1Xdyv6BlA2B/uILLhl3qoqXCuem3oqRpM0B1Q86mHB4VWd2QRQnQ8KekJxTF1zkt9EN2euE0JWpYyDr+YQ427vhxvlVGpFppC7khE3x/o6Yv/kju4fXYsek095XmlaiCrodZtm1U19bZ+HKFGDOPU5f5d0D5kxPDH24j/94+JXeScymJWZ0jRGwmboZQUO/8smr5/nkC/KF8wnaZU3e+lGue2Ksve02qHmm7ELrkD42OBdLZVhfb0xechI2EZd5Dw4R32Di9CiJuHlPSE4p1z1MwFPaH0nRIKVFOw7hPKmywJneZ0djXG2wOga18Gv9rXYV095z/9lMMX4hkVD9Q2VYqrx3S8CoyB4NeT+N8+BL9tvJXr8LCaT0upGdwXfwKI/EUKkb9oWHfZdJzcRWWEr1EimeWCy2wtH+RxbGxPBt8eSGe9kdiHjcQ+7CZr1lLpmCHETUhKekJloso2IM1aRcG6jyj6Z/Mpap76iK8+KcNsi2hWKzVlRRzNeJ9vFlfQJVTtxmKpb7Lq0rL4E3K/qqDGcQOrFYv5POVfH+GbV9/n6Isuid7KIfefxzGZGwaOXzafp/jDXez/cQ7mI7YJr913sql5agf7M3I4VVqFxbGJz1pPTVkpBR9+yoHZn9LEjJ5CiBtYp9hbB7vOw0BAgD+1tRe5fLnt56K4XnnjOYuONfDvexgfCRS9z4pH3f0ERNPsv3pR+CV7Hy5ol/wJcTOSkp4QHeRshdrw2D2csBamralQq23V+VKFEJ6RoCdEBzmbe1IZEalP4j+Wz0AX4XnamuwyLgLo+9IvI7ShM44QollSvanyxnMWHW0YA//634yPVueFsVqoswBF7/PnxzOukLYLIf87ngF91HGOVisWy2U4+RUHHpMuOEI0RUp6QnSYz/n2l4/z+s48Si5YuKTRovPTOs3P2bSLlP/ifb74sADThXouazRo/XzR+muunFQILyYlPZU3nrMQQngbKekJIYTwGhL0hBBCeA0JekIIIbyGBD0hhBBeQ4KeEEIIr+Gj8fFt9GJQ165YL0N9fdv+cvT1zBvPWQghvI2U9IQQQngNCXpCCCG8hgQ9IYQQXkOCnhBCCK8hQU8IIYTXkKAnhBDCa/h0dAbEdeDXIxgxIQSAS+YLnD/0HSdWl1B/2oO089Yxd3wUANZqE0WHd/PxmrVUFrdjfoUQ4ipJSU+A5SL1tfXUW8FH35WQ5Nu5LSMeP09+mLTeQl2thToraAIMRA9JJf2l5YS34AdRhRDiWunUPy650U8LhYWFcO7cBa8aqO2N5+yO7+IRDL4nBB/g3O5tHH7e0+thJGjBMtLGRqEDSvYs5K0/5LRjToUQouWkpCec1L/wGcfyld8U7N6vVwtSllL50hI+/l75L/zWiW2fOSGEaCUJeqKRi+aLykJXPX4tSlmKqcqspjUQ2sb5EkKI1pKgJ4QQwmtI0BNCCOE1JOgJIYTwGhL0RCOXaq1XnbbuoqUNcyKEEG1Lgp5opN5UoyzoA/H3ZKyeg8pzakeWAANhMlZPCHGdkaAnGvvXac5YAULovbQXvi0JfG/nkG8FiGLEkjkESeATQlxHZHC6yhvPuTmdp/dnwLRb6aoFuEx9rRUKv+GL2aeumFaTtoypU5MJ1Sr/19Va4NR2XnlydbvmWQghrkRKesKty/nnOFdaxSUrQGd8/Xzx9fPs42I9XsiJM2asatOgzk+Lrotvu+VVCCE8JRNOi8Z6didq8VB66eHiiW/I+9tJqvdf9ixtRCqjF6aSEAA1BbvZ+trblBzIb9/8CiGEhyToicYmxWDUA5Rz8rcnqPbk1xZsHhjLwACAQj577gVK5NcWhBDXEaneFI3pfZWnIXMVNS0JeAABWjQA1SbOSsATQlxnJOgJIYTwGhL0hBBCeA0JekIIIbyGBD0hhBBeQ4KeaEzTmrTaNsuGEEK0NQl6opHAqK7KgqWeSy1KaSQ6yqCmtVDXxvkSQojWkqAnnPj+KpFb+imzp1Tnn8bzSdmMBD22mLtjlZKe6fg+Ktslh0IIcfVkcLqA/5fE7ff0AK0vvraqzQsn+G511ZXTPrGGWWOiQKtFZ0tbmcPONdvaK7dCCHHVJOgJ0HbB108p3V2qreLCN0f4fnUJ9Z4MTPfVovNTSnfWWjPFedvZuWYtlTIwXQhxHZJfWVB54zkLIYS3kTY9IYQQXkOCnhBCCK8hQU8IIYTXkKAnhBDCa0jvTdXZs+UdnQUhhBDtTEp6QgghvIYEPSGEEF5Dgp4QQgivIUFPCCGE15CgJ4QQwmtI0BNCCOE1JOgJIYTwGhL0hBBCeA0JekIIIbyGBD0hhBBeQ4KeEEIIryFBz42eP/8TH328lkX3hnd0VoQQQrQhCXquEp9k+azBBAfGMuW/V7P2P2M7OkdCCCHaiAQ9VzmrSFv0Fl9XABoDt89azb9f/DE9OzpfQgghWk0TEtrzd64vBgT4c/FiHZcvX+6IPHW8kwd57/9O0T0pifhgP4JuGcp/jO7KmawD5Fd2dOaEEEJcLQl6Tak8wb53DnJp4B0kRvrhH9yfsffcjn/hB3x+sqMzJ4QQ4mpI0GuWia+2vcWRLreTPDAU/4BQEu4eT+yF/ew4ZO7ozAkhhGghCXoeKDzwAbuLupKU3J8Q/0D6jLyXuwxn+XzfCao6OnNCCCE8Jh1ZPHT6w1WkPf46X1cB6OmfupBVi+I6OltCCCFaQIKep+6cxWsrH2ZQIICZIxuX8+SLhzo6V0IIIVrAp6MzcCPo/58vsPrRoQRrAUsJu1csYMHGko7OlhBCiBaSoNescKa8+BLzx4WjBag4xPplT7Dyk47OlxBCiKshQa8pkWNZ9Ie5TLlVD0DVd+/x4m9Wsa2og/MlhBDiqknQc+fOWby2ZAqDggEsnN75CrMWvcfpjs6XEEKIVpGg5yrxSTa8+GP6awGriS/+upiZfzvW0bkSQgjRBqT3pqucVSx85Ssqqo7x1m/nSMATQoibSKf+cck/uL4YFhbCuXMXqK+v74g8CSGEEO1CSnpCCCG8hgQ9IYQQXkOCnhBCCK8hQU8IIYTXkKAnhBDCa0jQE0II4TUk6AkhhPAaEvSEEEJ4DQl6QgghvIYEPSGEEF5Dgp4qLCwEX1/fjs6GEEKIdiRBTwghhNeQoCeEEMJrSNATQgjhNSToCSGE8BoS9IQQQngNCXpCCCG8hk9HZ0Bcn/zTlnLnxERiuuvRaIDqHDakLqSsozPWHB9ffj05gju71vHJv0v5Y2lHZ+gmMW8dc8dHAWCtNlF0eDcfr1lLZXEH50uIqyAlPdGI/7x1/Hz6SPqFKAHPWmuhzmzB2k7H+/Ws2zi8IpnD/9WDB1qxn1nT4kgf1oO+A6JIfzyKWR6mWz4vWTn+wlCGteL4zvT8c5my36yf6tpsrx2i3kJdrYU6K2gCDEQPSSX9peWER3R0xoRoOSnpCWdJi3lgfBQ6oK54H++8+Cxlx9rzgDoGhGkAqCupZmsr9tSrm0NwCfCll0ep9PQKUZaqSsx83orjO+kZQC8/ACunCuvaaq8d4+XZvPIygJGgBctIGxuFrnsio6Yn8tYfcjo6d0K0iJT0hLNRMYQDUErWn9s74AE+enp1UxbLTptbtatXdp6i/BJwuZ7juwp52pNE9uAEZ0tqW3V8JzF6lFhaxalDbbfbjlVK5UtL+Ph75b/wWyd2bHaEuApS0hNODGEGZaG6lKLsa3DAQQGEAlDDqe9bt6tTecWM+nULG5rswamGspOtO76j9Ei9slBVw1fn226/Ha8UU5UZ0ENXA6FwfbfzCuFCSnrCiUZzbY/3QG89OoBL1RzOv7bHBofg1KbH78zgcLWq1VRNZlvtVgjRalLSE22oM2l3G0kbGkwvgx86H4DL1NVepOy7Eja8W0FmlXOKYb3UoFNm5hM6kzYhktnDQwgJ1ChpTRc4sON7ZmY5d6MZEKln9pgIht0aSKCfGqkv1XJ853fM2lHHKQ/zaw9OZWY+aeHZ9jL68+v/iGbYLf4E6mzPj5epq60Hde7yqjM1zolujSBrVi8CMfPJnw4x83RnHhoRRvqYcPoa1ESX6jiVc4KMtyrZesl9vh8aEUb6naH0CvFDObRyrb76tJA/flzHYZcU6Wk/4tdD/KDoOPesrOCUn47lD/flrlg9ger7VHW6mI3/W8wfy1t4IYS4gUjQE22iV+9gXnm0D30DXSsPOqPz86dXQl9mW2vIfN2x3cyPnmonkvKTtaTNS+CeSF/ntIbu3PnTfqwtOcTMooZ0v/7POIYFuhzKx4++E2J55vC3Dts2R08vpW61hZ1YOjNryq3MGhaklFJtgY7O6Pw06PxsHWrcdGLR+6AFoJ6yMzpWzYtzOWfAR0evIf35Ld+wdYNLO6OfP2vnDuBOtfMPdfXUXQZ0vugM3Rn2H93558BjPLn6nFMQ7xuqNlxeskJ8BHvTexHi9FZ1JrBnL9Ln+lD5TCGveHwthLixSNATrdYrPoJ3Z/QiEOByLcf3niBzt5l3qgA/DWnx3bjnjgi6FrncwH386RUIUAcx/bgnRANVZWz910kyDl+mV1IvVj0cQSB6Bt+hg381BBBLpZnD35xix24zr5guMyC5N//8aQ90+NPzVsCToBejp5f6DTjrmrdmpKfFMXeIP2Cl/OAx/mdTJe/Ykvt0Zu70eGb9yA+3nVi665RAWWWh5+MDGRapgeoKPtpcyJqD9VQF+rN8wUASAyGwX3fSqW2oHvXxI3PhQIZ1A2rP8dHrx/nj4ctKqdbHl1//oj/p8X7o+kQxO+Ecn+TaEnYmSIm0VNUEkTnDSAiXKT98nL//6xyZtZ2Z+9M4ZiX5Q0B3hsYX8kpe0+dfd9Hi8bUS4nojQU846aJT745lJZ51UAjpzisPqwGvuowNGSd4zrF6rNbKhoMVbDhY0TitvROLjpAQqDt9gj9mlLFBrdI7lV1B3qQIhgVCoMEPsAW9Wmb+yTmaHM6q5NRPe9DX4zOFXrcEKPnGzGkP2/N6JUXZA96pHV+Tvr3euSr10mV0OnuEadSJJb1HF2UhsAfDAhufM1U17DhWR2KSDnx8CLKn7Mzzs+OUgFd3jndWHuNpx+t8qZ4/vlPKPfF96IWOwBDHo+oIVGuRA+ONBGLl+PavmbXDlvfLZGSZmJbkTyA6Qp3SNlZ5zgwYIMBAWASUySB1cQORjizCTpOylOGxWsBCwZHdHqX5deot9NUBmPnkVZeAdwX2TiwA1aVkOt78XVSdv8JYt/gAwgCop+qcZ8d/qKcaCWrNHDrtSQpfnplgVPJcUshzrgFP3aavQa16LDc36sQSaityAVQVk+HmnPt2V69KdR3H1dd6JfXigT4awMrxncedA55Nbz/1IQJw2mcXQh2qgquyDzkEPFu2bbeCWspK3Ozb0ds55FsBohixZA5BMkhd3ECkpOftnljDrDFRoNGi0wJWCyUH32BrhgeDjn26c+et6sDyvEKe86gdrYG9EwtWDm8rJMM14NmrP+FCefPVj8Nu8beX2k597cnRfYkLV9vSyqt5x5MkkcHEhaj5/bysiY4vAQ3tlKeqXdZ1plegrXtsHTmbT5HpJsg/vTqr0RjDWaPUYFtdxtZdl51X+nTmoWQjs+5Xt6kr45NPHdZ383F6uHjjX7WNgnXD9avh9HduT6xB8Wq2bzAydWoyobekkL4uhbpaC5zazitPrr5CYiE6lgQ9b+erRefXUPqwXjRTecHs2ZRjdxjU6sR6Dn9l9rDHpE1DJxZMp3njMzebtGAM39CQAGXhfDVfNVFadNYQnKpKPMv7A0MM6pi+Sg7tb2KjpCB1Jph6Tp2sd1npT6g6EJ/Tp8jweBxkNxJ7q4t+ocxaFtwwxVpnDTqdQ4VNbSWfbDjBHx2vwS0NJcBTn59q/HCBw/Ur96xDj/V4ISfOxGGIUKaq0/lpoYvvlRMK0cEk6Hm7lTPIWAkkTCQ6NY0JQ4z0GzsTXX0hm69Q2kvv6a8ueVq6ctBNby/Fnco967ak5fkYPodS21kzGzw5frxerQ71fJqwuB5qD8iqao43EVifGRaqlqrcXBOH2V9OfXfO896it/qreUUJcn6OgymVnqMWUwVf7S8jM6uWz13y1lCNfI4DH7qUEgGn62eqvfJUcBGpjF6YSkIA1BTsZutrb1NyoAMGWQpxFSToCUXuNgpyv+LjP69nwi1aogdNBDyfV7HOo9KVgzi9WiIy8322uxuxQ5C54hi6hlLbKQ+nMmuozqv1eCaWIJ0abEy17gecR/ZgfIy6TVU1h1yvSW9/taTY9Dm7Fe6n5rWOz9flkt5Mz0p37NXIJeebGPfXwuv3wFgGBgAU8tlzL1AiHVnEDUQ6sggHtimmsE8x5SldCx+f0qLU6rQmO5E4TERdXtt8qcheaqvj1PeeBZMBXW3j1mo57lEnlivRsOqnvbF3fDxfx0cuW9jPuaXHrLed02VwrTG9ooZq5CavY0uvX4AWDUC1ibMS8MQNRoKeuGpltbaWvyAG3NWyj9LgcLVqtKlOJC2ZiNpoKwl5HhT6BqtdO2rrWj53pMGPdKcXNPw6fQD3hDu8dMnaqJ0wrod6zi2d/eVkDUpnTT9iBrRwnjiHzkBNXcdePf0aOrG0sBQpxI1Ggp64als/PqPe2DX0vf9HbJ3gz51qAQo/DWlDgsmc+yO2jnVN6UeIGtCa7ERyVRNR+9DVoHykBxh0zJ3Um71PGV0ClKKsUo2Ogd0YFqN+DXw6c09Pf56ZFMHWRQns/amfU5rPC9WgERjOQ+OVny4aEBlE5sJBpP/IH86Xcljt7l9V4dpO6EdPdS7vK5ZcXZ02cUgdohBy10C2TtLzkMMQhGFhOuZOiGDrosGNr7UH19E+dON8NTfND0II0QRp0xNX73wFz73fjVX3B6NDR9/xA1k7vvFmx791ecGhE8vZEvedSFo0EfV3VZTf350QfBkwZQiHpzisq3LfL/Odo+dJ/1EoOvTc+ashjeaqBKgqdP5/68fFzEq+lb46DX0nDOajCQ4rq8vY8JcybpljBOBClct5eVDialo9z20+xT/TexHSWUffu+J4/i54vtF2lznuMlnKla/jVXQCEuIGJiU90Sqf7DrOz/5yjM9P1lBX59AedKmeqtOlfLThKxbucknk0ImlqZlQnCeivoKiUtZsL6OqrqHtq662hlO5J3jlb6VuO52c+uwEf3RK45Du8Cm2bsjlybdcxgaeP8+sjO/IOesQ0OpqOP75ERY+e4LnynX2QeB1lS5tY/YSVx2nrqIN8VReMaOeyWVr7vnGea4yc/zgcV5Zmc0De53T2TsDna9pohTX8k5AQtzIOvWPS/7B9cWwsBDOnbtAfX2LW81vWN54zu6EvriJtAQ9VOewIXWh/FaaaGzBeuaONcpnRNyQpKQnnJSdMSkL6ryKQjgzEh2lNk5aLHg2wlGI64cEPeHs//JR+mJEMep3iwmK7eD8iOuIkaDHFnN3rDKDj+n4Pio7OEdCtJR0ZBHOsjPZm53IlCQDusgxpK8ao8yrWJnDW48swdTR+RPXnm1+Vq0W2/h8KnPYuWZbh2ZLiKshJT3hopSSJXPJ3JRFQbkZq1WZV1GnVwckC++jzs+q04C11kzRwY1kzlsoM7GIG5J0ZFF54zkLIYS3kZKeEEIIryFBTwghhNeQoCeEEMJrSNATQgjhNWTIgurs2fKOzoIQQoh2JiU9IYQQXkOCnhBCCK8hQU8IIYTXkKAnhBDCa0jQE0II4TUk6AkhhPAaEvSEEOKKYghdkMGkNRkkpMR0dGZEK0jQu4Z6LlxL9sHdZB98g2VDOzo3QghP6X6zlLSxcURHxzF69lKSklq7x3TGvfsRc7d9RPqylLbIovCQDE6/ZgbzqxHKL7JavtnFXw54kiaR+FeXMy7S9n8hOyfOIK+dctgmIsYQOWMSwwfGEBagRWP7PSKLBdO5fI7u2c6Xr23D2qGZdDF0JsOnjSSmt56SjQ+yc31HZ8gTyUQ/l07yrVEEFG0kc0Fm+x7usTU88WCM25+XslrMmIoPkbUpk/wd+e2bjw4S1F3v8J+egF5Adit2ODaGcD9l8ezJLa3YkWgpKeldKylTSI4EMJG16e+c9iRNWjojIh1fMGC4bh8KjQQ9sYb0VxczeUQc4UEOAQ9Aq8XQI47hU9NIaPVTctvSjR1JcqwRg9ZE0Q0R8ICkiSQPiSE8SIupqJ0DHmDobWzy9xQ1Wj2h0cncPy+DSfOS2z0vHaFs014KapVlU+4WslobpwYaMQBQSsnBVu5LtIiU9K6RGSmDCQYo+or1Hn1hkkkaH4c/UJKdgy4pEQNadF3bNZtXyUj4sgymJBnU/y2YjuWQnX2AoiIzoMcwcCgxVoacrQAAHENJREFUg+OI9yuloDVPyO0gsqdRWThXSknHZsVzQ4yEAWDi7Lftf7jwULWkcy6LzLQlVNpWxCYTft807h4TR6hWS/T4pxieN5X9O9o/T9fUgRVsnryizXYXHq5+V6pLKbnOvg83Owl6LTKUeX9byH2anTyb/gr7PE0W+SRjf6QF4Mhnf+cLT9I8lk5yD6D2EPv/XMLt65SgF9TDCJReVe7bi/+8ZUxSA15deQ7bX15IgUv1beWuLRQAOyOM1z6DzUqlVw9lqabwq4ab+XUu/Ba15FVdSMGu9j5aKqHqPdp6rtD5Gh3LoiQjiw2WNTyREoMGAzEjxrB/x+72ztQNLJFwo/oQYSq5Th60hvLbjUsYVfwWc558nSMdnZ12JEHPU3EPs+qlhxkZpgWmMG/JJ+xbdsijpLfPGkp/DVBziF3LPfmIT2T46Bh0QMnBNygqjqJvNUQGQNeQkcDGRin6rfmICdFA0TYyHlsBsSkkzJlG8i0G/DWA1UzZkd1sXbGaymLntIZlm5iepIfqHDakLqQsYgwxs6cxfFAUBi1gtWAqzmLP8mcpOuZy4PHLeGh8FDqAyhw2/2YhJS77d1LsPmBrUuYz6oFR9O+hR6c8H2C1mCk+vJe961ZQ5nrcB5eT/lgiQZSyZ8Z0cotjCF3wFPcMiyE0QE1fXcq321azZ12WQ8J0xr2bRrxf4zz4J8xk7raZjV6vzF5N5hI3xfPYicT8PJXkAUZCA+yZxlR8iOyta8nb4tq+lcrojTNJCAAoZe+S6WS7ecoPXbaJtCTlpliZm8k/Fm0gYuX7TO6vbbxxQCJTtn3U+PXKHNZPXYip8ZqWS4onTL2mZ0830Ri95hjFKTFEAj5dDE6r4l/9iHGRYP1+Iy8/vhYSUkmY8ROSexvwt122ykL2vvECuY2umaKlnw/bManO4a3Uhe4Di/0zBJW5a8lcpH6vElKJ/9lEEmKMGAK0ysOF1ULJt1vYumgtNc1eLAej00mePIEEh/MEqKs1g/p/ZVlTbaAxBM1O5+4RcUR219ubCuoqCzny2Wb2Zmxp3C5uPx8TWS9NZf8uZR/jRicSEWQ7DzMl325n+6q1TveBH69YyI+j9RD9KK+92ZtnFyxjW5GnJ3pjkTY9D/S8dwnv/O1RNeCZObJxGU96GPDgPqYPCQegIucD1nmSZHYKt3VHKeW9lgVYsKqf8KCuUW4SGOli+xKZCiF1OdNXzmF0rBrwADR6QuNTSHtmvhKgHOhs25hKKBs6n0lrFnP/EDXgAWi0GCJHMvn55YQ6pUwkPjXZ3jaxd8UVAp47EWPot2oTT8yeSEJkww1NOayeyISJpL2whhjXdsBoA0EAWLhIKqM2rCFtbEPAA9AEGElIXcq4NId0Dh0IPOWuo4EmbRlpL83n/iFRhAZosdZaqKu1qNcqkXGz3bVvbWT/p4XqzcpI/IMTGx8sdTkPqAGvrmgbby7agJUx9OrhJuA1w1qe3zYBDxyqUi2YinLcbxPh+qmySbS/p9VVFfjPyGD6spnKZ9PxvQ6KYvRji4l3fZ+v8vNRUmZWFgKMhEU0kbUo22cILpQ31NvEPz6TcQnK+2pvx9RoCU9I5e7ZntRUxBD53Hpm/SaN4ep52j8fgM5Pb//Oue3EEpvG8PUZpKckEx2iR2NV0lqtoAuKImHCHH65Zj7+run0WvW7babycApJ65R9RAY5noee8IRUHnoy1Snpe/Pn8OLOEiyAtu9Ylv3tZebd6cGp3oCkpHcFI598maXT4gjWAJYSdq9YwIKNLaiQ+M/7SA4GKCHrjQ88SJDK6LFKLznT19spKgbYgunCHAgC/ALRAXXOuaS72tZ3icFMnp6IQWOhLHc7W9etprJ6DP+/vbOPjqo8E/jPDZ0UGMZl+MoMDY4SPpq4JEabFEo0TSg12g2iEbaheIhYgSqwRjhC0QJtadgDwproggiGY5bsAbJIKBpKSZoVCptUY+KaVHTQmJRM+BpLTMhmNOv+ce/M3JnMJHcmYMU8v3NyzmTufe995877vs/7fE78uidJjTYQaUsmMR1OaUxiZrOyyHZ/NoLU3CRsBrjSWMHh7YU46oxEb9zE/fFGMCWQ9Ci8tkNtOPNBEtVAmyv1ZdToikjVkkTcuieZEW0AXFyoL+cP+w/hqLJDfAYxP17AjHgzkUNjmLFwEfaaFz0tIwe7V1IX0b9ZRNxw4BM7xw68SH1JK5HznyQ7OwETBm6ekgXF6i6+fA1Fms9uWreXnGQzdNt57UdL0BV7mLWJh+YrGkJXywlK81/EUadqsKmLuPvxLCYNNWBLmUf01mq0G+aurSW89Z1ckoaD+bZMJlnLOO3eKCTncr/7us1lvPLoFlWrqOBUdgWn3BdJ38D8Fcpmw/7qD7zfxzXCG8Ti5EIwU2q6WzDC+Q+1logYTKolr2NQMnOzYjG5v+uiYhx1RkxPreWh1CgiIsYx6S6o92i/4Y8P53knYASMDE8GXu3ZZW9EZjsX3vdaID7/rJ3mumpqKstoPFILqWuZ89R0LMDomwJbWrxEYXHPFzRz0K2JWhOwrVzLrMlGAgaxWLNI/XUO8SbA1cqpomepLlE3GtY0YlYt5d4JRiJt6UzL3sKxYk3bkUZF6HW4GLVuEfFWA3Q0cepwiRIxHZ/DjGeyiRsKpphkRlHCBU9jB/tWzeOdR/IoeDiZESNimb+xhJtfXs2ynf5mlusb0fSCMoGF+SVsfkgReK7zVbzwyLzQBB63seHeWMWS8X6VrjSFyKdmKeYvl51TO8o877d1KLtEjEbMPVqNYOg3lVfm+CSiDS6aj66neJU62VoqqCtrUH0xZixTtG3TPItSxC1JxJsUU89LS/LUhdxOc/5xz8I9+hbvDnFUWqzaFyfvHtXOPn2M2rDas6A1H11P8YotyoIGUFeGfVUe1apAiLwpAW1KsMnd6aExxI2BruYKClcsob6kFmilq6iKjzqUU4YE1I4VLGPUp3mxFV3WnMRcZmkF08L1XoEHUPkif6hR/x9s9GgSXso4VWlXNi0RMcTPT1DetmaRmptBtAH4pJbSdVuCm9G+5Mi/UWa31GrlfEBNPoG4lFhlwe22Yz+sPTYOs6p9W+ISMNFOfYn6Xavjq62oAfdlBw1O8N63H+ODd1tVTdeI2Raoz1FEW9XvvrOJRo3Cdfqx2RxYlacIPIDKes53BHk4/sxfzY/ilefVXP6sdw66aallkMH7PH2DWBKY9Ixb4DVx7DfzvQIPoKUC++5a1VRrwDTG99aj3GN5aAzx0Qa6Wk5QtGwh1e4UobpC6u2qBvx3Br4ZoPvv7VzNgvUHee9TwGBm+uICfrvxPsbq/PjXAyL0AhF9H5tfLeCxaWYMwKXafay4ZzW79Fo03XjSFFy8U5Hfd5qCNYeUZMV84nznEHbNAtNxRRV6Q80BhN5Qr4kSxQ90YGu17ymvOrgc8KZmH5ORYlLz28m2NOHsMenTiBnnnrxN2EON1ktczfc1fqse/QWglvozqgCJMPiYZUebNXlTHbWUrsvr4at003a5KUgnsrCo9tquT5r8tOdARBE9Px2bAehu4vj2wIJptNn7DX0e6DI7Cqk+p7y0xD+ImSTi1qmLXVst+1b0biYe5Y7863Ry4ZpH/nmfUeCgiyjMP3+SFFXjd5ws9GquAOkj0FicaS7P49guv+/6DjPuoOSOi+oi38/xQXkTTtUlcOOYLP+GwCxsqtnzyodVvW94rBM8grujrTdbQAZTM5SIa86d4MjmQME8aYwarr684Pc85+dwp02ZjM2VBdQH2iRP9j6r7v/zPXTjML858cx6nH7jyHSjes7/tgdZD+Ds7/LJfiifimYXYGDsjGXs3rmY6UHOv94Q86Y/dy5m95o5TBkBiv/uOVZuLNeXV+eHN03hOC/s7Pt886N3KwEW3Xaqt5X5HHNedJtr1Fw9rStgtsUzEeio5bC/0OoV7068t4W8JwmM1kzeC72e2xPz7AQUT2crdfuC99ftB/G/t1dQu6gvfbankNAEXzgdQa6vWczOny0LfI7P+dl8Rw0mufJeucYMpxKfQcyPs5kRp5zT9WE1pwNeqJqaow3cPj+WIcOTmLE7BssYA7Q1UNqnXzQKqyd9QKd22h80z9En6MKawJCUNKZlpBOn+hu7Gss4/Bs/4WQ1eoXeuRMc2RxAeB1aSaGfa6t/4wOgCsfFLGLGBPGDP5rAzRGgy0rhMd22c/79ID5NgJnTiVHnhL0qWMCLd944z2mvFUVciiowOxv401a/+1gTMM+ax913q+e47NTv972uyfOgg8wJ4PSSHwQZk340H2TF7HoW5ufx02lmRiTMYfPrN/HSijA2/18xROhpSXiY3evnMGWY8u9Hh9aSvfHt8K4VapqCdRFTb1ONhW8f8t0tA1xspwuIDJSrp3HIO/60J7AAyrQE3iFq3g+4kCs34EaPYHR52rn1meCaVDDSmDRebd38dsAIRjfmkYG0ptswuz9wywmOFwWICI0ze0yvQfPYNIuZ1qcTlAfjcNcKGDJhHosPzPMeMxh8tO2uc9WUbniRoBQXcjJVqbZjGWNWzFlblvdI9ehJhkdTaGv9Emrz3OH11ZkSl7K8bGmAk1xcqDvEwQCRjZHRZlUDc1F/dL3ODVV/xwdALRc+ccEYA9w4QonQ9ByLYlK8Wl2mpZaaPqwU3s/gJNj+CcA0LUYdc000lgYZT/NvUoW5C8cZrSaYTYx7cBliuPfAa95DEQYfawyuVqqL1vtYgnTNiZD5gF3Lsri0cQ+/mGHBMDqZx/LzcM1YzfVSwyEQIvS01L7MgrUGj6Z3c2Yevx2yncWrDoas6YWapjBq2d3EGIDuVk7XdGFKT/M9wYAa9dczV8+T6Nptp64oyE50vFsw+gmBiVGe94PueGd7BZwn2ixYeQ5deHe7wUO2AaI0SdGaxHFNBGbzu4UBzZKm8VGqjyl48IX3nFYcOgoGeMyKoAg57UE1ws75YQM1/70fe0kvGgFAcgo2rZ26oxWHnkCgL7l8VW+VWLo6nDjsVVT/R7GvX1ODJ/G/085p3W7ffo4PleazTpgcBSYzo9EIveRFxN8C4KK+MvD4CfgZ+iheMNqdzNjhDOL7jGLSd2M9AtRnXGrmGBEGIv0ijLs7XVxus2OvOk5NaQld/tfXjAvHmTIdpno9WJizcTO5M1Qxfb6Kl1Zc3wIPROj15I3tLPiolc35i0mLVuzZxcXjWJOdrz8ZPdQ0hcRcUm51R5NEMfXR1Uzt5XTfXD1Nouu5pp4aIgBRTIpRTTwdTdg1ky16rNnzfmOQHa85cZwqGJtoPNzzeDiDyL2QXr7Yy8KdmEOcuvt1njnhXbQ0gRyN/xV4sdUToOJZpHQGsZjd/pDecr/0MCGb1NxMYoZC23sNdEyOxTI8idQnEjjgb9byZ7zbp/MlB7F0NnDg/uUhmlO9/qtuR0NIbfs1Ptw0tnKFKIZEGDElotbKjCLmoSQsQHdzuQ6NKBPLSOVV1zl7r8ULIr+hvnAGMffPXErSLerrjlZatHPVY61pp27XbCpD8VCAZlw4aa7qYwzpITqdVf+ynDkTle//Uu0+1j8SQkGOrzASyBKI5oOsmL2UF046cQHDJt7H5tfzWBirs32IaQrR2elEh6A5+fookj2TMqi5y7OzBee7FZoJqcn/8nequ7HmkBinVlv5sJp690Stcnoc4UPG3RYguEYf2mg9X6KwzEny+HXqX/X63PoO5PAGX1xprQ+y69UEFLg+1bUz1pqFAwao6EETkt7VXMbeJ/Ko+1A5FJ2SQ3SwnDIVk9WsCgQXXeEEsUzIJG7jNmblb2LSvX3lnGmCWM59HIb/0KuxXe5RXUAf4YwPDyedXALAiMktbLKeJOUWA3S3cnzXlr6/d2sco1SzoS6/b1CSSMxO8s6Ty05fwdjp8iabh1GN3aOR92LZ0M2di9m9c40q8FycPZbPgq+JwAMRer2g2LNXvNLApW4Ue/bOPWzOsvTRzsKqtBDSFJLXMlUNfHC+uYXnMn4Q5C+P6k/UNqqPAoDMGEb3luhKEnEL1cWhs4HKHdqJG8yp7iYKy7JMtXpJK9WvaHxULVU43P0ZnkBqr4WGY4iYoP2/gy51YlvGZ/RIlge1tJka+t1WU6rx6+gI5NAEqFw6F2zLrIlajQiWWO3L+QtquvfQcdwczk9DWbNI2bzIE6WppCW0crq0WgmvHxzLjGWBIg29RLqrEGBgUB8CsidZpPx6KTPiY7BNSODuxzf1/hM52mCggOOjDzwmO3//VV/0Z3xoaPlAjTo2YrZFKRuOf0rAhIvm8gLq9JiTk73RknTr9JOZLX5FHJKwbV1NijbFwOUnbs+4N5FGrLeGXrTbY+bVm3oThMmP5PH7jWogn8vJie1L+ccw3DtfZUTo9cGJ/MdZ8ItyPnIBBgtpq16keFV68LyV5If53kTQl6bgNbUEitj0pYI2NcUGg8EbEefxybXT5fLdFUfMXEpq0Vo116mduuI8NdldJcviCVLocEX6+m7is4jfto05apJt89ECv+TzCmqq3GH+BqJnbiBnxybiF2RiSk/DlJ6JbflaUvOLyDm8gWnf1rYt5fTHakCMNY05m5dijle0jojkbOI27+UhtbRZV3MZe9doBZeOQA5tgMqZwKdACQ73VtuaxIwlGUT2IUTaTrqrnJiZunIXSQs0bawJDMnMIX7jLrIP7CLOv7E1k8Rf5ZA4XOlX3X5NdN3R/R4N2hQ/i8ReBOoFh7vOShSJK73PTRezk4nxSRyMwnZXL+drKrGEJrRUxnv9xc6QYm76Mz60eL/jEVHZJP4qh/ihvaVA9M43jaqfPX46luWbuH/vNiZpjje3uDdFsaSsUM6NmLmU1N1qMnpbA6cvKqf0CP4qP4Fd3USOmraaWc/kaL7bKCJTMrGt2MSsoteY9YR/z7y1UfWl3gTCwpyNe9i9OJkRBuBSA0Wrsr52iekgPj1dnP3dBh5o/litvWlkctYa8iMcPBCgFNnCn6YoAvHS2xzsK01h5lKm3uLW8gJEbPrhdLZDtNGTq+dA45PDSNzcTcRluehy4Rvx5Wqleu96TpX47lQjJ0Z5ShlFp+TyeFmup5SWp213O6ePFHDk+Z6LRNdzaygd/hyzkpXoNlN0AqlzE0j1P7Hb7hco0or9lXIaf56BzQDmuEzmb+z5m0ltHxziPzcW+Eb86Qjk0Bugcrq8lmkLEzBhJC4zl7jMXM3Rdup2zKZSW8njaAHH7lJ/TWLoOKbOzWXq3Fz/y0J3k5/5M4m4dYtIsboTrfOo9PkuaqmpbOD27FiGEEXSglzqq4KY3vaXUTdN0RZNk3s+N58akv587KQDNAnzLtrOBT4VtKbU8ExmlpHBkrD7oh/jw48LznawGRkSl0EKQfJQe6OqifMLEzBFKMJoedlqzcEmn/D/tkNVNN6Wgc1gIDp9NcvTNed22Dmy5TiWlYqPpGe+XxmnDqQRsyABc4QR27RsbNOyCUTjZ35vhJp6E4D7thSw6k5VLz9TLrU3BaDh31l2z1qKap1c+p99bA1Ue1OTpnD2zX0c7PWCmrqVftVXgtHlsfW7f1dP45Pr1gi7wYrQ6upwcvpkMYVL5nOquGcUnCcqrVtbF1Bp293ZTnNdGcVPzObI88F2+a041s3lpW1l1DU6ueKXMtXV4aSxroLS/Gd7lveq2kLpigKO1TXh1LZzKfUdj21bQuGynsWxtQ57ZxAtTneVlZKVvLKtgtMX2zXPFvV5tNPWI2qhFceauTy/rYL6cz3bXLnYRF15MYVPLNQshknE7XBr271oGUVHeFfd6Ufa0kmZH0SDaymh8ukCKj/o+byVCL9eKm7WFHLseBNXupX+OqoKfctY+eF5jm2tvhYCXWgCrC47Qw/6CXd8+OH8uNXjIutqrKC4t0o3gWgp4A+v1uLQFGfodrVzobGWY7sKfH/QuWYLpVsPUX+x3XPPblc7zW+WULhsCaervKk/XR0BzMUlKyl6ooDK+lbfz4xmLm1dQunzfu00lg1nY3ipCgdzN3GwsZ1LJ19mwdyvr8ADuGFybNIX/m+OHj2STz65zGef+W8phN74zoY9vPhDC1xp4IU7H9dXXLpf5DKrLAMb4KzKo2hdKCaoTFL2LiXRpKl+LwiC8DVHNL2rRhi/ptBfPD65MHwuPlFpIVeKFgRBuC4RoXe1CPnXFPqP1ycXhs9Fb2klQRCErxESyHK12Pk439VRX/Nq4vHJheFz8QR79FFaSRAE4euEaHrXLZpKES0NIf9gqCdI4VwTjVe1X4IgCF9dJJBFEARBGDCIpicIgiAMGEToCYIgCAMGEXqCIAjCgEGEniAIgjBgEKEnCIIgDBgC5umdP3/xy+6HIAiCIFxzRNMTBEEQBgwi9ARBEIQBgwg9QRAEYcAgQk8QBEEYMIjQEwRBEAYMIvQEQRCEAYMuoWc13s+++57kV8bB17o/giAIgnDN0CH0bCxPmY7NOJYf3vMznha5JwiCIFynRIwcNXZd76f8lWNn/sptN9+KdYiJSTG3MubDU7zx+ZfTQUEQBEG4Wujz6X1Rxc+OVtLoAgxjyZx+P9+7tv0SBEEQhKuO/kCWzkP88/EPcAGMmc7KWNs165QgCIIgXAtCit5scexm/8eKXdM65QGeNlyTPgmCIAjCNSHElIVOnnvzLVq+AAaN5fvxibpbjn0oj9+erKDmzQp+/8IcxoZ2Y0EQBEHoN6Hn6XUe4o9/UbS9YeOns1xXo3SempfMWFUzHJH8MBseCfnOgiAIgtAvwkhO72RT41+Ul4O+xRSLnjbDiIzQ/m/AYAr9zoIgCILQH8KryNL0F1oAGITNMkVHg4MUvfGxEgQDuM4fp2xLWHcWBEEQhLAJ+COyffJFIy3t07EaYdhwG/BOn01O/DKHB15PYcrft/POsbc5G9aNBUEQBCF8whN61NDy6U/ACBjNPAjs19Hq7JvHRdgJgiAIfzP6X3D6hm8gmQuCIAjC9UD/hd7nnVy8Ch0RBEEQhGtNmEJvClaj+rK9jd9dte4IgiAIwrUjTKFnY6Qq9D5ta9TdavKd6WTcOSG8WwqCIAhCPwkvkMUyFusNAJ/T6Og7chNg+oY95P9QSepbe+Z1VszdzImwbi4IgiAI4RGGpjeYlRNvVoJXOj/ihENPm1gy/sGbxW4Yfw8/yw39zoIgCILQH0IXeoYMvvctRUG8dKaSQl2NGnivud3nnbET54R8a0EQBEHoDyEKvcEsuf12xbTpauRI3Z91tyx6bDsnLoV2N0EQBEG4moQk9Kwjf0LW+MHA57TUHuK5L0Jp/Tp/+sir7bWdPx5KY0EQBEHoN/qF3uBM/jXt2wwDXI4TbHpff9SmgoWxJneeg4N3XtPlDBQEQRCEq4Y+oXdDMv82MxWbAfj0z2yrOMQfQ7lLdDpPbC/gvonKv59WlbKmKtSuCoIgCEL/0JGyYOPptAe4YxjgOsuhoy+xR7dZcxnFb9zD5CHeQmWXavex/rF94fRVEARBEPqFDqHXyMtvvcUdd32LN48+y687Q7m8gcghBnC5+LSlnvL92/nl3g/C7asgCIIg9IsbJscmhRSOIgiCIAjXK/0vOC0IgiAI1wki9ARBEIQBgwg9QRAEYcAgQk8QBEEYMIjQEwRBEAYMIvQEQRCEAYMIPUEQBGHAIEJPEARBGDD8P4x7Kk3g54KAAAAAAElFTkSuQmCC;" parent="1" vertex="1">
                    <mxGeometry x="587.5" y="530" width="155" height="108.67" as="geometry"/>
                </mxCell>
                <mxCell id="iX1n7W7fgkuR9EXcFvVA-4" value="" style="shape=image;verticalLabelPosition=bottom;labelBackgroundColor=default;verticalAlign=top;aspect=fixed;imageAspect=0;image=data:image/png,iVBORw0KGgoAAAANSUhEUgAAAjoAAACKCAYAAACjHeCcAAAgAElEQVR4nO3de1xUdf748ZfADA4wIgzKfQRRRlEUL0jevl7SvFRspWmtumWtlbpl5tplrfyZuV0s7bJa5ppt1pal5dLmpUxzvZTihSQVVASRa3IJB5yYQfz9MYf7DDIIovR+Ph4+HiNzPud8mBnmvM/78/58TptuEQMuI4QQQgjRCjm1dAeEEEIIIZqLBDpCCCGEaLUk0BFCCCFEqyWBjhBCCCFaLQl0hBBCCNFqSaAjhBBCiFZLAh0hhBBCtFoS6AghhBCi1ZJARwghhBCtlgQ6QgghhGi1JNARQgghRKslgY4QQgghWi0JdIQQQgjRakmgI4QQQohWSwIdIYQQQrRaEugIIYQQotWSQEcIIYQQrZYEOkIIIYRotSTQEUIIIUSrJYGOEEIIIVotCXSEEEII0WpJoCOEEEKIVksCHSGEEEK0WhLoCCFECxoyfxW7tr3OtOB6Ngq+mSUb4tj4ws0EXrOetR5D/ryIf2+O48f9Ozh8cAeHd77OtJbulLhmJNARQogWMmT+KpZM7opW14c/zb/D7nYjZz/AuBAPQsfP563nY65hD298Q55fy2uPDKVbRw/UzmC+aMZsNFPa0h0T10ybbhEDLrd0J24cvszsPZkxnYJwzfiUcYcPt3SHrn+juxH5TDha5b+W4/uI/0tei3bpigJVaO7phn5IEJ4eKlycrT8uN1swFWST8+1JctdebNk+1uI0vRsho/3RqX/h54nHMLV0hxrEDd2bUQSEenNxz39JebWl+3NtBf7pdf79WB+0gPHgu/zxkc/ItLu1P9PeXcXc/h6AmdS4hUx4Yf816+sNK2YBX62wZsHM53azbMFCPjve0p0S15pkdBwSSGRoCAHtXFA7t3Rfbgyq4f6VQQ6AKjSoxv+vO7FhGNaMo8+toeg8q4IcACe1Cnc/PWHTBhE0seW6aItrZBB+flpU6hvpT9oHn0gftB5OuLR0V661mL/y1iPWIMectpkF9QY5ANmse2QJm9LMgJrQWx9jyf9dk57e2EZ1UYb6svnuZQlyfq9upG9FccNR4R1qDWssxRcpA9D4o5veop2yb3IPej/aA53a+l9LQQZpX+4m/qXtxL+0nZ++TCQtuYjfLrVsN8WNrg/PPzGKUDVgPsX6ua+xp0Ht9vPC3M84ehFw9mfcXxcxpFn7eeObFKCzPjDmkCQJsN+t392FlLiG+unx9gOwcP7rJJwn9sXXWYV3lA9pXG/DV54E3ROGuzNAKblxu0l5o+bwlOXbVEpIJSvQSa4QRKMFPvIg48PUgJnUr99l+TkHGp97nwWbYtj4x66oA4Yy9/k+7HnhSHN19eq0iWHl7bFof/6Ap86cIqsFuuAqmXdBEwQ6AR5DmBM1nP4B3miVK2HKyjCeP8XOw5/yYqHRZjuDVyxz+vajV0dt1TCQ2UhW+k98fPALPi+r22ZK9BLmGDSQ/T0DvovD4HUXzw7qh6G9BtoAZSayUnbyzsHtbLNXedSmKzN7jCM2PAidxsXaDuBSGeYyE6mHP2JayqnKzZ+9eRmx/nV3ozVM5YBhat0nik/w5qbVfGzn8I7RY9gRhQ7I3xpHsq0ahicHMWisD5BH8sh95NvYxOlOPQF/CMPfT4tKXfXzMpMFS3EqJycnUWKvCwZPfB6PIjjUE43SttxspDAhiTNvZ2OpJ9/udFsAXgCX8ihclYFTvyh8uzjRtksQ7uTZPKZm2Sj6RLlBegL77k/H6c5QQu4Jx8fb1TqMdKkU4/FjJL2aUefYV9PW6dle6D2tj0sO/VgnyKkhs5xyWz8PdMP94W50jgrA3UMJhi6VYyo4T+6uRLJW2tpnxXt8kfSV28n4wQ3PR6MIifLBXQ1QjqXoPKkfxpP3ZbWjVr7vtXiE0mdHqI3jKPvfYOMpB99j1ZIRRA+0ZurKTsdz4KFsG6+FP2FrovFVA+Y8khftI/8HT4LihqH3qLu5bmwsg8ba6JvyXrYefZg1JgI1QP4R1i1xPEjJXPY+e4a/xMgACB0xlWkvHGFdk/fzankz//8m0L+dCwyayRrdFzwev4fklu6W+F26igtTDVN6P8tnf7iLESHVghwAFxe0/t2JHXYPU+q00zI9ehHrbh1Of39tzVoXtZaALkOYP3kRK33rq+RwYUrfRay7dQgGL01VsOKiIcAwnueGxdLfZpdj+WziTKZHhaBzqxbkADi7oHbVEuB9XVeQOEyzdAQDHo1Cr68Z5AC4aFRoOnjT1k5bp2mR9P7HMMINnmjU5VhMFixmcFJr0Q2IJnpNDLqB9o6sooPBC4Cy1AyKgMLTBUqnfOlwpbmdzs64LxlG/0cj8evgWlUr4+yKNrIv/d7shqbJ2qroEGHtK5eySX+j6Aqds2FkKOFrRtF7SBBaj2oZH2cnNB18CZk4iug1oajqmxus0xO+ZhQ9BlQEOQBOqDx9CX90ZLPUBTXmPbYs2EdyugUAly5RhM2qu1/PhVHWIIdSstbvI/+Hpu/7DSl2EgOUaeRJ299iU6N2sp/lu5WLMW0fxj3RRH1rUgUs3bWSj09bL3R1hrtYM3oyd7e5QjMhmkGjMzqDu8xiZqS39crkYiY7f/yWz7OPcvAyGDRdGRQwnHEhljrtYnvPYabBGkwYM/az4dBm3jEawSWQ6WH3MLV/INo2WvqPmMXi/7zCc7amj/gNYY4/YC7g4P6NvHn2BEZ1DHOGT2BERxfUQTE8oIvjYI30hi+Lhw4nxLWiXRwfZx5lr7VwhP5uQUR2iCTQXDMD9eJ3T/Bi5f/6svKOqfT3AGPyR9wcf53PupoWRfd+WpyA31ITSf4wg5JdynticEUV0R6PXk78ZqvtwDAM00NxB8oykzj64kl+Uy7HnO4Mx/BwN7zUvhjmdSN+YhJ13unKYaty8hOVK/6PM8gf64MOV7z7+5C2rp7hq8BIegcClJL37QHOfFFIGW54PjqIHhFuOHmHE7IwlROLbEwSdbitL55+1kdlqRkU1l8VauN4/oQ9GYmPGjAXkfXtUdI/LaQ8E5xu9SdgShR6PxWq0Eh6zvuVI08U2tiJG/rJUYD1vTrxdiqmBCdUj/Yi4k497rihv01PxgYlu/HqPvZVy/BVZrOKUzkSm9iwWVeNfo9LyV91jPyFUejUKnxjYyjYv5/CQ8rTs6IxdFEBUJJwgLS1Fe2KyIiNI6NyPw3IWLYy08b3QAdw6RRHP7WRCWugzKVHSJrYlW7O0DnyAeD9pupiE0rjzR9fJumXGTw5MAStbwzz7/Ql5JvVLC2+MeYFitahcYGOOpY5/QOtQY7xBG/GrebjakNFyaZTJKecYm1K3XZTu3sDYM7+nue/j2NvxXNlmaxNfp1t+TNYN7Y7WhdfRvQeAj/aKNNrA5gz2bZ5Jc9V/MGY9/PU9yFsmhRDABpCg7pC/qlqjWIwdLA+MqZuZtbZo9WeM3Hw4ikOnq2+/Y2vbS8fJVuTx9kHU2sOFSWXYknOpfBL2229pne3DjuZ0jnx9El+q3byL//yJCfau9F3mp623l3QP5pEyts121cOW1HAr18oP8zMJj8zCl0gtA31R0Ne/SdkcxFn1u4iZ33FDy5S9Jf9pG0YQYg3eEWGosJGkOVo24leuCtbmc47ns3RzOuhZC8ukr52Fxnrq54r/zqbjK8L+G3daMIDndBE9cSn327yDtneV0nCPhKfyFOGxsqxvJ3AGYM/kREqCPTFk3QakW+y6are4x/SSV7vbX1e7UvXWUEcfDCD8kB/wmL9rV8sRSmctBnUtQx7w9C2ZRL30evVLnKaQh96ByjjdlnprHOkNqeO/5CaNYluwaAO7sEk4LMm6GEl3Qy+G9e9wTMk7V/4mdh25i3SSu7njWG90LmFcPcfnqbbrrU8mJHWlD22qZ2rkhr9Jfs6HN4T10qjhq7GdO9FiAuAicQfawY59enfpaKdkfj4akFONVl5cez7xfpYHRzJTFs7umzk4I5qQU4F8ymyipW26tp/ohcpVWbLaNuHMOZ3kEK9ZK6YHuSG+zQH3up+Yfh1sW5feOAYRlsZjrVnySsGcMLbULtWpGrYivQM8ivbWyhIVk58Hr7o6h2KsQYNOetr/9zI+WQl6+bdAe9+TdvWXOTo+jg++BrcACg7nVQjyKlSSt43GUrmzIsOt6ls7qksPYFjlUFOtV6nK6GNs6rpZg9c9XsMrE3gRIL19XIJjaTrk1q8XlCGrC7lcfLVG2U9n2ulDz7trY+MuaeuMJ38SrJJylW+7Np70+0qe9bcknM/YNxXcSReANpoiRw2i00RvQhoxmN2m7yIsRFK0ffR75rxSOJ614jvTQ1DOlqzMlxMY0duw1sO1rWzPijO4OAFe1vlsie3gDEdvcG1HQFtgNqBVEkGe/Mc/Qrdy76zIzCEacB3CIvvimBq8h4+P7mfOHPr/Dq2/DedwoE98MKNoOnj0d18lvRvTlL471LbxbQVYryVK7mLGI/ZzJcAhZQUAB6g8vbEiWon6MphK8g/XrOQtHxLFoUjvfDCjQ6DPMnYYCc/UZxLvs2gASyZxZShxQVXVKFA7ezI1bR11GgftErBT9HpDPvbrcul6E962jqDxtMDqJvpKDqejo0a/OZxte+xwvREPOlfDkPvqUI3egRezgAW8r89RN51VpdTcxi6JXijtcbEXPhl91XvbV1WPnPxAHQETgbsfOYbJX81N3/UhPsDMH3Pg19lMn/I/dzdSUNA3/tZp9vOq3s225884qinV/Hj+E7gokatBi6Zydz3EQsaUfQtWo9GBDrd0VXk+YtyHZpdpFUrhzPW325biYnFALRD5w02pxI5zMQ7P36Ah4v1jwyNN4aoWJ6NiuVZUwHJyXv4POl74q7ZmeYa+CGF5LUquk8Jx1PthEYfiuHPoTC9nJLMs2RsSSJ/vY2TnEdF5sCNoD+Pw9/OujdtKgpmPdxwhcqr96phq0Lya19IHUqnIKcHXn6g6aJHQwPrSar75TcsgAttce3YtG3Vnm6AA1kdz4rX6iIlZ+rb8CKlJsAD2nprsRXoXFNX+R5XKSLj1UTcX4hE52xNEf92PJ7kV2WB/fqYyxpfn2PTjTKN+vIplu5+meJLTzO9swZtp1E85wxZ328msSn2r1ajdquadWG+WIzx12Jsz/0Vvxe/r+VALp9i6e4FTPv6ew5mFGCsGNmpCHomL2JNUEiLdrGpla9L4tiD2/lpTzqFRcq0aGcn3PWhGB4eR/S6MNrWMxPISa1CpbH9r3I2k9lSLRNRbdjq/HlKvN1Qja7+T0VxjhJIXHH46kosWBodBFdrm3qxsiBb08Hzajp0Q3L8Pa5F70HbaifaqiFTYY/arU8T7s1M6a9NuLtmFcKcm/7K9M7WNKjx7HYW72qiIAfghen07T+S2x95jTX7skHrTbfxj/DWgqZ8vcWNphEZHSOlFd94mnaMAbY5ugutL1PAblZnjHvF5N8Cspokm1NTcmEcs76PAzT09xnMlJ5DGRyoVcaOJ7P481d4ztz0x20xmRcpeT6BEySAwQ3tXeEEDdHjpQFVYA8inizi8BxbM6DqWXvFnmrDVnQIp88z4fVs7Iauv5aMDQ5eb3VyU6aHX6Lc0ffJVttDBZQUg5cHuAT64k62/XWF7HLDvXP9z7sqH2tTQVOVEzeFRrzH1QV6EXRPaGUxN4B71E0Yntxx3WV1Wr4YudhaJ+gM7dp3Ba5uOGWSr7LqL0byNl9t32ppsmLkalyGsHx0LIN1LnC5jKwjHzHr+NFmWUgw8+BmVhw8gvbfHzMpXE1o//EEcuQq66LEjaoRGZ1TnMxXIp32IYxU1791dfF5yjoqHr70stvOlyG+Sg3Qr7nEO95BB5g4mLedud8vZNr/0jADtPHFoL9yS617ULP2rDbrkEptrugiHMxAJF/E+FICJx7azpnz1h9ZZ0BVc6pIOdFf6eRdl9O4imGrhnHvEojt0lz7tKHK58OUR5GdWWOOtS0kP1U5KWuCCHrGteE73JDHBSWB0U5vo2C3wjRfPJ0ByrlwuhkDHQ83u+si1XAV73EVV3RLblIWWrxI+qrdWOumVejGDsLP1gKAdrTt0LrWr7LtFHlK5kUb0IPoq9xbNx9lBtevBSRd5b6aW0D7yWy68y4lyDGSuGsldzRTkFMlm8wLVQXbI5v1WOJ61qhJHO+cSWVKWFfUeDN4aCyDv7M9g6q2bakZPB7pjQ5vBvcbTsAP39f5oAf438UIpXYiK+Vbx7NFjZRcWICREHT1bnWC/BKw1v8FMh1YW+/2V8uIqdh6PE0Hb2rXjmiWDcWgdzRMUGRexFRUDh1sxLpfpnN+Shju3qAbGIkmMBFTgy6FVHhXDFsVnLS9vk5l35V1X7z96TA2iaytDez3wFACDNbf2ZSc6tjYez1tS7acxRgZjhYndKOHos/YQfo6OyXbgU44UU55JkA2Banl+HZxQhXRHd+Bu8mtU4Triu84vTUAMWWQs9KRTjeM6fxFwA1oj+c0KLzSXNpGv8dVXJ7pR5i+Yr2cQ2SsL4T0Y2iX9MALLZ0fjqQosb79Vn2+3f064oSx/iL5q9TyxcjfEZ86hyE6DwjQMy4Y4hs9xfwBOivZKfO5Y007tRyasBhZw5jOyjo6bYCLaXwu6+iIa6xxNTq5W9iabc3qqP2H88q4mTzbMRCD8nSAOoTpYTP47Ob7a66MfGE9W88q7cJiWTf8LqZrlCs5l0CmG+axbmRXZX2eo3x+woEpXVfiEcuam6bybEAvxrj5VpvWqGWw1yhWDu1lDXIu55Jsd8V5E//JUPqk6crU6v1vFoUU5Vi/+l269CBsnpv1DYvywmfNGGugUA/3F/oStNAf99FuuBiqPRHlivszMYQp04t/S82uVWRqJOeHXGtNhmcofd6JwffPntX24YTLaC88X46i+5fRVRmcfno6KPU+xuR0u0EOgGlfrnJMLbqhNn4PZzfcxtb8eDqN1RP2jLXoFXM2Z163kxlpTNutSZw+VBFIuhE0/Tb6fBCJ76NeSm2RJ9p54QStGUbfD0YSUG214MIvTitBkxdhC4cR9KgWJ+V1cLrVn6D1IwlT7vmVt+NYI4bFGuCbXKW82ZWAu2Pw+aPrFf64G/keV5gcSY/RPnXXy/khhVNb8yr3G7lEX8/VVLVMWmA43Zf50zbKgd/5BrTuYLo1c0wnoh9pfN1I4PwYerkBmEnaez0uFgjWepynWTzIGuSYc/ez9Mu3JMgR11wjl+VI48UdG9GNncBgnQtqXVdib5lHbO3Nik/U+oGJN/dsJMTD2k4bNISZQUPqrpVz4RQff/tBE90vSuHqS0iX7kR26Vu3nxUum0jeu77e+pyDSd9zMHwy/bXY7n+T3usKir44jfHJcLS44nvrKHxvrfakOY+UrUYCYkNt3g6hrT4IvT4I/TD7+y87f5ITr9atzyl/fT+J3sOIHOiJi4cvYX/0JeyPtvaQS47yqGrYykj+7ivMXNqQTeH0UDQa0Br0dRf+0/hiePI2mGe9JQHOqqpbWJhzOflqPEX2MgWNbGuav50jS4bRc6AnKkCjDyVMH0pYnS1r/W5bkzjRVUuvO/1pq/ZEf+cI9HfWbmMhf9ceTr5eX/h3FQ6lkJYQileUG3j4Ev7nMfDnmn2uXYvTmPcYgEAfQv5UUZdj5MyqmuvllL16iJSIkRj0Klz0UXRdmGt7BWug5NMT5BusKyx7RkXTt3ag09rudfXPzRy4O4IhOgjsP4k7ONKI20D0YdagrtaH+UfY9M8m7mOT8Gb+sFncHWw9xeQny72uRMtp/Kyry/uZu2UxS384QVqhiRoTLcwm8jNOELfr07on/OrtLpRVrZFzGcwXckmMX8+sr97hzaYO+ktzScsuwFhahrnWmg3mUiNZp/ez9j8vMi3tCqt1Xt7PrLh3+PjnXIyl12Au+tYkEt9IJOd8tbVvLpViTE7k8Jx95J61c4NJ4Lf0XAqLLFjMtba4ZMF0Ppf0r3dxcHKS3aEF04JdHHw7gfTUIkzV93GpHEtRIVkH4jnyxH4lk1Bt2Ko4j8IrDkXlkZ+qnPS9/dGNrv18OeWXsAYpGhUqtXLMPfuIf3A/eTvq23fj25oW7CL+xX2kJBZSYqr52paZSjGmppK8aled4t2yt+M5/OI+UpKLMFULlMvNpRhTT3Ls1W0kL2reSa6mJ7YTv+Ek+UUWyho48cmx9xisdTnRBGgAysn/dh85dd7rUvLfTiRPeR28hg0laLKdDvyQTvKcXZxMrnX8Vmszr2w7Zc3q6GJ48IUYh/cQ+MiD3BwMYCZpW2Pvl9XcClj6v40cvGAied87PChBjmhBbbpFDGiqpZqEuGqNumdTE7QV4tqJYcmXLzEuGDCfZdPT03nhfw1sGjyJVR8+QrQWOPcdj925BBs3yRGKae/GMbe/BxiPsHzEPLkNxO/U72sdHSGEaHH7WbB8M6lmQN2JO+YuYEiD2sXw/PIHrEGO+SyblkuQcyXrKtYn0XoTGtyyfREtRwIdIYS41v73Go+9e8RaxB58M6+t/+sVgh1/pr27gDtC1EAx8e/+reFZoN+zbaeVtXM6MX75Au6IaOH+iBYhgY4QQrSAzA/nsSDuLGZAHTaep14eanfbkc//ndn9PQAzqXFLePjDJr6FRGu1/30+229dv00dcjPPf7iDH/+3lR/jXmJSC3dNXDsS6AghRAvZ88J0/hp3FmPWfj5bYf9GnzvW/oc954pJjVvIhBf2X8Me3uiyWTf7URb8ez+pvxRjvgRqNzVqrRoHlgUVNzgpRhZCCCFEqyUZHSGEEEK0WhLoCCGEEKLVkkBHCCGEEK2WBDpCCCGEaLUk0BFCCCFEq+VQoNOxow8qlaq5+iKEEEII0aQkoyOEEEKIVksCHSGEEEK0WhLoCCGEEKLVkkBHCCGEEK2WBDpCCCGEaLUk0BFCCCFEqyWBjhBCXJUQ5g9dxJa+MQS0dFfE71Obriy+eQmfhXeVz6ANEugIIUSjhTB/6Azu7qRF130889u3dH/E79GI7pMZ468hZMAM3ugS0tLdue606RYx4HJDN+7Y0YfCwiIsFktz9knY0N9/KnN6dyXUJZV3/vsBH7d0h0SzcJqsJ2BcGP5+WlRq5YeXyrEUF3E+8QSZq/KwZLZoF2saqyfknlC8/H4jfex+8lu6Pw2iQrskkqAIX1xO7yNxflEj96NhSvTTzDFo4bKRg9teZlae6crNDCt46/YwKpZezdn1NIviExrZh2tD0/4+xg8Zy4BQL9q5Kj8sB0tJIWdOHWDL7uUkX1enhTGMu2UCA0L9KPohljeOtnR/GqZdp8VMG9Idg+o0Kz54muQGt6z2WaSMtB9XMul0WvN19AYjGZ0bhCGoOwYfLWoXWZm6VQrU4rtuHDc9HIVeXy3IAXB2QuXpRcCQQfSc59liXbSpVxABek80aueW7okD3PCMDMLLU4XLVXS7f+dZzKw4sexf27AgBxgWXhXkAPiF3067xnejmUUz+JZPWPbnexnVrVqQA+AEKq0Xhr5jePyOuS3WQ9si6NlLj59WzY30jekf1p2e/h44fgMCEx/HryUuuwxwIaT/ZBZrmqGDNyiXlu6AEL97gV4EvTkUvbfyf7ORnIQkcr8rwgzQwRPPXv74RwTIlcn1Qh3Lk/0DUQPms9/weIOvnu/DoLc+ulBUTDtPD/APY7QrbCxtrs42VjTj7nyO2DAl6i4v5kxCPN//fICcUsBVjyG0O316RNC5RfsprNJ4ccdmQu+KJVLjy5hhk9m6dT17W7pb1wEJdIRoYZrH+1UGOb+dPkziooxaw1MXyft3NnkcxsnQEj0UNWmY2S+GEDVgzmTr/u1kNbRppyi6aQByOPDfc0RNicYHPww9o+DQ9TV81S5iBuOUIMeSE8/a9c9xpNbw1LlfYPt+0KjCWqCHoo7L3/PcwV58NjQEtU8/5nT5nr2nc1u6Vy1OanQapC8r75hKfw8wJn/EzfGHMXjdxbOD+hHaXoO6DVBmIitlJ+8c3M42m6+ohjHBk3mwTwQhWhdoA1wuw/hrBvv2reW5QmPNzbvM48BNgQ700cTBLQuYVVkkEctnU4cTAqT9+ASTTttoUnmMTOI+ep0X63uuTVfm9L6L2HBftGrgMpiNmezc/V6tvle9VtbjarnbMJ0HeoagU1Kp5ou5HI3/ghfPnWr4CaIBNMtG0SfKDYpTORKbSN2BBE+C4oah9wBTwi6OPGGrNsOJtvN60GlIEJ4e1YY2LpVjMVv4LfEQiU/n2e2DalY3Oo8OxctTZc2+XCrHVJDFuU8TyPuyvG6DfmF0X9oDL4CiFI7cecxGv69MNT2c4LGh+Hi7Vva5rLiIX4+fJPXtbBt1PVWvRf7WOJJfdaLtM1F0HRiA1sNJaV9I1tZDZKy8WNVsYiR9ZoXiSFbcun9bz1Qd093DSXm9LJRkppL2YRJFO2ptPrYbkU+GowUwZ3PswXiKbNQreb43jh5dVICF/K07SH61FN0HsZWZlAax+xkC1Hex6e4hBLSB/MTVjPvpRIN3Gz02jgd6qiEvnr9/sIdhD8xlsDeQuZOnPnmFC3VazGX+X8fQmWLiP5rI+7+MYPDgexkbpcdHGUayFKSza/srbExPqdV2Ag/MmEG0J5z5ZixLj4Zh6PsE90QH46dVApiSQn7e9R5rj++k5rf6vTw08z76uAOl6Wx87yG2NybjpLqdUUNvZ1iPqv5SZibvfArx3/6DuF9q9xkMIzfweF8POLuNmZ8vR9PxKR4YG43BxwOVE2Ap5lziNt7/fjU5lX9SVb9rgyn7r8sPv66zmTa0N8Ht1dZjlpu5kHeOvVuX1e2z0wwenz0BgytQXsiuD+7l04K6ew0e/Al/G+gFwIXDq3l2x0Ysvd7jnVsc+mBaPwc59W0TwitjH2OED1B8gjc3rW5gTWcMT3+4gEkRHnDxLJuenc4L/3Oga9cxyYQ7rB1zblrEuluHYPBSghwAFw0BhvE8NzKWwbWbtG7D/NsAABx+SURBVOnK4uGLWDysFyHtXOBSGeZS61iq1iuEMbde31NTXdtPZtPEmUzpqQQ5AG1A3S6QMeP/ykofO6c9pxhWxi5ifnRVkAOgdvOl/7AZvNHZt9n77pBAL4I23EbfW0PR1a7fcHZCpXFF6+dmp60bPmvGET0xHJ2nCswWLCYL5c5OaDoEEf7obfRe6lWnmdNtAdYgh3JydzQiyKk47rRu+HVwrdFnFw9PfAZEE70mBp+R9ezDWfm9RwdVBjnW9l7oJw4jfF4zVDkYfGoe02zBYiqn3FmFuz6cHs+OI/xJ15pttiZxYmseZQBqfwwL/evud1Y0hi7W/v52PJ7kV5t+PCg2ojcBbYCyNHYcbXiQA/fRR8mQ5J3awTm2EZ9WbH3KvzvDXetpCqCdzeMznmJqTLWgAVB56xk1cTmPR0TZbapyuZd7pi7n8ZFhlUEOgMrdiz7jn+L5oRNqNug0gG7u1od5CRsbFeRo9C+z+NHZTOhbs7+4qPHx7864P61g8ch76wma1fQc9gnL/jSCnh2VIAdA5UFw3wn87Q9zm762yWkE4+58j4V/iKaztxrVJTMmkxkLatp1DLP2ediEmnU/5atZsSGBC+WAkxfDYhcTXHu/3ot5KEb5+8/ey9IdG2m+dEEabyYpQ6keXRnbqYHNnnjAGuQAuHXijrkLiG6W/l17MnTlIG3oeKaoXaC0gIMH4ng//SgHnbvz7OCpxAZrUPvH8IBvHHsrs4UaZt50P2OCXOCykcT/fcRzFZmMNl2Zc9NUpoRp0UVM4JX8o0w7q5zqTr/OgGpZmCnRS5hj0DgYoTcFX0bcEohaDcaMPXy0/1vWmsro7z+ZxcN6oXPR0r/vOPp/8wUHa7UMiZ5MSBsw55/gP3s+ZamxjP4+sTw7MoYAtQshvWKZcuZa/i71c39ygDKEVEretwc4s6WQMmU0wWmgG+oePnhqbM/Q0T4zlPBQFXCRrA37SKvIggS64fnMIHpEuOHe7ybCZm0hZWVVO0+98uV3KZe8tx3vs+fCYcpxLRQlHuPM2nRMCUCUFs8/9SU8yhOV2pfwxyMpSU7EZCMDohs9FB1Qdj6V5LXHKNpajtPkcAzTu+GlVuEzrBvnXleyGxsSObIhsarxk4MYNNYHyCN55L4GzrpyxXfhIOtrbS4kZdVeciuyXQZPfJ8dRFigCp+xg7hwdCc5W6talr16iJSIkRj0Kly6RBE+L4+TryunjEB/wmL9rV9qRamceKkq85Z/fxz7ql61BmT27OnL2BCt9WH2aT5ucD6casNWhSSf2AlA8vHTXOgbRTsnP3r2jCLO7vCVB9G33w5OYMlJYOPmT9lXkIPGfwZ/mTiYYFc1hmH3EZ2UQLyNxGHw8PsIdgKM6Wz572q+zYyH9rOZNvF2+rQHn+jbmXB4IxtLrNsbQoKVAKSQY0e3OfBLKrwX87eJUfgox9z+zUY2p27DRBg+gROZOn4EBk/w6XsfcwtO8/eEeBudHsHsTkBpIfHffMAnydsoc51A7F33MSpQjSpsMBP9livZjY28v3oj71c2rsiEVWSzGtJpP6JvmWutSSov5shXK1h7Ssl0OY1g8C2zmdrTA5/o+5ids5c3kqvSKpbsN1iX8A9m9/UAn2j+MmwCT+3aqDw7hntio62vRWk6cZsWU/nJPPoQM6v1rTKbVZTAG6sdmXVVU1bacZJvCsHg4kJowHA4+/2VG2nUNf/v5oFPI49/vZGMjqPULnDhBO98+SKzzh7l4GWg7AQv/nBUGYbREBLYq2r7dpOJDbN+ZWQdWcuD1YdrLp/izR/WsjMPwAVD78nEXsNfpWFcUKvKSDvwDtO+/4K1JiNg4mD2B8SdLbNu0iGUsbaatgFz9h4Wb13NUqPSLm89L/6s5HU9fOnvcW1+iyvT4qVXLjvTT3DypaogB6D8h4v89s90ct+2cVIc243OEda2hbt2VwU5AJkXKfrLblJyAFT4juxW7WrQE/cOysMiI9VaNczESDor2YuShB85NkcJcgASjBQ9sYsj3yoZEI9QQqbbz8yUpSdy5IlEirZaz5Ll60+S/EOh9UkPHzxHO9q5ejzai05+AKVkrd9dFeQAJBeR+3Q8WSYALfq7gmo1LiV/QcXzKnxG98Wrn/UZz4VR+KoBLpL+se2g7qqpuxKgfGazsnc6NPQa3T3MGjwUnSW+Ymgj5ydSlOAiuPOI+mcIOYEp+Ste+OhpdhUkYCGHC9mLWfptivVk7N6dweF+dttacuJZsfoh4jLjMQGmX1fw3hfx1pOukx9RfcdUbt65o/JLWgrIdnj2fRTjbq52Yv/oITamblOylSnkZb7CG2tWE6/sN3jgH+ljp8+UphP34VzeT7a2t5RuZOMX8VhDDA9Cw0Y42jn7vGcT29N6ss/Z/Qrvnao2nFe+k71bX2F7NoAaw+DZtbI2Ofy8o+J5aNfvXqYqb0Xw4PsZ5gNg5sx3K9lS0nRdtm8vacpVh7pjCHc3pMmHW4ivvFIpJmnbZ2xpns5dcxLoOKr4BG9+tZq1ZbV+bj5FlpKFxrkqUTY9ois6gNJTbDtua2ZGGm+eUdI/7YIYrLaxSYsqIyt+JZNO1q2neee80u82dRpZGU/wzo4v6tQsHczNxVrVo8H1Sun6a+YSZZeUh97euDtQ9Os+rhPuAKZ0MhbZyvGXkpuoXMN5d8C7n41Nii86nMrWDg+ynjgvZZP+eqHNbcpeOskvSpLQK0Jv+w++KJXEBal16njKj/2qnJyccWmyWe0qfAYoWZec06SvtbFJZh65ydbX0SXQB62N59M+TKUEQO1L10f1tJ0XowxZlZP/7W4yNjRVf2vReStXuSay8h0ZaKwatrqQEl/tSv0T4lPM1ofB3RlVzzey5ew2/v7VCmpXiFmSEjijfHj0IWPqtAPg1wTe+/dz/Fw721Owg2PKDn30A+oOBV00Um85iC2utzNAGS7JS9ho+8RevpENh5U9u4cRbWt4pbyY+A3Ps6WoVg9Kj3NOCZLUrt512zVSn/69re+t6QSb421kmIgn7pjSF+9gBtT57opn46ZtnCkFnDwYfNvL9PR/mb8oQ1YXEv7FG8evVcG5iaRflc+nVkeDvs7OfcbDYx7mseeX8NifYvnjsiPN2cFrSgIdRxlz7aSrDzNr0xMM+OgJbo4/rPysK70q6lcKMnnHzi6z8guUE387fHRN3N+rZiEr387U2dOvM+CjJxhQu5BZYcw65Fhqv0VdJC+xIoOhp/c/RmFYpsd94JX+RNzQBirfeOcr3kcbThmVoMEDTS97GznCDXc/5fo/M5dCu9mLPAozlbObhxu24kpTanrzZD9s8sFTudI15eRhY5RFeU55JTVa3GwFhusTOXnImgNz0UcRNdYXF6As/SgpLzXjPG13N5RwhXwbBad2VQ5bFZN8fGONp44kp1g/G056eva0k5EBziUvrxPkWJ0mRznxa7S2T/wXzsTXDXIA2El2xVW8mzs2qp4cF+JnvbijmNRT9oe9Lpw+p/w+any8bPzextPszXY4zGqkERgClKvMX9KxFeYAWHJylIJxb3S23qqS5az6Lt160dI+itn3RtHOCfg1gXXNWpdT18eFFR/QdgQ0eMXuU+zZ/B17jjdTp1qI1Og0Ky2uFa+w3xD23D3E9mZtXJQvTxe07temZ6KuskV7+enlofQY4ImLsxu6qCh0UVGUm40UHk8h/cNqQ0OVVLhUZOECexH9dQ/bO3d2VoYlVLh2sPG8hxvWSpuGqjquqaD+sQVz8W+AG3hocYNGzepqOlVF3prIQUR/bWcz54pBHFdUocChupuY5u/m5LrRhAc64eQMmNI5sSCd2snW5lFGqQNBfOWwVck5jtQ+d59NIMnUnT4a6Gy4F9XR5Q6eEHdSVPIU+ADu3gQD5xxonVNSDHiAmxY/qFkXYutnV+KqUj7rBdQbpxQVcAFrtz29BwMb69m4uXnjVvGRCx7Bstl2hsSc1ErtkhpPO1nOC8ef572AfzA7ysOaSijPYfsnT9sJNK8FF7iR1vNsBhLoXCttXFBfcZimjNLf28z960o5JU/v4sBIH3z/0B0/gxfuanBSa5Wgpwf5u/aQvMhO3sbZCZXmShmgcsoqhji5iEU5x+BpDUIaezOCG5KzCtUV56lfoszeixLoRttqs8QwX7pGQQ6AxjoD0dyQbauGrSxZ6eR5jqhV35FOTg4QSuXw1ZbGnhQvFjs+1FThN2NlMXme0QyoQeWNvye/rw+mkxpNA9ZPsNhNHAYT7FWtBsFidrz+rkmZKL3uFqO8tiTQuVayv2fAd3Et3QvREDvyyN2xm1zAaawv3uPCCY3wQuWsQjdsECHTtpG2zka79AT23Z/uwIEsXMgpBT9XcPbGaxoU2drvFWi86z8TqT3aWh8UN6LguRk5PuOpJs28fuirX1V7hhK5pIjD9zdjVqdyDTEN2nZgZyypJn3FsBWouo7hb13t1NEAOOkxhPuxJcmRcOV2dBWvg8Xs8PBIsKdSeHypKqOYkFMAPf0ALzp3aexiht74+4HdyMvTu7ImKC+vJbM5tdhdX6dhfHrNYFynitWkAVc9sfe+zLn3r21W5+52yqt72UR+cf3btnZSo9OsDpP1q/JQ68uUptileztCHWyide9q46chPNvpOlvHpqlo2mKzpnuyHp2Ds7zKt+aSN2c38S8lKaGEK159qp9diyg5rzz09nRoIT0A05FcflP22/GWUAeuPIowVqyW1sG7bsFuJR+8ApUFAHPymnHYyg3NnQ3ZrpCSinoS78ZXOLs8OYjIKOuaRiUJuzlSrV6n+xL7r0ZtGs+GbwtAfoGS9dAQ0LFhfz99uoU59LnobJjg2P2ZXKMIU2owcjJ2OtISuI/OygJepowTlUNUlhMnOKd8vIL73kNPR84UZ3OV+M+D4GD7a/u06xKsFHYXcu6sg912gI/X7Q3YaiPpFUFre9+GFe/aoPJ/mfmj9NZh6LPbWLq1ql7noVtnNPx91XrXXYvHQYZ2yme7OL/hQ4/BfRg5fijRV3vw64wEOs3s/bSqhZv+0CWk0fvZWaSsmdrGm9AGfb/mkqdcvuvad621GKGGKdHTifVvXQk903nlF3b2wL32fPeBegzTQ2l0CdQOI79dsv1UYUK2MoU7CH3tRe6uZF0KWUrNoEtgJD2W+dT7R1n9FhBFibnW42r0BC20fVyXhd0J0ACU8svubMf61hBnjUqg5oa2R0O+xo3kJitDf/pwgiY34pgDQwkb7VO5Xs7J1wsxza+Ywg/agTFX2G8Rv1Ukkvx8HPtMFB8nVbk6DvBvyCKf9xJdMWyVvJGZr4218+9+4pSTvSokgkEN/mb2o+fQ3vgBWNI5cNSxzItP1Ah6KkXSPyf8q+qJ0n+x95QyLucZxUMTnsKvnj7VuAVE0R6Slc+0X//7iLbVzuk+7hmgVPNmJrC5yYfG0slXPmbtAiIatLDgrhPKNH3PCGJ7NWKpPKcJTLtNKT4uTWfL5uWcOf486362vo4qw+08foX9nilQPlxOfnR2ZMHkOoYTqtQCmn9J4/OGNAl+gA8+fJ3XXljEqg0bWPWnJilNvy5IoNPMstL2cNAI4ELITbPYclMs0918K78gA9Qh3B1wFyuHP8umqL717OcUWZcBNEQOnsfijoFXuOrYT/J5JYEfPJhXwrpjAALUMSwe/ixzDFq4YWZENdDBillPWoL+3AP3KAAnVI9G0mNhFLp6p+774PdOJL6PeqEa7VrjD8NpmBc+a3rh6wxQSuGRWt/Kb58kqwhAhW7sSHq8qcd9WLWTfpQrbf8cStCaYXR/uXYWw0jOpylUzMB1jxrEgLhBBC30x320G6rRbrT9sx7fZTFExt1G5MPV2r+dRLpyQvEaNpIey/xpW3EBHaXFc9kw+g6zTm0tSz1GeiOGxa5ofTYFFdPXhwwi6FEtTle4c4nl81PkmQHc0D88hvAXfGlbbXab00A33B/tRsi/RxE2r1bjQC+CnoxE5ww118spJfftBPIr9jt9ELqB9vtQkKzMsNPoMawJbcDsugqHic9RfmG/7sy80nIQ+qoVhs+cXF3PhjlsT1aGPVVh9LGRhG2nm2A9iVZwiiJ66HIeirKmKfMObmSLnVoMlaee4BpxaBjBPVfwt5F+1uxD8jbW1RhiymHXNzutU6UBVacRLJz5CbOHziW64wiCPUcQHDib2KHL+dsDcSy7o/oKYNtYv7dqbZ8HZrxHbGC0ktUKwyfwKebPuNd6e4nyYvbutHXri6u1kSOpSqAWOJi5I2fT2dX+jDYAS9IODvwKoKbzLc+x8Ja59NFGVWZhVK6DMYQ+xQN3fsLfaq8kTTTjJtyn3IKi+no5OcR/8y/iK/Y76ike8Lffj6pMmpo+46q/bo4JCOlFpCuAieQzDVgsEGBMX7pVJDidvYme8hjjGnHs61HruqS/Lh1m1jd+rBs3CoObC7ouw5nZZTgzbWxpvFBPZYF5C5+f7G0NUNwCGXPLPGqO9Ne+1xW8+dNRxur7omujwTBwBuuqf/GX5rLzUAH9B3WvZ9jjBvNtEul3h9KjiwoX7zB6L6t5o8GSxP3keMYQZvNKyQ1PQyg6QyhhAM/Y2sZC0Q8HbNTnFJHx6mFcn+mLr4cKz8goekfaTtmXFNgYpN9wjJ+cL9FjejieanDy8EE/zAf9sLqb1hx6MpLz+mHcK44bFU1fG4e1ZB4j8fkMu1O5r04eGbvy6DjWBxe1J/o7R6CvNYRV515XhzI4udYD1fRwPNWu+AyJwcfOhMTaJTDaZwZU1uUYf9hfc72cH9JJ2RGE51gfXNQ+GB4N48APKTbrdcrX/kx6v6HoPaFtaCS9l0TW3KCee12tPX6KSV16oWvjS/+I7pBg/zYQlcNWlhSOnLK7GQCW5BTOjdIT7ASdw2dAcs3AyKffDF7pNwOLyUwZ4OKqrrwtQt7hf/H3vfancmvCxvC3OWOwlJopK6/Z1pSyk1e/Xl23tqd0OUvfNzP7j7fT0xPQeNEzZgw9Y2zUGNWqz7ckL+Y9n+U8NNALlVbPuHsX1z1plhdy5D/L+KiZZpAf2buTM4YxdHZV49f3dub3rTWEVacWZyMffeKHz9TbMWjV+PUaw0O9bNdTXSioWYXuEz2b2E4Vmbuvaq6XU76RdV9HY7g3inZOHkTf8RSJq+baXMGa0n8RlxBtXWHZ5uvWkHtd+TIzXBk9uHCK/zT0np6JaWSaIwitCN51fkRDq1g0UDI614JpM9O+fIe1CafIulCGuXomxWwiP+ME23asZtbh+tYpN/Fx/Ms8t+soabX3Yc+Fj3jw6z0kF5qqsjeXTOSn7WHpl6/wVEHrm+JV9NAOEg/kUVLte6isKI+0Ddv5aU4uZjvDT3CRotRCSkwWLLW2KTeXYkxNJfntbRxbYHthPn7IIGXmdn7ak05hkaVq8cFq7U/+ezuJ8+3M2FqfxLEH7bW3YDqfS/rXu/np9VrZpMrjZmAsLq8KZi6VYzqfS9qX2zk0LYXfmnGdnLJX93Hw7URyzpfWee3sWp/EsTm7SE7IxVhsqRGElZmMFCae5NiqLZx8vernLk8OoruyAnVZZiInFtR9LctejedUqvK59utBj2V17y8GQGYhGX/ZzrEDeZSYyh0LAi+sZ6uyKriuWyyL7V5yVw1bkXWafVc6SOk2kpWTkqpzFHXiXCViU2nUaDRqVJeKyUlJYOOHs3luxyf1119VtHVV2pabycs+wfbPXuGpL1+pdnPMWkpWsGL1bN7YmkDyL8VYqkeNZWZMBTkc2f0Jf99Uu3g3h5/33stTH24j/mzNdpbSYs4d3cmKFXN5L8XeijVNoGQ5S99dwZakQi40dNZRyQreWP0K7+0+wbkCM5Zqr4ul1Pp6b9m4nP+366vKn6v8X2b+UCVLU5TAezaCRkv207x/SBmWcu/OtAlz7dxeIYefd/yFRf+J50yt4zdUgP9djOgIUEbyT+tp8BSY/a/x2IZTDZtIeIORu5cLIYSjNHex6Q9DCHABc/b3PPVdHHub5UCNuWdThao7el84vJqndlxHM5tE82gTw8o/TLbeWid3D3O//cLBz+Vf2XhwvHXCi/EIy0fMozlGvK81yegIIYSjTF+w9GAmZkDtP4T54Y2faCBE0wjh2ZETrEGOOZO4PY4GOUCsrrJw25xypFUEOSCBjhBCNMre0yt5J9kIuBAQPYvPrmJWpRBXp9pM2stGDu5YyYsOriXRbfICNs6Nsd6+w3yWzas/ao6OtggJdIQQolFMfBy/lrjsMmjjQkjMVF5xa+k+id+jEV0eY6ZBC5SRtn8ts/IaHuVMWvYxP+7bwb/n30yoFjBns2PZ33hhf7N195qTWVdCCNFoabz43UoYPp3+hd/y5vW09LT43diZsoW9oRMITV3LpNN2bsJsh6ubFrUazMYCzhzczLq33meLIzdLuwFIMbIQQgghWi0ZuhJCCCFEqyWBjhBCCCFaLQl0hBBCCNFqSaAjhBBCiFbLoVlXv/xS+84zQgghhBDXL8noCCGEEKLVkkBHCCGEEK2WBDpCCCGEaLUk0BFCCCFEqyWBjhBCCCFaLQl0hBBCCNFqNfKmnpNYtfMRorXAJTPG3NPs+fhNFqw/1aSdE0IIIYS4Go3M6JgpNZoxXzSDsxptQATj5r/NxudjmrZ3QgghhBBXwaG7l9sUMZVVbz1AdHvg4nFW/N9fWNM0fRNCCCGEuCpXX6Nz/CMefms/+QBuegb86ar3KIQQQgjRJJqmGDkunwsAeOAT0iR7FEIIIYS4ajLrSgghhBCtVosHOkPmr2LX/h0c3r9VipmFEEII0aRaONB5hFkTu6J1BpzVhMY+xhKJdYQQQgjRRJoo0Cmm9FJj2nng6lz9/65odU3TIyGEEEKIJgp0cjAarY98AiY50O5jNu0vqPyf8fh21m1umh4JIYQQQlz9OjqKO97awPODvOFSAfGrn+HhfzZ8leRu/3czoaSz5X+ysrIQQgghmk6TBToE38zTS+YwKcLD+n+zGXNZPgdWTOGx9U1yBCGEEEIIhzRdMfK545xJyyZfGcJCrUbtpq1VgyOEEEIIce008qaedQ154TWeHu8P5gLi17/PPz/dTPy5ptq7EEIIIYTjmijQuZlJMf4AGI9+xsNLpaJYCCGEEC2viYaudLiqrY/ysj5zsK0/0aNuZmR//6bpihBCCCGEosmGrhrHn9n/XMWDUdYC5vz973L/7M/IbNlOCSGEEKKVaOGVkW8mOtyj8n+6mEk8Nb4FuyOEEEKIVqWFA51jnMk2V/u/N4H9W6wzQgghhGhlWjjQOcILf91EkvnKWwohhBBCOKrF717OuXdJyqr4TzF5aS3ZGSGEEEK0Jk0T6PxfDzprrQ9Lix1tPB4fpS0X0znwYZP0SAghhBCiCQKdiDt4bW4MOoBLpzj6uWNtl6x/hCE6ADOp29aw5qo7JIQQQghh1cjp5XfwVtwjDGgPajdlAR3MpH79Pi83ZDXkyS/x1ew+BFZrm7n9XR5bcqRx3RFCCCGEsKGRgY4aV60atRtwyYwx/yx7/vUaC9Y38O7jzmrauanBXEz+6SNs+vhdVmzLblxXhBBCCCHsaLq7lwshhBBCXGdaftaVEEIIIUQzkUBHCCGEEK2WBDpCCCGEaLUk0BFCCCFEqyWBjhBCCCFaLQl0hBBCCNFqSaAjhBBCiFZLAh0hhBBCtFoS6AghhBCi1ZJARwghhBCtlgQ6QgghhGi1JNARQgghRKslgY4QQgghWq3/D9V7q9Jqt41XAAAAAElFTkSuQmCC;" parent="1" vertex="1">
                    <mxGeometry x="-10" y="210" width="260" height="62.95" as="geometry"/>
                </mxCell>
                <mxCell id="iX1n7W7fgkuR9EXcFvVA-7" style="edgeStyle=orthogonalEdgeStyle;rounded=0;orthogonalLoop=1;jettySize=auto;html=1;exitX=0.5;exitY=1;exitDx=0;exitDy=0;" parent="1" source="iX1n7W7fgkuR9EXcFvVA-9" target="iX1n7W7fgkuR9EXcFvVA-4" edge="1">
                    <mxGeometry relative="1" as="geometry">
                        <Array as="points">
                            <mxPoint x="390" y="190"/>
                            <mxPoint x="120" y="190"/>
                        </Array>
                    </mxGeometry>
                </mxCell>
                <mxCell id="iX1n7W7fgkuR9EXcFvVA-8" value="export" style="edgeLabel;html=1;align=center;verticalAlign=middle;resizable=0;points=[];" parent="iX1n7W7fgkuR9EXcFvVA-7" vertex="1" connectable="0">
                    <mxGeometry x="0.0521" relative="1" as="geometry">
                        <mxPoint as="offset"/>
                    </mxGeometry>
                </mxCell>
                <mxCell id="iX1n7W7fgkuR9EXcFvVA-6" value="这个 component 返回的是 &amp;lt;AppContext.Provider&amp;gt;" style="rounded=1;whiteSpace=wrap;html=1;" parent="1" vertex="1">
                    <mxGeometry x="295" y="348.67" width="190" height="70" as="geometry"/>
                </mxCell>
                <mxCell id="iX1n7W7fgkuR9EXcFvVA-10" style="edgeStyle=orthogonalEdgeStyle;rounded=0;orthogonalLoop=1;jettySize=auto;html=1;exitX=0.5;exitY=1;exitDx=0;exitDy=0;" parent="1" source="iX1n7W7fgkuR9EXcFvVA-9" target="iX1n7W7fgkuR9EXcFvVA-1" edge="1">
                    <mxGeometry relative="1" as="geometry"/>
                </mxCell>
                <mxCell id="iX1n7W7fgkuR9EXcFvVA-12" value="export" style="edgeLabel;html=1;align=center;verticalAlign=middle;resizable=0;points=[];" parent="iX1n7W7fgkuR9EXcFvVA-10" vertex="1" connectable="0">
                    <mxGeometry x="0.1407" y="-1" relative="1" as="geometry">
                        <mxPoint as="offset"/>
                    </mxGeometry>
                </mxCell>
                <mxCell id="iX1n7W7fgkuR9EXcFvVA-9" value="appContext.js" style="rounded=1;whiteSpace=wrap;html=1;fillColor=#dae8fc;gradientColor=#7ea6e0;strokeColor=#6c8ebf;" parent="1" vertex="1">
                    <mxGeometry x="330" y="110" width="120" height="60" as="geometry"/>
                </mxCell>
                <mxCell id="iX1n7W7fgkuR9EXcFvVA-13" value="整个前端使用的数据是用 useReducer hook 进行创建的，并且在另一个文件 reducer.js 中定义了根据不同的 action type 所返回的新的 state。" style="rounded=1;whiteSpace=wrap;html=1;" parent="1" vertex="1">
                    <mxGeometry x="540" y="150" width="230" height="90" as="geometry"/>
                </mxCell>
                <mxCell id="iX1n7W7fgkuR9EXcFvVA-16" value="定义了用于改变全局 state 的各种方法例如 logoutUsere, registerUser 等等，把这些方法通过 context 传入到 children component中，当 children component 调用这些 methods 的时候，这些 method 内部的 dispatch function 会被激活，并通过与 reducer func 进行互动从而更新全局的 state，从而导致整个前端 rerender" style="rounded=1;whiteSpace=wrap;html=1;" parent="1" vertex="1">
                    <mxGeometry x="540" y="298.67" width="250" height="131.33" as="geometry"/>
                </mxCell>
            </root>
        </mxGraphModel>
    </diagram>
</mxfile>